<?xml version="1.0" standalone="no"?><!DOCTYPE svg PUBLIC "-//W3C//DTD SVG 1.1//EN" "http://www.w3.org/Graphics/SVG/1.1/DTD/svg11.dtd"><svg t="1705492216189" class="icon" viewBox="0 0 1024 1024" version="1.1" xmlns="http://www.w3.org/2000/svg" p-id="209156" xmlns:xlink="http://www.w3.org/1999/xlink" width="200" height="200"><path d="M126 64.2h774.2c33.3 0 60.5 27.2 60.5 60.5v773.9c0 33.5-27.4 60.9-60.9 60.9h-774c-33.2 0-60.4-27.2-60.4-60.4V124.9c-0.1-33.4 27.2-60.7 60.6-60.7z m28.9 100.4v695.1c0 5.7 4.7 10.4 10.4 10.4h695.1c5.9 0 10.7-4.8 10.7-10.7V164.2c0-5.8-4.7-10.4-10.4-10.4h-695c-6 0-10.8 4.8-10.8 10.8z m295.4 468.2l285.4-285.4c20.8-20.8 55.9-17.1 71 8 10.3 17.1 7.9 38.4-7.2 53.5L481.7 726.8c-17.9 17.9-44.8 17.9-62.7 0L232.1 539.9c-20.8-20.8-17.1-55.9 8-71 17.1-10.3 38.4-7.9 53.5 7.2l156.7 156.7z" p-id="209157" fill="#707070"></path></svg>