<?xml version="1.0" standalone="no"?><!DOCTYPE svg PUBLIC "-//W3C//DTD SVG 1.1//EN" "http://www.w3.org/Graphics/SVG/1.1/DTD/svg11.dtd"><svg t="1705490790144" class="icon" viewBox="0 0 1024 1024" version="1.1" xmlns="http://www.w3.org/2000/svg" p-id="132130" xmlns:xlink="http://www.w3.org/1999/xlink" width="200" height="200"><path d="M947.2 204.8a25.6 25.6 0 0 1 25.6 25.6v614.4a25.6 25.6 0 0 1-25.6 25.6H76.8a25.6 25.6 0 0 1-25.6-25.6V230.4a25.6 25.6 0 0 1 25.6-25.6h870.4z m-25.6 51.2H102.4v563.2h819.2V256zM480.4864 731.008c-1.3312 1.9456-5.0688 3.9168-11.3152 5.888a187.776 187.776 0 0 1-23.4752 5.4272c-21.504 3.712-43.1872 6.5024-64.9472 8.3712-11.4432 0.9728-22.4512 1.792-33.0752 2.4576-10.5984 0.6656-19.8912 0.9984-28.0064 0.9984-8.064 0-17.3312-0.3328-27.776-0.9984-10.9056-0.6656-21.7344-1.536-32.5888-2.4576-11.264-0.9984-22.3232-2.048-33.28-3.2-11.008-1.1776-21.0432-2.4832-30.208-3.968-9.1904-1.4336-16.896-2.9184-23.1936-4.4288-6.2976-1.4848-10.24-2.8672-11.8016-4.1728-2.6112-2.304-4.6848-9.216-6.2976-20.6848-1.5872-11.52-1.1264-26.2656 1.4592-44.3648 1.5616-10.496 5.76-18.3808 12.288-23.6288 7.04-5.5296 14.9504-9.8816 23.424-12.8256 9.1136-3.3024 18.3808-6.1952 27.776-8.6272a83.2 83.2 0 0 0 25.3696-11.0848c5.76-3.9168 10.24-7.5776 13.312-10.88 3.0208-3.2768 5.2736-6.528 6.7072-9.8304a24.9856 24.9856 0 0 0 2.1504-10.3424 165.632 165.632 0 0 0-0.4608-12.3136c-0.6656-6.6048-2.9184-11.776-6.7328-15.5136a176.3328 176.3328 0 0 0-12.6208-11.1104 25.856 25.856 0 0 1-6.016-8.3712 101.4272 101.4272 0 0 1-4.5568-10.8288 238.6688 238.6688 0 0 1-3.84-13.312 23.04 23.04 0 0 1-5.8368-2.9696 29.0816 29.0816 0 0 1-5.0432-5.9136 45.568 45.568 0 0 1-5.0688-10.8288 31.232 31.232 0 0 1-1.92-13.0816c0.1536-3.4816 0.9728-6.912 2.3552-10.0608a30.464 30.464 0 0 1 5.376-8.9088 220.16 220.16 0 0 1 1.3824-32c1.4336-9.728 3.4816-19.3536 6.0928-28.8512a91.136 91.136 0 0 1 12.7744-27.8272 77.824 77.824 0 0 1 17.3568-19.2256 88.064 88.064 0 0 1 19.8144-11.5712c6.7328-2.816 13.4912-4.6848 20.3008-5.6832 6.7328-0.9984 13.2352-1.4848 19.3024-1.4848 16.4352 0 31.0528 3.456 43.9808 10.368 12.8 6.912 22.3744 14.2848 28.4672 22.1696 7.0912 8.8832 12.288 18.8416 15.6928 29.824 3.4048 11.008 5.888 21.248 7.4752 30.7968 1.6128 11.0848 2.2528 22.272 1.92 33.4848 1.792 1.536 3.2768 3.3792 4.3776 5.4528 1.1264 2.4576 1.9968 5.0176 2.6368 7.6288 0.8448 3.1488 0.8448 6.9888 0.256 11.5712a40.832 40.832 0 0 1-3.84 14.3104c-1.5616 3.0208-3.5072 5.8368-5.7856 8.3712a15.616 15.616 0 0 1-7.7824 4.4288 236.9024 236.9024 0 0 1-3.84 13.312c-1.28 3.584-2.9184 7.2192-4.8128 10.8544a22.6048 22.6048 0 0 1-6.272 7.8336c-2.304 2.048-4.608 4.0448-6.9888 5.9392-2.048 1.536-3.8912 3.2768-5.5808 5.1968a25.984 25.984 0 0 0-4.096 6.144 35.2768 35.2768 0 0 0-2.7136 8.3712c-0.6144 4.3264-0.8448 8.704-0.6656 13.056 0.1536 4.4288 1.2288 8.8064 3.1232 13.056 1.92 4.2752 5.0944 8.3968 9.4208 12.288 4.3264 3.9424 10.3936 7.424 18.0992 10.3936 6.7584 2.944 14.2336 5.4784 22.4512 7.6288 8.192 2.1504 16.0768 4.6848 23.68 7.6288 7.5776 2.9696 14.336 6.7584 20.3008 11.3408 5.9648 4.608 10.2144 10.496 12.7744 17.7664 1.28 4.5824 2.304 10.1376 3.1232 16.7424 0.7936 6.6048 1.2032 13.2864 1.2032 19.968 0 6.7072-0.4608 13.056-1.4592 18.944-0.9216 5.9136-2.3552 10.3424-4.352 13.312zM588.8 588.8a25.6 25.6 0 0 1 0-51.2h254.72a25.6 25.6 0 0 1 0 51.2H588.8z m0 153.6a25.6 25.6 0 0 1 0-51.2h254.72a25.6 25.6 0 0 1 0 51.2H588.8z m0-307.2a25.6 25.6 0 0 1 0-51.2h254.72a25.6 25.6 0 0 1 0 51.2H588.8z" fill="#707070" p-id="132131"></path></svg>