<?xml version="1.0" standalone="no"?><!DOCTYPE svg PUBLIC "-//W3C//DTD SVG 1.1//EN" "http://www.w3.org/Graphics/SVG/1.1/DTD/svg11.dtd"><svg t="1705491366762" class="icon" viewBox="0 0 1204 1024" version="1.1" xmlns="http://www.w3.org/2000/svg" p-id="205376" xmlns:xlink="http://www.w3.org/1999/xlink" width="235.15625" height="200"><path d="M990.268235 354.273882c-123.873882-41.652706-74.179765-121.012706-148.570353-151.823058-126.283294-52.344471-247.627294-50.597647-247.627294-50.597648s-120.922353-1.355294-247.567059 50.597648c-74.571294 30.539294-24.756706 110.170353-148.60047 151.792941-130.921412 44.062118-199.258353-20.48-197.872941-100.201412 0.963765-53.428706 33.159529-113.694118 98.846117-152.816941C266.992941 1.024 594.070588 0 594.070588 0s327.107765 1.024 495.224471 101.195294c65.174588 38.881882 97.430588 98.544941 98.785882 151.702588 2.108235 80.263529-66.258824 145.588706-197.812706 101.376z m-594.281411-50.597647h99.056941v50.597647h198.083764v-50.597647h99.056942v50.597647l297.110588 354.243765v202.450824c0 55.868235-44.363294 101.195294-99.026824 101.195294H197.872941c-54.663529 0-99.026824-45.327059-99.026823-101.195294v-202.450824l297.110588-354.243765v-50.597647z m198.083764 607.292236c109.417412 0 198.113882-90.654118 198.113883-202.450824 0-111.796706-88.696471-202.420706-198.113883-202.420706-109.387294 0-198.083765 90.654118-198.083764 202.420706 0 111.796706 88.696471 202.450824 198.083764 202.450824z m0-303.646118c54.693647 0 99.056941 45.327059 99.056941 101.195294s-44.363294 101.225412-99.056941 101.225412c-54.663529 0-99.026824-45.357176-99.026823-101.195294 0-55.898353 44.363294-101.225412 99.026823-101.225412z" fill="#707070" p-id="205377"></path></svg>