<?xml version="1.0" standalone="no"?><!DOCTYPE svg PUBLIC "-//W3C//DTD SVG 1.1//EN" "http://www.w3.org/Graphics/SVG/1.1/DTD/svg11.dtd"><svg t="1705485635856" class="icon" viewBox="0 0 1024 1024" version="1.1" xmlns="http://www.w3.org/2000/svg" p-id="95799" xmlns:xlink="http://www.w3.org/1999/xlink" width="200" height="200"><path d="M32 384A96 96 0 0 1 128 288h768A96 96 0 0 1 992 384v256a96 96 0 0 1-96 96H128A96 96 0 0 1 32 640V384zM128 352a32 32 0 0 0-32 32v256a32 32 0 0 0 32 32h768a32 32 0 0 0 32-32V384a32 32 0 0 0-32-32H128z" p-id="95800" fill="#707070"></path><path d="M99.392 689.664l192-384 57.216 28.672-192 384-57.216-28.672zM291.392 689.664l192-384 57.216 28.672-192 384-57.216-28.672z" p-id="95801" fill="#707070"></path></svg>