<?xml version="1.0" standalone="no"?><!DOCTYPE svg PUBLIC "-//W3C//DTD SVG 1.1//EN" "http://www.w3.org/Graphics/SVG/1.1/DTD/svg11.dtd"><svg t="1705483903822" class="icon" viewBox="0 0 1024 1024" version="1.1" xmlns="http://www.w3.org/2000/svg" p-id="33351" xmlns:xlink="http://www.w3.org/1999/xlink" width="200" height="200"><path d="M469.333333 384H384v42.666667H298.666667V298.666667h426.666666v128h-85.333333V384h-85.333333v256h42.666666v85.333333h-170.666666v-85.333333h42.666666V384zM170.666667 85.333333h682.666666a85.333333 85.333333 0 0 1 85.333334 85.333334v682.666666a85.333333 85.333333 0 0 1-85.333334 85.333334H170.666667a85.333333 85.333333 0 0 1-85.333334-85.333334V170.666667a85.333333 85.333333 0 0 1 85.333334-85.333334z m0 85.333334v682.666666h682.666666V170.666667H170.666667z" p-id="33352" fill="#707070"></path></svg>