<svg width="25" height="24" viewBox="0 0 25 24" fill="none" xmlns="http://www.w3.org/2000/svg">
<g clip-path="url(#clip0_5537_57151)">
<path d="M3.25 10C3.25 6.229 3.25 4.343 4.422 3.172C5.593 2 7.479 2 11.25 2H13.25C17.021 2 18.907 2 20.078 3.172C21.25 4.343 21.25 6.229 21.25 10V14C21.25 17.771 21.25 19.657 20.078 20.828C18.907 22 17.021 22 13.25 22H11.25C7.479 22 5.593 22 4.422 20.828C3.25 19.657 3.25 17.771 3.25 14V10Z" fill="#1677FF" stroke="#1677FF" stroke-width="1.5"/>
<path fill-rule="evenodd" clip-rule="evenodd" d="M7.5 8C7.5 7.58579 7.83579 7.25 8.25 7.25H16.25C16.6642 7.25 17 7.58579 17 8C17 8.41421 16.6642 8.75 16.25 8.75H8.25C7.83579 8.75 7.5 8.41421 7.5 8ZM7.5 12C7.5 11.5858 7.83579 11.25 8.25 11.25H16.25C16.6642 11.25 17 11.5858 17 12C17 12.4142 16.6642 12.75 16.25 12.75H8.25C7.83579 12.75 7.5 12.4142 7.5 12ZM7.5 16C7.5 15.5858 7.83579 15.25 8.25 15.25H13.25C13.6642 15.25 14 15.5858 14 16C14 16.4142 13.6642 16.75 13.25 16.75H8.25C7.83579 16.75 7.5 16.4142 7.5 16Z" fill="#BAE0FF"/>
</g>
<defs>
<clipPath id="clip0_5537_57151">
<rect width="24" height="24" fill="white" transform="translate(0.25)"/>
</clipPath>
</defs>
</svg>
