<svg width="25" height="24" viewBox="0 0 25 24" fill="none" xmlns="http://www.w3.org/2000/svg">
<g clip-path="url(#clip0_5537_74740)">
<path d="M3.25 10C3.25 6.229 3.25 4.343 4.422 3.172C5.593 2 7.479 2 11.25 2H13.25C17.021 2 18.907 2 20.078 3.172C21.25 4.343 21.25 6.229 21.25 10V14C21.25 17.771 21.25 19.657 20.078 20.828C18.907 22 17.021 22 13.25 22H11.25C7.479 22 5.593 22 4.422 20.828C3.25 19.657 3.25 17.771 3.25 14V10Z" stroke="#595959" stroke-width="1.5" stroke-linecap="round"/>
<path d="M8.25 12H16.25M8.25 8H16.25M8.25 16H13.25" stroke="#595959" stroke-width="1.5" stroke-linecap="round"/>
</g>
<defs>
<clipPath id="clip0_5537_74740">
<rect width="24" height="24" fill="white" transform="translate(0.25)"/>
</clipPath>
</defs>
</svg>
