<svg width="12" height="12" viewBox="0 0 12 12" fill="none" xmlns="http://www.w3.org/2000/svg">
<g clip-path="url(#clip0_5320_171666)">
<path fill-rule="evenodd" clip-rule="evenodd" d="M1.48709 1.50546C2.41469 1.4815 3.1726 1.53147 3.93003 1.75471C4.60328 1.95313 5.24958 2.28051 6 2.77339C6.75042 2.28051 7.39672 1.95313 8.06997 1.75471C8.8274 1.53147 9.58531 1.4815 10.5129 1.50546C10.7839 1.51246 11 1.73418 11 2.00529V8.62949C11 8.90564 10.7761 9.12949 10.5 9.12949C9.62168 9.12949 8.97628 9.18992 8.35457 9.37274C7.73324 9.55544 7.10527 9.86942 6.27771 10.4158C6.27043 10.4207 6.26301 10.4253 6.25544 10.4298C6.24931 10.4335 6.24312 10.437 6.23688 10.4403C6.09825 10.5149 5.93416 10.5192 5.7935 10.4554C5.77683 10.4478 5.76049 10.4393 5.74456 10.4298C5.73699 10.4253 5.72957 10.4207 5.72229 10.4158C4.89473 9.86942 4.26676 9.55544 3.64543 9.37274C3.02372 9.18992 2.37832 9.12949 1.5 9.12949C1.22386 9.12949 1 8.90564 1 8.62949V2.00529C1 1.73418 1.21607 1.51246 1.48709 1.50546ZM5.5 9.10305V3.64155C4.77619 3.16191 4.20835 2.87926 3.64733 2.71391C3.15196 2.56792 2.64015 2.5069 2 2.50058V8.13667C2.70309 8.1584 3.31552 8.23339 3.92754 8.41335C4.44636 8.56591 4.95046 8.78961 5.5 9.10305ZM6.5 9.10305C7.04954 8.78961 7.55364 8.56591 8.07246 8.41335C8.68448 8.23339 9.29691 8.1584 10 8.13667V2.50058C9.35985 2.5069 8.84804 2.56792 8.35267 2.71391C7.79165 2.87926 7.22381 3.16191 6.5 3.64155V9.10305Z" fill="black" fill-opacity="0.45"/>
</g>
<defs>
<clipPath id="clip0_5320_171666">
<rect width="12" height="12" fill="white"/>
</clipPath>
</defs>
</svg>
