<svg width="14" height="12" viewBox="0 0 14 12" fill="none" xmlns="http://www.w3.org/2000/svg">
<path fill-rule="evenodd" clip-rule="evenodd" d="M0.982947 0.00727798C2.21975 -0.0246712 3.2303 0.0419658 4.24021 0.339609C5.13786 0.604169 5.9996 1.04069 7.00016 1.69785C8.00073 1.04069 8.86246 0.604169 9.76012 0.339609C10.77 0.0419658 11.7806 -0.0246712 13.0174 0.00727798C13.3787 0.0166127 13.6668 0.312239 13.6668 0.673722V9.50599C13.6668 9.87418 13.3684 10.1727 13.0002 10.1727C11.8291 10.1727 10.9685 10.2532 10.1396 10.497C9.31115 10.7406 8.47386 11.1592 7.37044 11.8877C7.36074 11.8942 7.35084 11.9005 7.34075 11.9065C7.33258 11.9113 7.32433 11.916 7.316 11.9205C7.13116 12.0199 6.91238 12.0256 6.72483 11.9405C6.70261 11.9304 6.68082 11.9191 6.65958 11.9065C6.64949 11.9005 6.63959 11.8942 6.62989 11.8877C5.52647 11.1592 4.68917 10.7406 3.86074 10.497C3.03179 10.2532 2.17126 10.1727 1.00016 10.1727C0.631973 10.1727 0.333496 9.87418 0.333496 9.50599V0.673722C0.333496 0.312239 0.621584 0.0166127 0.982947 0.00727798ZM6.3335 10.1374V2.8554C5.36842 2.21589 4.6113 1.83901 3.86327 1.61855C3.20277 1.42389 2.52036 1.34253 1.66683 1.3341V8.84889C2.60428 8.87787 3.42085 8.97785 4.23688 9.2178C4.92864 9.42122 5.60077 9.71948 6.3335 10.1374ZM7.66683 10.1374C8.39956 9.71948 9.07168 9.42122 9.76345 9.2178C10.5795 8.97785 11.396 8.87787 12.3335 8.84889V1.3341C11.48 1.34253 10.7976 1.42389 10.1371 1.61855C9.38902 1.83901 8.63191 2.21589 7.66683 2.8554V10.1374Z" fill="white"/>
</svg>
