<svg width="25" height="24" viewBox="0 0 25 24" fill="none" xmlns="http://www.w3.org/2000/svg">
<g clip-path="url(#clip0_5537_74729)">
<path d="M3.75 10C3.75 6.229 3.75 4.343 4.922 3.172C6.093 2 7.979 2 11.75 2H13.75C17.521 2 19.407 2 20.578 3.172C21.75 4.343 21.75 6.229 21.75 10V14C21.75 17.771 21.75 19.657 20.578 20.828C19.407 22 17.521 22 13.75 22H11.75C7.979 22 6.093 22 4.922 20.828C3.75 19.657 3.75 17.771 3.75 14V10Z" fill="#1677FF" stroke="#1677FF" stroke-width="1.5" stroke-linecap="round"/>
<path fill-rule="evenodd" clip-rule="evenodd" d="M13.7981 8.4519C12.5289 7.1827 10.4711 7.1827 9.2019 8.4519C7.9327 9.72111 7.9327 11.7789 9.2019 13.0481C10.4711 14.3173 12.5289 14.3173 13.7981 13.0481C15.0673 11.7789 15.0673 9.72111 13.7981 8.4519ZM8.14124 7.39124C9.99623 5.53625 13.0038 5.53625 14.8588 7.39124C16.5333 9.06578 16.6962 11.6795 15.3475 13.5368L18.5303 16.7197C18.8232 17.0126 18.8232 17.4874 18.5303 17.7803C18.2374 18.0732 17.7626 18.0732 17.4697 17.7803L14.2868 14.5975C12.4295 15.9462 9.81578 15.7833 8.14124 14.1088C6.28625 12.2538 6.28625 9.24623 8.14124 7.39124Z" fill="#BAE0FF"/>
</g>
<defs>
<clipPath id="clip0_5537_74729">
<rect width="24" height="24" fill="white" transform="translate(0.75)"/>
</clipPath>
</defs>
</svg>
