<svg width="25" height="24" viewBox="0 0 25 24" fill="none" xmlns="http://www.w3.org/2000/svg">
<g clip-path="url(#clip0_5537_57141)">
<path d="M3.75 10C3.75 6.229 3.75 4.343 4.922 3.172C6.093 2 7.979 2 11.75 2H13.75C17.521 2 19.407 2 20.578 3.172C21.75 4.343 21.75 6.229 21.75 10V14C21.75 17.771 21.75 19.657 20.578 20.828C19.407 22 17.521 22 13.75 22H11.75C7.979 22 6.093 22 4.922 20.828C3.75 19.657 3.75 17.771 3.75 14V10Z" stroke="#595959" stroke-width="1.5" stroke-linecap="round"/>
<path d="M14.5 13.75L18 17.25M14.3284 7.92157C15.8905 9.48367 15.8905 12.0163 14.3284 13.5784C12.7663 15.1405 10.2337 15.1405 8.67157 13.5784C7.10948 12.0163 7.10948 9.48367 8.67157 7.92157C10.2337 6.35948 12.7663 6.35948 14.3284 7.92157Z" stroke="#595959" stroke-width="1.5" stroke-linecap="round"/>
</g>
<defs>
<clipPath id="clip0_5537_57141">
<rect width="24" height="24" fill="white" transform="translate(0.75)"/>
</clipPath>
</defs>
</svg>
