<svg width="20" height="20" viewBox="0 0 20 20" fill="none" xmlns="http://www.w3.org/2000/svg">
<g clip-path="url(#clip0_5537_44906)">
<path fill-rule="evenodd" clip-rule="evenodd" d="M3.41218 2.14784C3.54933 1.85502 3.84349 1.66797 4.16684 1.66797H15.8335C16.1569 1.66797 16.451 1.85502 16.5882 2.14784C16.7253 2.44066 16.6807 2.78639 16.4737 3.03479L12.5002 7.80301V17.5013C12.5002 17.8042 12.3358 18.0833 12.0708 18.2302C11.8059 18.377 11.4821 18.3685 11.2252 18.208L7.89184 16.1246C7.64819 15.9724 7.50017 15.7053 7.50017 15.418V7.80301L3.52666 3.03479C3.31965 2.78639 3.27503 2.44066 3.41218 2.14784ZM5.94604 3.33464L8.97369 6.96782C9.09849 7.11758 9.16684 7.30636 9.16684 7.5013V14.9561L10.8335 15.9978V7.5013C10.8335 7.30636 10.9019 7.11758 11.0267 6.96782L14.0543 3.33464H5.94604Z" fill="#1677FF"/>
</g>
<defs>
<clipPath id="clip0_5537_44906">
<rect width="20" height="20" fill="white"/>
</clipPath>
</defs>
</svg>
