<svg width="12" height="12" viewBox="0 0 12 12" fill="none" xmlns="http://www.w3.org/2000/svg">
<g clip-path="url(#clip0_5320_171669)">
<path fill-rule="evenodd" clip-rule="evenodd" d="M2 3.7C2 2.57989 2 2.01984 2.21799 1.59202C2.40973 1.21569 2.71569 0.909734 3.09202 0.717987C3.51984 0.5 4.0799 0.5 5.2 0.5H6.8C7.9201 0.5 8.48016 0.5 8.90798 0.717987C9.28431 0.909734 9.59027 1.21569 9.78201 1.59202C10 2.01984 10 2.5799 10 3.7V8.3C10 9.4201 10 9.98016 9.78201 10.408C9.59027 10.7843 9.28431 11.0903 8.90798 11.282C8.48016 11.5 7.9201 11.5 6.8 11.5H5.2C4.0799 11.5 3.51984 11.5 3.09202 11.282C2.71569 11.0903 2.40973 10.7843 2.21799 10.408C2 9.98016 2 9.4201 2 8.3V3.7ZM3.11259 2.03903C3 2.25576 3 2.54051 3 3.11V7.89C3 8.45949 3 8.74424 3.11259 8.96097C3.20746 9.14362 3.35638 9.29254 3.53903 9.38741C3.75576 9.5 4.04051 9.5 4.61 9.5H7.39C7.95949 9.5 8.24424 9.5 8.46097 9.38741C8.64362 9.29254 8.79254 9.14362 8.88741 8.96097C9 8.74424 9 8.45949 9 7.89V3.11C9 2.54051 9 2.25576 8.88741 2.03903C8.79254 1.85638 8.64362 1.70746 8.46097 1.61259C8.24424 1.5 7.95949 1.5 7.39 1.5H4.61C4.04051 1.5 3.75576 1.5 3.53903 1.61259C3.35638 1.70746 3.20746 1.85638 3.11259 2.03903Z" fill="black" fill-opacity="0.45"/>
</g>
<defs>
<clipPath id="clip0_5320_171669">
<rect width="12" height="12" fill="white"/>
</clipPath>
</defs>
</svg>
