<svg width="20" height="20" viewBox="0 0 20 20" fill="none" xmlns="http://www.w3.org/2000/svg">
<path d="M10.0001 0C15.5238 0 20.0016 4.47785 20.0016 10.0016C20.0016 15.5253 15.5238 20.0031 10.0001 20.0031C4.47638 20.0031 -0.00146484 15.5253 -0.00146484 10.0016C-0.00146484 4.47785 4.47638 0 10.0001 0ZM10.0001 1.5C5.30481 1.5 1.49854 5.30627 1.49854 10.0016C1.49854 14.6968 5.30481 18.5031 10.0001 18.5031C14.6954 18.5031 18.5016 14.6968 18.5016 10.0016C18.5016 5.30627 14.6954 1.5 10.0001 1.5ZM9.99644 8.50058C10.3761 8.50033 10.6901 8.78228 10.74 9.14833L10.7469 9.25009L10.7505 14.7517C10.7508 15.1659 10.4152 15.5019 10.001 15.5022C9.62133 15.5024 9.30735 15.2205 9.25745 14.8544L9.25053 14.7527L9.24693 9.25107C9.24666 8.83686 9.58223 8.50085 9.99644 8.50058ZM10.0005 5.00282C10.5521 5.00282 10.9992 5.44993 10.9992 6.00148C10.9992 6.55303 10.5521 7.00014 10.0005 7.00014C9.44899 7.00014 9.00187 6.55303 9.00187 6.00148C9.00187 5.44993 9.44899 5.00282 10.0005 5.00282Z" fill="black" fill-opacity="0.45"/>
</svg>
