<svg width="24" height="24" viewBox="0 0 24 24" fill="none" xmlns="http://www.w3.org/2000/svg">
<g id="Icon (24x24)">
<path id="Shape" fill-rule="evenodd" clip-rule="evenodd" d="M15.172 1C15.967 1 16.73 1.31607 17.293 1.87868L21.121 5.70711C21.684 6.26972 22 7.03278 22 7.82843V20C22 21.6569 20.657 23 19 23H7C5.343 23 4 21.6569 4 20V19H3C1.895 19 1 18.1046 1 17V9C1 7.89543 1.895 7 3 7H4V4C4 2.34315 5.343 1 7 1H15.172ZM15.172 3H7C6.448 3 6 3.44772 6 4V7H15C16.105 7 17 7.89543 17 9V17C17 18.1046 16.105 19 15 19H6V20C6 20.5523 6.448 21 7 21H19C19.552 21 20 20.5523 20 20V7.82843C20 7.56321 19.895 7.30886 19.707 7.12132L15.879 3.29289C15.691 3.10536 15.437 3 15.172 3ZM5.717 9.00195H4.035L6.15 17H7.609L9.092 11.457H9.15L10.627 17H12.086L14.201 9.00195H12.52L11.283 14.709H11.219L9.807 9.00195H8.436L7.018 14.709H6.959L5.717 9.00195Z" fill="#1677FF"/>
</g>
</svg>
