<svg width="24" height="24" viewBox="0 0 24 24" fill="none" xmlns="http://www.w3.org/2000/svg">
<g id="Icon (24x24)">
<path id="Shape" fill-rule="evenodd" clip-rule="evenodd" d="M15.1716 1C15.9672 1 16.7303 1.31607 17.2929 1.87868L21.1213 5.70711C21.6839 6.26972 22 7.03278 22 7.82843V20C22 21.6569 20.6569 23 19 23H7C5.3431 23 4 21.6569 4 20V18H3C1.8954 18 1 17.1046 1 16V9C1 7.89543 1.8954 7 3 7H4V4C4 2.34315 5.3431 1 7 1H15.1716ZM15.1716 3H7C6.4477 3 6 3.44772 6 4V7H16C17.1046 7 18 7.89543 18 9V16C18 17.1046 17.1046 18 16 18H6V20C6 20.5523 6.4477 21 7 21H19C19.5523 21 20 20.5523 20 20V7.82843C20 7.56321 19.8946 7.30886 19.7071 7.12132L15.8787 3.29289C15.6911 3.10536 15.4368 3 15.1716 3ZM6.4208 9.27246H2.6558V15.4696H6.4208V14.5435H3.6252V12.8298H6.1438V11.9123H3.6252V10.1986H6.4208V9.27246ZM8.3961 9.27246H7.219L9.1318 12.2499L7.0805 15.4696H8.2576L9.7636 13.0721H9.8156L11.3216 15.4696H12.4987L10.4388 12.2499L12.3602 9.27246H11.1745L9.8156 11.4796H9.7636L8.3961 9.27246ZM14.3428 9.27246H13.3734V15.4696H17V14.5435H14.3428V9.27246Z" fill="#52C41A"/>
</g>
</svg>
