<svg width="24" height="24" viewBox="0 0 24 24" fill="none" xmlns="http://www.w3.org/2000/svg">
<g id="Icon (24x24)">
<path id="Shape" fill-rule="evenodd" clip-rule="evenodd" d="M15.1716 1C15.9672 1 16.7303 1.31607 17.2929 1.87868L21.121 5.70711C21.684 6.26972 22 7.03278 22 7.82843V20C22 21.6569 20.657 23 19 23H7C5.3431 23 4 21.6569 4 20V17H3C1.8954 17 1 16.1046 1 15V9C1 7.89543 1.8954 7 3 7H4V4C4 2.34315 5.3431 1 7 1H15.1716ZM15.1716 3H7C6.4477 3 6 3.44772 6 4V7H16C17.1046 7 18 7.89543 18 9V15C18 16.1046 17.1046 17 16 17H6V20C6 20.5523 6.4477 21 7 21H19C19.5523 21 20 20.5523 20 20V7.82843C20 7.56321 19.8946 7.30886 19.7071 7.12132L15.8787 3.29289C15.6911 3.10536 15.4368 3 15.1716 3ZM4.6398 9.27246H2.6558V15.0005H3.5518V12.7765H4.6398L4.76455 12.773C5.05271 12.7567 5.32044 12.6831 5.5678 12.5525C5.8558 12.4031 6.0824 12.1951 6.2478 11.9285C6.4184 11.6618 6.5038 11.3605 6.5038 11.0245C6.5038 10.6885 6.4184 10.3871 6.2478 10.1205C6.0824 9.85379 5.8558 9.64579 5.5678 9.49646C5.2851 9.34713 4.9758 9.27246 4.6398 9.27246ZM9.6398 9.27246H7.6558V15.0005H8.5518V12.7765H9.6398L9.76455 12.773C10.0527 12.7567 10.3204 12.6831 10.5678 12.5525C10.8558 12.4031 11.0824 12.1951 11.2478 11.9285C11.4184 11.6618 11.5038 11.3605 11.5038 11.0245C11.5038 10.6885 11.4184 10.3871 11.2478 10.1205C11.0824 9.85379 10.8558 9.64579 10.5678 9.49646C10.2851 9.34713 9.9758 9.27246 9.6398 9.27246ZM16.4755 9.20664H12.6212V10.1026L14.1002 10.1021L14.1005 15.0005H14.9965L14.9957 10.1021H16.4758L16.4755 9.20664ZM4.6558 10.1285C4.8531 10.1285 5.0238 10.1711 5.1678 10.2565C5.3118 10.3418 5.4211 10.4538 5.4958 10.5925C5.5704 10.7311 5.6078 10.8751 5.6078 11.0245C5.6078 11.1738 5.5704 11.3178 5.4958 11.4565C5.4211 11.5951 5.3118 11.7098 5.1678 11.8005C5.0238 11.8858 4.8531 11.9285 4.6558 11.9285H3.5518V10.1285H4.6558ZM9.6558 10.1285C9.8531 10.1285 10.0238 10.1711 10.1678 10.2565C10.3118 10.3418 10.4211 10.4538 10.4958 10.5925C10.5704 10.7311 10.6078 10.8751 10.6078 11.0245C10.6078 11.1738 10.5704 11.3178 10.4958 11.4565C10.4211 11.5951 10.3118 11.7098 10.1678 11.8005C10.0238 11.8858 9.8531 11.9285 9.6558 11.9285H8.5518V10.1285H9.6558Z" fill="#FF4D4F"/>
</g>
</svg>
