<svg width="24" height="24" viewBox="0 0 24 24" fill="none" xmlns="http://www.w3.org/2000/svg">
<g id="Icon (24x24)">
<path id="Shape" fill-rule="evenodd" clip-rule="evenodd" d="M15 1C15.2357 1 15.4629 1.08324 15.6422 1.23346L15.7071 1.29289L20.7071 6.29289C20.8738 6.45959 20.9756 6.67909 20.9961 6.91207L21 7V20C21 21.6192 19.7172 22.9388 18.1125 22.9979L18 23H6C4.3808 23 3.06121 21.7172 3.00207 20.1125L3 20V4C3 2.3808 4.28279 1.06121 5.88753 1.00207L6 1H15ZM13 3H6C5.47282 3 5.04092 3.40794 5.00274 3.92537L5 4V20C5 20.5272 5.40794 20.9591 5.92537 20.9973L6 21H18C18.5272 21 18.9591 20.5921 18.9973 20.0746L19 20V9H16C14.3808 9 13.0612 7.71721 13.0021 6.11247L13 6V3ZM18.5855 7L15 3.4145V6C15 6.52718 15.4079 6.95908 15.9254 6.99726L16 7H18.5855Z" fill="black" fill-opacity="0.88"/>
</g>
</svg>
