<svg width="24" height="24" viewBox="0 0 24 24" fill="none" xmlns="http://www.w3.org/2000/svg">
<g id="Icon (24x24)">
<g id="Shape">
<path d="M15.5 10C16.3284 10 17 9.32843 17 8.5C17 7.67157 16.3284 7 15.5 7C14.6716 7 14 7.67157 14 8.5C14 9.32843 14.6716 10 15.5 10Z" fill="black" fill-opacity="0.88"/>
<path fill-rule="evenodd" clip-rule="evenodd" d="M3 6.66667C3 4.64162 4.64162 3 6.66667 3H17.3333C19.3584 3 21 4.64162 21 6.66667V17.3333C21 19.3584 19.3584 21 17.3333 21H6.66667C4.64162 21 3 19.3584 3 17.3333V12.8163C3 12.8163 3 12.8164 3 12.8163V6.66667ZM5 13.28V17.3333C5 18.2538 5.74619 19 6.66667 19H17.3333C18.1727 19 18.8672 18.3795 18.983 17.5721L17.4595 16.2482C17.1775 16.0032 16.8126 15.8538 16.4233 15.8311C16.0339 15.8084 15.6513 15.9144 15.3384 16.1266L15.0711 16.3079C14.535 16.6717 13.8878 16.8386 13.243 16.7847C12.5981 16.7308 11.9876 16.4586 11.5209 16.008L7.6825 12.3013C7.4952 12.1205 7.23704 12.0096 6.9586 12.0006C6.6802 11.9916 6.41357 12.0858 6.21271 12.2553L5 13.28ZM19 14.9373L18.7713 14.7386C18.1502 14.1988 17.363 13.8824 16.5396 13.8345C15.7162 13.7865 14.8972 14.0093 14.2158 14.4714L13.9481 14.653C13.795 14.7569 13.6041 14.8079 13.4097 14.7917C13.2154 14.7754 13.0391 14.6938 12.9101 14.5692L9.07165 10.8625C8.52078 10.3306 7.78789 10.0263 7.02315 10.0016C6.29198 9.97802 5.57297 10.2116 5 10.6638V6.66667C5 5.74619 5.74619 5 6.66667 5H17.3333C18.2538 5 19 5.74619 19 6.66667V14.9373Z" fill="black" fill-opacity="0.88"/>
</g>
</g>
</svg>
