<svg width="24" height="24" viewBox="0 0 24 24" fill="none" xmlns="http://www.w3.org/2000/svg">
<g id="Icon (24x24)">
<path id="Shape" fill-rule="evenodd" clip-rule="evenodd" d="M15.1716 1C15.9672 1 16.7303 1.31607 17.2929 1.87868L21.1213 5.70711C21.6839 6.26972 22 7.03278 22 7.82843V20C22 21.6569 20.6569 23 19 23H7C5.34315 23 4 21.6569 4 20V18H3C1.89543 18 1 17.1046 1 16V9C1 7.89543 1.89543 7 3 7H4V4C4 2.34315 5.34315 1 7 1H15.1716ZM15.1716 3H7C6.44772 3 6 3.44772 6 4V7H16C17.1046 7 18 7.89543 18 9V16C18 17.1046 17.1046 18 16 18H6V20C6 20.5523 6.44772 21 7 21H19C19.5523 21 20 20.5523 20 20V7.82843C20 7.56321 19.8946 7.30886 19.7071 7.12132L15.8787 3.29289C15.6911 3.10536 15.4368 3 15.1716 3ZM7.99109 9.27246H3.60457V10.2362H6.82015L3.46045 14.6858V15.7216H8.02712V14.7579H4.6494L7.99109 10.3083V9.27246ZM10.1958 9.27246H9.18701V15.7216H10.1958V9.27246ZM13.9013 9.27246H11.6675V15.7216H12.6763V13.2176H13.9013C14.2796 13.2176 14.6279 13.1336 14.9462 12.9654C15.2704 12.7973 15.5256 12.5631 15.7118 12.2629C15.9039 11.9626 16 11.6234 16 11.245C16 10.8667 15.9039 10.5275 15.7118 10.2272C15.5256 9.92699 15.2704 9.6928 14.9462 9.52466C14.6279 9.35653 14.2796 9.27246 13.9013 9.27246ZM13.9193 10.2362C14.1415 10.2362 14.3337 10.2843 14.4958 10.3804C14.6579 10.4764 14.781 10.6025 14.8651 10.7587C14.9492 10.9148 14.9912 11.0769 14.9912 11.245C14.9912 11.4132 14.9492 11.5753 14.8651 11.7314C14.781 11.8876 14.6579 12.0167 14.4958 12.1187C14.3337 12.2148 14.1415 12.2629 13.9193 12.2629H12.6763V10.2362H13.9193Z" fill="black" fill-opacity="0.88"/>
</g>
</svg>
