<svg xmlns="http://www.w3.org/2000/svg" width="32" height="32" fill="#000" xmlns:v="https://vecta.io/nano"><path d="M20.667 13.333a2 2 0 0 0 0-4 2 2 0 0 0 0 4z" fill-opacity=".45"/><path fill-rule="evenodd" d="M4 8.889A4.89 4.89 0 0 1 8.889 4h14.222A4.89 4.89 0 0 1 28 8.889v14.222A4.89 4.89 0 0 1 23.111 28H8.889A4.89 4.89 0 0 1 4 23.111v-6.023-8.2zm2.667 8.818v5.404c0 1.227.995 2.222 2.222 2.222h14.222c1.119 0 2.045-.827 2.2-1.904l-2.031-1.765c-.376-.327-.863-.526-1.382-.556a2.34 2.34 0 0 0-1.446.394l-.357.242c-.715.485-1.578.708-2.437.636s-1.674-.435-2.296-1.035l-5.118-4.942a1.46 1.46 0 0 0-.965-.401c-.371-.012-.727.114-.995.339l-1.617 1.366zm18.667 2.21l-.305-.265c-.828-.72-1.878-1.142-2.976-1.205s-2.19.233-3.098.849l-.357.242c-.204.139-.459.207-.718.185a1.09 1.09 0 0 1-.666-.297l-5.118-4.942c-.734-.709-1.712-1.115-2.731-1.148a4.14 4.14 0 0 0-2.698.883v-5.33c0-1.227.995-2.222 2.222-2.222h14.222c1.227 0 2.222.995 2.222 2.222v11.028z" fill-opacity=".45"/></svg>