<svg xmlns="http://www.w3.org/2000/svg" fill="#000" viewBox="0 0 21 20" xmlns:v="https://vecta.io/nano"><path d="M6.083 8.333c-.46 0-.833.373-.833.833s.373.833.833.833h8.333c.46 0 .833-.373.833-.833s-.373-.833-.833-.833H6.083zM5.25 12.5c0-.46.373-.833.833-.833h8.333c.46 0 .833.373.833.833s-.373.833-.833.833H6.083c-.46 0-.833-.373-.833-.833z" fill-opacity=".88"/><path fill-rule="evenodd" d="M6.083.833c.46 0 .833.373.833.833V2.5h6.667v-.833c0-.46.373-.833.833-.833s.833.373.833.833V2.5l.996.025c.329.027.657.086.972.247a2.5 2.5 0 0 1 1.093 1.093c.161.315.22.643.247.972.026.312.026.691.026 1.13v8.898l-.026 1.13c-.027.329-.086.657-.247.973a2.5 2.5 0 0 1-1.093 1.093c-.315.161-.643.22-.972.247-.312.025-.691.025-1.13.025H5.384c-.439 0-.818 0-1.13-.025-.329-.027-.657-.086-.972-.247a2.5 2.5 0 0 1-1.093-1.093c-.161-.315-.22-.643-.247-.973-.026-.312-.025-.691-.025-1.13V5.968l.025-1.13c.027-.329.086-.657.247-.972a2.5 2.5 0 0 1 1.093-1.093c.315-.161.643-.22.972-.247A13.03 13.03 0 0 1 5.25 2.5v-.833c0-.46.373-.833.833-.833zm7.5 3.333V5c0 .46.373.833.833.833s.833-.373.833-.833v-.833l.86.02c.226.019.31.05.352.071.157.08.284.207.364.364.021.041.052.125.071.352A14.17 14.17 0 0 1 16.917 6v8.833l-.02 1.027c-.018.226-.05.31-.071.352-.08.157-.207.284-.364.364-.041.021-.125.052-.352.071-.236.019-.546.02-1.027.02H5.417c-.48 0-.791-.001-1.027-.02-.226-.018-.31-.05-.352-.071-.157-.08-.284-.207-.364-.364-.021-.041-.052-.125-.071-.352a14.17 14.17 0 0 1-.02-1.027V6l.02-1.027c.018-.226.05-.31.071-.352.08-.157.207-.284.364-.364.041-.021.125-.052.352-.071.208-.017.473-.02.86-.02V5c0 .46.373.833.833.833s.833-.373.833-.833v-.833h6.667z" fill-opacity=".88"/></svg>