<svg xmlns="http://www.w3.org/2000/svg" fill="#000" viewBox="0 0 21 20" xmlns:v="https://vecta.io/nano"><path d="M9.083 10c0-.46.373-.833.833-.833h1.667c.46 0 .833.373.833.833s-.373.833-.833.833H9.917c-.46 0-.833-.373-.833-.833zm.834 3.334c-.46 0-.833.373-.833.833s.373.833.833.833h1.667c.46 0 .833-.373.833-.833s-.373-.833-.833-.833H9.917zm-5-3.334c0-.46.373-.833.833-.833h1.667c.46 0 .833.373.833.833s-.373.833-.833.833H5.75c-.46 0-.833-.373-.833-.833zm.833 3.334c-.46 0-.833.373-.833.833S5.29 15 5.75 15h1.667c.46 0 .833-.373.833-.833s-.373-.833-.833-.833H5.75zM13.25 10c0-.46.373-.833.833-.833h1.667c.46 0 .833.373.833.833s-.373.833-.833.833h-1.667c-.46 0-.833-.373-.833-.833z" fill-opacity=".88"/><path fill-rule="evenodd" d="M5.884 1.667c-.439 0-.818 0-1.13.025-.329.027-.657.086-.972.247a2.5 2.5 0 0 0-1.093 1.093c-.161.315-.22.643-.247.972-.026.312-.025.691-.025 1.13v9.731l.025 1.13c.027.329.086.657.247.972a2.5 2.5 0 0 0 1.093 1.093c.315.161.643.22.972.247.312.026.691.026 1.13.026h9.731l1.13-.026c.329-.027.657-.086.972-.247a2.5 2.5 0 0 0 1.093-1.093c.161-.315.22-.643.247-.972.026-.312.026-.691.026-1.13V5.135l-.026-1.13c-.027-.329-.086-.657-.247-.972a2.5 2.5 0 0 0-1.093-1.093c-.315-.161-.643-.22-.972-.247-.312-.025-.691-.025-1.13-.025H5.884zm11.532 4.167v-.667l-.02-1.027c-.018-.226-.05-.31-.071-.352-.08-.157-.207-.284-.364-.364-.041-.021-.125-.052-.352-.071-.236-.019-.546-.02-1.027-.02H5.917l-1.027.02c-.226.018-.31.05-.352.071-.157.08-.284.207-.364.364-.021.041-.052.125-.071.352-.019.236-.02.546-.02 1.027v.667h13.333zM4.083 7.5h13.333v7.333l-.02 1.027c-.018.226-.05.31-.071.351-.08.157-.207.284-.364.364-.041.021-.125.052-.352.071a14.23 14.23 0 0 1-1.027.02H5.917a14.23 14.23 0 0 1-1.027-.02c-.226-.018-.31-.05-.352-.071-.157-.08-.284-.207-.364-.364-.021-.041-.052-.125-.071-.351-.019-.236-.02-.546-.02-1.027V7.5z" fill-opacity=".88"/></svg>