<svg xmlns="http://www.w3.org/2000/svg" xmlns:xlink="http://www.w3.org/1999/xlink" width="132" height="106" fill="none" xmlns:v="https://vecta.io/nano"><g filter="url(#A)"><rect x=".628" y=".361" width="89.144" height="76.004" rx="7.145" transform="matrix(.97173 -.236095 .28339 .959005 22.9153 43.0204)" fill="url(#B)" stroke="url(#C)"/><path d="M128.144 94.906C127.289 95.7728 126.177 96.4238 124.871 96.7411L52.1333 114.414C48.2894 115.348 44.2562 113.025 43.1352 109.231L25.6462 50.0475C25.0899 48.1648 25.3565 46.2802 26.2312 44.7479C27.0995 43.2268 28.4462 41.6582 29.7236 40.1703C30.1231 39.7049 30.5159 39.2475 30.8851 38.8018C31.7809 37.7205 33.0342 36.9049 34.5472 36.5373L107.284 18.8647C111.128 17.9308 115.162 20.2538 116.283 24.0474L133.772 83.2309C134.353 85.1986 134.036 87.1688 133.064 88.7366C131.856 90.6851 129.765 93.2638 128.144 94.906Z" fill="url(#D)" stroke="url(#E)"/><rect x=".628" y=".361" width="89.144" height="76.004" rx="7.145" transform="matrix(.97173 -.236095 .28339 .959005 26.9153 38.0204)" fill="url(#F)" stroke="url(#C)"/><rect width="29.913" height="25.367" rx="7.645" transform="matrix(.97173 -.236095 .28339 .959005 44.1296 49.7715)" fill="url(#G)"/><rect width="29.913" height="9.262" rx="4.631" transform="matrix(.97173 -.236095 .28339 .959005 78 41.0625)" fill="url(#H)"/><rect width="29.913" height="9.262" rx="4.631" transform="matrix(.97173 -.236095 .28339 .959005 84 55.0625)" fill="url(#H)"/><rect width="65.539" height="9.262" rx="4.631" transform="matrix(.97173 -.236095 .28339 .959005 56 82.4736)" fill="url(#I)"/></g><defs><filter id="A" x=".855" y="6.158" width="157.708" height="144.962" filterUnits="userSpaceOnUse" color-interpolation-filters="sRGB"><feFlood flood-opacity="0" result="A"/><feColorMatrix in="SourceAlpha" values="0 0 0 0 0 0 0 0 0 0 0 0 0 0 0 0 0 0 127 0"/><feOffset dy="12"/><feGaussianBlur stdDeviation="12"/><feColorMatrix values="0 0 0 0 0.411765 0 0 0 0 0.694118 0 0 0 0 1 0 0 0 1 0"/><feBlend in2="A"/><feBlend in="SourceGraphic"/></filter><linearGradient id="B" x1="45.072" y1="0" x2="45.072" y2="77.004" xlink:href="#J"><stop stop-color="#4096ff"/><stop offset="1" stop-color="#91caff" stop-opacity="0"/></linearGradient><linearGradient id="C" x1="45.072" y1="0" x2="45.072" y2="77.004" xlink:href="#J"><stop stop-color="#91caff"/><stop offset="1" stop-color="#91caff" stop-opacity=".02"/></linearGradient><linearGradient id="D" x1="89" y1="104" x2="26.044" y2="41.914" xlink:href="#J"><stop stop-color="#88beff"/><stop offset="1" stop-color="#b2d5ff"/></linearGradient><linearGradient id="E" x1="70.798" y1="27.216" x2="88.956" y2="101.953" xlink:href="#J"><stop stop-color="#91caff"/><stop offset="1" stop-color="#91caff" stop-opacity=".02"/></linearGradient><linearGradient id="F" x1="45.072" y1="0" x2="45.072" y2="77.004" xlink:href="#J"><stop stop-color="#4096ff"/><stop offset="1" stop-color="#bbd4f1"/></linearGradient><linearGradient id="G" x1="14.957" y1="0" x2="14.957" y2="25.367" xlink:href="#J"><stop stop-color="#fff" stop-opacity=".87"/><stop offset="1" stop-color="#fff" stop-opacity=".17"/></linearGradient><linearGradient id="H" x1="14.957" y1="0" x2="14.957" y2="9.262" xlink:href="#J"><stop stop-color="#fff" stop-opacity=".87"/><stop offset="1" stop-color="#fff" stop-opacity=".17"/></linearGradient><linearGradient id="I" x1="32.77" y1="0" x2="32.77" y2="9.262" xlink:href="#J"><stop stop-color="#fff" stop-opacity=".87"/><stop offset="1" stop-color="#fff" stop-opacity=".17"/></linearGradient><linearGradient id="J" gradientUnits="userSpaceOnUse"/></defs></svg>