<svg width="24" height="24" xmlns="http://www.w3.org/2000/svg"><path d="M12.172 2a3 3 0 0 1 1.976.743l.145.136 4.828 4.828a3 3 0 0 1 .872 1.923l.007.198V10h1v8h-1v1a3 3 0 0 1-2.824 2.995L17 22H7a3 3 0 0 1-2.995-2.824L4 19v-1H3v-8h1V5a3 3 0 0 1 2.824-2.995L7 2h5.172zM18 18H6v1a1 1 0 0 0 .883.993L7 20h10a1 1 0 0 0 .993-.883L18 19v-1zm-9.953-6H6v5h.887v-1.773h1.156l.168-.005c.987-.066 1.59-.711 1.59-1.607C9.8 12.681 9.137 12 8.047 12zm4.383 0h-1.84v5h1.84l.186-.004c1.457-.069 2.18-.958 2.18-2.505 0-1.608-.776-2.491-2.366-2.491zM19 12h-3.29v5h.888v-2.066h2.195v-.696h-2.195v-1.531H19V12zm-6.664.7c1.09 0 1.547.659 1.547 1.802 0 1.286-.559 1.798-1.547 1.798h-.86v-3.6zm-4.422-.011c.617 0 .984.337.984.926 0 .744-.484.93-1.3.93h-.711V12.69zM12.172 4H7a1 1 0 0 0-.993.883L6 5v5h12v-.172a1 1 0 0 0-.206-.608l-.087-.099-4.828-4.828a1 1 0 0 0-.576-.284L12.172 4z" fill="#f53f3f" fill-rule="nonzero"/></svg>