<svg width="44" height="44" xmlns="http://www.w3.org/2000/svg"><g fill="none" fill-rule="evenodd"><path d="M0 0h44v44H0z"/><path d="M14.709 14.164a3.057 3.057 0 0 0-2.173-.93c-.804 0-1.603.342-2.172.93a3.266 3.266 0 0 0-.9 2.244c0 .832.331 1.657.9 2.245a3.06 3.06 0 0 0 2.172.93 3.06 3.06 0 0 0 2.173-.93c.568-.588.9-1.413.9-2.245 0-.83-.332-1.657-.9-2.244z" fill="#181944" fill-rule="nonzero"/><path d="M35.429 14.877c-6.09 0-7.47 4.558-8.384 7.575-.693 2.289-1.098 3.308-2.08 3.471-2.003.33-3.515-.138-5.263-.68-1.36-.424-2.768-.862-4.448-.905-5.905-.16-8.68 8.73-8.793 9.108-.252.837.201 1.724 1.011 1.984.147.049.301.073.456.073.655 0 1.262-.436 1.464-1.116.582-1.924 2.735-6.877 5.712-6.877.023 0 .047 0 .07.002 1.268.031 2.422.39 3.642.77 1.844.57 3.932 1.218 6.634.774 2.96-.489 3.83-3.354 4.526-5.655 1.004-3.317 1.806-5.35 5.453-5.35.85 0 1.536-.711 1.536-1.587s-.687-1.587-1.536-1.587z" fill="#4966F5" fill-rule="nonzero"/><path d="M38.028 4H5.76C2.584 4 0 6.67 0 9.951v25.255c0 3.282 2.584 5.951 5.76 5.951h32.268c3.176 0 5.76-2.669 5.76-5.95V9.95C43.788 6.67 41.204 4 38.028 4zm2.469 31.206c0 1.407-1.107 2.55-2.469 2.55H5.76c-1.362 0-2.469-1.143-2.469-2.55V9.951c0-1.407 1.107-2.55 2.469-2.55h32.268c1.362 0 2.469 1.144 2.469 2.55v25.255z" fill="#181944" fill-rule="nonzero"/></g></svg>