<svg fill="none" xmlns="http://www.w3.org/2000/svg" viewBox="0 0 24 24" class="design-iconfont">
  <g clip-path="url(#al75yowyf__clip0_6428_239444)">
    <path d="M2 5.1145V16.2603C2 17.3713 2.90605 18.2702 4.01486 18.3395C4.98428 18.4001 6.12329 18.5187 7 18.7501C8.08145 19.0354 9.37293 19.6532 10.3724 20.1859C11.3852 20.7258 12.6148 20.7258 13.6276 20.1859C14.6271 19.6532 15.9185 19.0354 17 18.7501C17.8767 18.5187 19.0157 18.4001 19.9851 18.3395C21.094 18.2702 22 17.3713 22 16.2603V5.04989C22 3.97745 21.1538 3.09711 20.082 3.13445C18.9534 3.17376 17.5469 3.29073 16.5 3.60414C15.5924 3.87586 14.5353 4.42088 13.6738 4.91945C12.6355 5.52037 11.3428 5.55294 10.2823 4.99216C9.29611 4.47071 8.04921 3.88101 7 3.60414C6.11349 3.37021 4.95877 3.2516 3.9824 3.19159C2.8863 3.12422 2 4.01633 2 5.1145Z" fill="#1677FF" stroke="#1677FF" stroke-width="1.5"/>
    <path fill-rule="evenodd" clip-rule="evenodd" d="M12 4.8667C12.4142 4.8667 12.75 5.20249 12.75 5.6167V20.1167C12.75 20.5309 12.4142 20.8667 12 20.8667C11.5858 20.8667 11.25 20.5309 11.25 20.1167V5.6167C11.25 5.20249 11.5858 4.8667 12 4.8667Z" fill="#BAE0FF"/>
  </g>
  <defs>
    <clipPath id="al75yowyf__clip0_6428_239444">
      <path fill="#fff" d="M0 0H24V24H0z"/>
    </clipPath>
  </defs>
</svg>
