<svg fill="none" xmlns="http://www.w3.org/2000/svg" viewBox="0 0 24 24" class="design-iconfont">
  <g clip-path="url(#euu8kttgc__clip0_6428_239428)" fill="#595959">
    <path d="M20.082 3.25945L20.1081 4.00899L20.1081 4.00899L20.082 3.25945ZM16.5 3.72914L16.2849 3.01065L16.2849 3.01065L16.5 3.72914ZM13.6738 5.04445L13.2982 4.39532L13.2982 4.39533L13.6738 5.04445ZM3.9824 3.31659L3.93639 4.06518L3.9824 3.31659ZM7 3.72914L7.19136 3.00397L7.19136 3.00397L7 3.72914ZM10.2823 5.11716L9.93167 5.78017L9.93167 5.78017L10.2823 5.11716ZM13.6276 20.3109L13.9804 20.9728L13.9804 20.9728L13.6276 20.3109ZM17 18.8751L16.8086 18.1499L16.8086 18.1499L17 18.8751ZM19.9851 18.4645L20.032 19.2131L20.032 19.2131L19.9851 18.4645ZM10.3724 20.3109L10.0196 20.9728L10.0196 20.9728L10.3724 20.3109ZM7 18.8751L7.19136 18.1499L7.19136 18.1499L7 18.8751ZM4.01486 18.4645L3.96804 19.2131L3.96804 19.2131L4.01486 18.4645ZM2.75 16.3853V5.2395H1.25V16.3853H2.75ZM22.75 16.3853V5.17489H21.25V16.3853H22.75ZM20.0559 2.5099C18.9175 2.54955 17.4296 2.66797 16.2849 3.01065L16.7151 4.44764C17.6643 4.16349 18.9892 4.04796 20.1081 4.00899L20.0559 2.5099ZM16.2849 3.01065C15.2899 3.30854 14.1706 3.89038 13.2982 4.39532L14.0495 5.69358C14.9 5.20139 15.8949 4.69319 16.7151 4.44764L16.2849 3.01065ZM3.93639 4.06518C4.90238 4.12454 5.99643 4.23999 6.80864 4.45432L7.19136 3.00397C6.23055 2.75043 5.01517 2.62865 4.02841 2.568L3.93639 4.06518ZM6.80864 4.45432C7.77076 4.7082 8.95486 5.26366 9.93167 5.78017L10.6328 4.45414C9.63736 3.92776 8.32766 3.30381 7.19136 3.00397L6.80864 4.45432ZM13.9804 20.9728C14.9714 20.4445 16.1988 19.8622 17.1914 19.6002L16.8086 18.1499C15.6383 18.4587 14.2827 19.1118 13.2748 19.6491L13.9804 20.9728ZM17.1914 19.6002C17.9943 19.3883 19.0732 19.273 20.032 19.2131L19.9383 17.716C18.9582 17.7773 17.7591 17.8991 16.8086 18.1499L17.1914 19.6002ZM10.7252 19.6491C9.71727 19.1118 8.3617 18.4587 7.19136 18.1499L6.80864 19.6002C7.8012 19.8622 9.0286 20.4445 10.0196 20.9728L10.7252 19.6491ZM7.19136 18.1499C6.24092 17.8991 5.04176 17.7773 4.06168 17.716L3.96804 19.2131C4.9268 19.273 6.00566 19.3883 6.80864 19.6002L7.19136 18.1499ZM21.25 16.3853C21.25 17.071 20.6817 17.6695 19.9383 17.716L20.032 19.2131C21.5062 19.1208 22.75 17.9215 22.75 16.3853H21.25ZM22.75 5.17489C22.75 3.71159 21.5847 2.45665 20.0559 2.5099L20.1081 4.00899C20.7229 3.98758 21.25 4.4933 21.25 5.17489H22.75ZM1.25 16.3853C1.25 17.9215 2.49378 19.1208 3.96804 19.2131L4.06168 17.716C3.31831 17.6695 2.75 17.071 2.75 16.3853H1.25ZM13.2748 19.6491C12.4825 20.0714 11.5175 20.0714 10.7252 19.6491L10.0196 20.9728C11.2529 21.6302 12.7471 21.6302 13.9804 20.9728L13.2748 19.6491ZM13.2982 4.39533C12.4801 4.86879 11.4617 4.8924 10.6328 4.45414L9.93167 5.78017C11.2239 6.46347 12.791 6.42195 14.0495 5.69358L13.2982 4.39533ZM2.75 5.2395C2.75 4.54232 3.30243 4.02621 3.93639 4.06518L4.02841 2.568C2.47017 2.47223 1.25 3.74034 1.25 5.2395H2.75Z"/>
    <path d="M11.25 20.7422C11.25 21.1564 11.5858 21.4922 12 21.4922C12.4142 21.4922 12.75 21.1564 12.75 20.7422H11.25ZM11.25 5.74219V20.7422H12.75V5.74219H11.25Z"/>
  </g>
  <defs>
    <clipPath id="euu8kttgc__clip0_6428_239428">
      <path fill="#fff" d="M0 0H24V24H0z"/>
    </clipPath>
  </defs>
</svg>
