<svg width="109" height="108" viewBox="0 0 109 108" fill="none" xmlns="http://www.w3.org/2000/svg">
<g filter="url(#filter0_d_6974_113958)">
<path d="M51.6012 19.9048C52.6654 17.3651 56.3346 17.365 57.3988 19.9048L88.7618 94.761C89.6088 96.7825 88.0924 99 85.8631 99H23.1369C20.9076 99 19.3912 96.7825 20.2382 94.761L51.6012 19.9048Z" fill="url(#paint0_linear_6974_113958)"/>
</g>
<path d="M52.4835 37.4815C53.2237 35.5062 55.7763 35.5061 56.5165 37.4815L78.3343 95.703C78.9235 97.2753 77.8686 99 76.3178 99H32.6822C31.1314 99 30.0765 97.2753 30.6657 95.703L52.4835 37.4815Z" fill="url(#paint1_linear_6974_113958)"/>
<path d="M82.188 14.3974C81.3804 13.453 81.3713 12.0324 82.25 11.1537C83.1287 10.275 84.5612 10.2717 85.3789 11.2074C96.2192 23.6128 96.2192 42.1946 85.3789 54.6C84.5612 55.5357 83.1287 55.5324 82.25 54.6537C81.3713 53.775 81.3804 52.3544 82.188 51.41C91.2829 40.7749 91.2829 25.0325 82.188 14.3974Z" fill="#BAE0FF"/>
<path d="M26.812 51.41C27.6196 52.3544 27.6287 53.775 26.75 54.6537C25.8713 55.5324 24.4388 55.5357 23.6211 54.6C12.7808 42.1946 12.7808 23.6128 23.6211 11.2074C24.4388 10.2717 25.8713 10.275 26.75 11.1537C27.6287 12.0324 27.6196 13.453 26.812 14.3974C17.7171 25.0325 17.7171 40.7749 26.812 51.41Z" fill="#BAE0FF"/>
<path d="M76.9139 46.1406C76.1326 47.1069 76.1213 48.525 77 49.4037C77.8787 50.2824 79.313 50.2873 80.1122 49.3357C88.0753 39.8534 88.0753 25.954 80.1122 16.4717C79.313 15.5201 77.8787 15.525 77 16.4037C76.1213 17.2824 76.1326 18.7005 76.9139 19.6668C83.1414 27.3697 83.1414 38.4377 76.9139 46.1406Z" fill="#BAE0FF"/>
<path d="M32.0861 19.6668C32.8674 18.7005 32.8787 17.2824 32 16.4037C31.1213 15.525 29.687 15.5201 28.8878 16.4717C20.9247 25.954 20.9247 39.8534 28.8878 49.3357C29.687 50.2873 31.1213 50.2824 32 49.4037C32.8787 48.525 32.8674 47.1069 32.0861 46.1406C25.8586 38.4377 25.8586 27.3697 32.0861 19.6668Z" fill="#BAE0FF"/>
<path d="M71.6142 40.8489C70.8903 41.8589 70.8713 43.275 71.75 44.1537C72.6287 45.0324 74.0672 45.0392 74.8317 44.0596C79.936 37.5192 79.936 28.2882 74.8317 21.7478C74.0672 20.7682 72.6287 20.775 71.75 21.6537C70.8713 22.5324 70.8903 23.9484 71.6142 24.9585C75.0085 29.6945 75.0085 36.1129 71.6142 40.8489Z" fill="#BAE0FF"/>
<path d="M37.3858 24.9585C38.1097 23.9484 38.1287 22.5324 37.25 21.6537C36.3713 20.775 34.9328 20.7682 34.1683 21.7478C29.064 28.2882 29.064 37.5192 34.1683 44.0596C34.9328 45.0392 36.3713 45.0324 37.25 44.1537C38.1287 43.275 38.1097 41.8589 37.3858 40.8489C33.9915 36.1129 33.9915 29.6945 37.3858 24.9585Z" fill="#BAE0FF"/>
<path d="M54.5 87C58.6421 87 62 83.6421 62 79.5C62 75.3579 58.6421 72 54.5 72C50.3579 72 47 75.3579 47 79.5C47 83.6421 50.3579 87 54.5 87Z" fill="#BAE0FF"/>
<defs>
<filter id="filter0_d_6974_113958" x="19" y="17" width="73" height="85" filterUnits="userSpaceOnUse" color-interpolation-filters="sRGB">
<feFlood flood-opacity="0" result="BackgroundImageFix"/>
<feColorMatrix in="SourceAlpha" type="matrix" values="0 0 0 0 0 0 0 0 0 0 0 0 0 0 0 0 0 0 127 0" result="hardAlpha"/>
<feOffset dx="1" dy="1"/>
<feGaussianBlur stdDeviation="1"/>
<feComposite in2="hardAlpha" operator="out"/>
<feColorMatrix type="matrix" values="0 0 0 0 0.623285 0 0 0 0 0.676337 0 0 0 0 0.748681 0 0 0 0.37 0"/>
<feBlend mode="normal" in2="BackgroundImageFix" result="effect1_dropShadow_6974_113958"/>
<feBlend mode="normal" in="SourceGraphic" in2="effect1_dropShadow_6974_113958" result="shape"/>
</filter>
<linearGradient id="paint0_linear_6974_113958" x1="54.5" y1="17.8363" x2="54.5" y2="99.3197" gradientUnits="userSpaceOnUse">
<stop stop-color="#D7DCE2"/>
<stop offset="1" stop-color="#F2F4F5"/>
</linearGradient>
<linearGradient id="paint1_linear_6974_113958" x1="45.8333" y1="99" x2="45.8333" y2="36" gradientUnits="userSpaceOnUse">
<stop stop-color="white"/>
<stop offset="1" stop-color="#F6F7F8"/>
</linearGradient>
</defs>
</svg>
