<svg fill="none" xmlns="http://www.w3.org/2000/svg" viewBox="0 0 24 24" class="design-iconfont">
  <g clip-path="url(#3mp2r368j__clip0_5928_110313)" fill-rule="evenodd" clip-rule="evenodd">
    <path d="M7.54018 5C7.54018 2.78802 9.69346 1.25 11.9999 1.25C14.3063 1.25 16.4596 2.78802 16.4596 5C16.4596 6.19649 15.8068 7.21335 14.8654 7.8771L15.3404 11.6772C16.7763 12.0616 18.0407 12.6931 18.9881 13.5154C20.0496 14.4368 20.7499 15.6364 20.7499 17C20.7499 17.038 20.7499 17.0763 20.75 17.1148C20.7511 18.4014 20.7525 19.961 19.5031 21.0915C18.8743 21.6605 17.9888 22.069 16.7895 22.3388C15.5896 22.6086 14.0287 22.75 11.9999 22.75C9.97108 22.75 8.41021 22.6086 7.21031 22.3388C6.01101 22.069 5.12544 21.6605 4.49668 21.0915C3.24731 19.961 3.24869 18.4014 3.24982 17.1148C3.24986 17.0763 3.24989 17.038 3.24989 17C3.24989 15.6364 3.95021 14.4368 5.01168 13.5154C5.95904 12.6931 7.22348 12.0616 8.65941 11.6772L9.13442 7.8771C8.19296 7.21335 7.54018 6.19649 7.54018 5Z" fill="#1677FF"/>
    <path d="M7.25659 18.6566C7.31202 18.2461 7.68973 17.9582 8.10021 18.0137C9.09576 18.1481 10.3699 18.2236 11.9998 18.2236C13.6298 18.2236 14.9039 18.1481 15.8995 18.0137C16.31 17.9582 16.6877 18.2461 16.7431 18.6566C16.7985 19.067 16.5107 19.4447 16.1002 19.5002C15.0164 19.6465 13.6707 19.7236 11.9998 19.7236C10.329 19.7236 8.9833 19.6465 7.89947 19.5002C7.48899 19.4447 7.20116 19.067 7.25659 18.6566Z" fill="#BAE0FF"/>
  </g>
  <defs>
    <clipPath id="3mp2r368j__clip0_5928_110313">
      <path fill="#fff" d="M0 0H24V24H0z"/>
    </clipPath>
  </defs>
</svg>
