<svg fill="none" xmlns="http://www.w3.org/2000/svg" viewBox="0 0 24 24" class="design-iconfont">
  <g clip-path="url(#pe0hibv4f__clip0_5928_110223)">
    <path d="M14.0618 7.49436L13.7046 6.83488L13.254 7.07893L13.3176 7.58739L14.0618 7.49436ZM9.9382 7.49436L10.6824 7.58739L10.746 7.07893L10.2954 6.83488L9.9382 7.49436ZM9.3396 12.2832L9.501 13.0156L10.0181 12.9017L10.0838 12.3762L9.3396 12.2832ZM14.6604 12.2832L13.9162 12.3762L13.9819 12.9017L14.499 13.0156L14.6604 12.2832ZM14.9597 5C14.9597 5.70194 14.5169 6.39493 13.7046 6.83488L14.419 8.15384C15.5942 7.51732 16.4597 6.37775 16.4597 5H14.9597ZM12 2.75C13.7912 2.75 14.9597 3.89827 14.9597 5H16.4597C16.4597 2.78802 14.3064 1.25 12 1.25V2.75ZM9.04028 5C9.04028 3.89827 10.2088 2.75 12 2.75V1.25C9.69357 1.25 7.54028 2.78802 7.54028 5H9.04028ZM10.2954 6.83488C9.48313 6.39493 9.04028 5.70194 9.04028 5H7.54028C7.54028 6.37775 8.40584 7.51732 9.58101 8.15384L10.2954 6.83488ZM9.194 7.40134L8.59539 12.1902L10.0838 12.3762L10.6824 7.58739L9.194 7.40134ZM9.17821 11.5508C7.52844 11.9143 6.07167 12.5954 5.01179 13.5154C3.95032 14.4368 3.25 15.6364 3.25 17H4.75C4.75 16.1854 5.16432 15.3693 5.99507 14.6482C6.8274 13.9257 8.04043 13.3375 9.501 13.0156L9.17821 11.5508ZM3.25 17C3.25 18.3076 3.21003 19.9272 4.49678 21.0915C5.12555 21.6605 6.01112 22.069 7.21042 22.3388C8.41032 22.6086 9.97119 22.75 12 22.75V21.25C10.0288 21.25 8.58968 21.1115 7.53958 20.8753C6.48888 20.639 5.87445 20.3152 5.50322 19.9793C4.78997 19.3339 4.75 18.4535 4.75 17H3.25ZM12 22.75C14.0288 22.75 15.5897 22.6086 16.7896 22.3388C17.9889 22.069 18.8745 21.6605 19.5032 21.0915C20.79 19.9272 20.75 18.3076 20.75 17H19.25C19.25 18.4535 19.21 19.3339 18.4968 19.9793C18.1255 20.3152 17.5111 20.639 16.4604 20.8753C15.4103 21.1115 13.9712 21.25 12 21.25V22.75ZM20.75 17C20.75 15.6364 20.0497 14.4368 18.9882 13.5154C17.9283 12.5954 16.4716 11.9143 14.8218 11.5508L14.499 13.0156C15.9596 13.3375 17.1726 13.9257 18.0049 14.6482C18.8357 15.3693 19.25 16.1854 19.25 17H20.75ZM15.4046 12.1902L14.806 7.40134L13.3176 7.58739L13.9162 12.3762L15.4046 12.1902Z" fill="#595959"/>
    <path d="M8 18.7573C9.03968 18.8977 10.3496 18.974 12 18.974C13.6504 18.974 14.9603 18.8977 16 18.7573" stroke="#595959" stroke-width="1.5" stroke-linecap="round"/>
  </g>
  <defs>
    <clipPath id="pe0hibv4f__clip0_5928_110223">
      <path fill="#fff" d="M0 0H24V24H0z"/>
    </clipPath>
  </defs>
</svg>
