<svg width="16" height="19" viewBox="0 0 16 19" fill="none" xmlns="http://www.w3.org/2000/svg">
<path fill-rule="evenodd" clip-rule="evenodd" d="M3 0.833984C1.61929 0.833984 0.5 1.95327 0.5 3.33398V13.334C0.5 14.7147 1.61929 15.834 3 15.834C3 17.2147 4.11929 18.334 5.5 18.334H13C14.3807 18.334 15.5 17.2147 15.5 15.834V5.83398C15.5 4.45327 14.3807 3.33398 13 3.33398C13 1.95327 11.8807 0.833984 10.5 0.833984H3ZM11.3333 3.33398C11.3333 2.87375 10.9602 2.50065 10.5 2.50065H3C2.53976 2.50065 2.16667 2.87375 2.16667 3.33398V13.334C2.16667 13.7942 2.53976 14.1673 3 14.1673H10.5C10.9602 14.1673 11.3333 13.7942 11.3333 13.334V3.33398ZM4.66667 15.834C4.66667 16.2942 5.03976 16.6673 5.5 16.6673H13C13.4602 16.6673 13.8333 16.2942 13.8333 15.834V5.83398C13.8333 5.37375 13.4602 5.00065 13 5.00065V13.334C13 14.7147 11.8807 15.834 10.5 15.834H4.66667Z" fill="#1677FF"/>
</svg>
