<svg width="10" height="10" viewBox="0 0 10 10" fill="none" xmlns="http://www.w3.org/2000/svg">
<path fill-rule="evenodd" clip-rule="evenodd" d="M5 1C4.44772 1 4 1.44772 4 2C4 2.55228 4.44772 3 5 3C5.55228 3 6 2.55228 6 2C6 1.44772 5.55228 1 5 1ZM3 2C3 0.89543 3.89543 0 5 0C6.10457 0 7 0.89543 7 2C7 2.93192 6.36261 3.71497 5.5 3.93699V4.5H7C7.82843 4.5 8.5 5.17157 8.5 6V6.06301C9.36261 6.28503 10 7.06808 10 8C10 9.10457 9.10457 10 8 10C6.89543 10 6 9.10457 6 8C6 7.06808 6.63739 6.28503 7.5 6.06301V6C7.5 5.72386 7.27614 5.5 7 5.5H3C2.72386 5.5 2.5 5.72386 2.5 6V6.06301C3.36261 6.28503 4 7.06808 4 8C4 9.10457 3.10457 10 2 10C0.89543 10 0 9.10457 0 8C0 7.06808 0.637386 6.28503 1.5 6.06301V6C1.5 5.17157 2.17157 4.5 3 4.5H4.5V3.93699C3.63739 3.71497 3 2.93192 3 2ZM2 7C1.44772 7 1 7.44772 1 8C1 8.55229 1.44772 9 2 9C2.55228 9 3 8.55229 3 8C3 7.44772 2.55228 7 2 7ZM8 7C7.44772 7 7 7.44772 7 8C7 8.55229 7.44772 9 8 9C8.55229 9 9 8.55229 9 8C9 7.44772 8.55229 7 8 7Z" fill="#8C8C8C"/>
</svg>
