<svg xmlns="http://www.w3.org/2000/svg" width="21" height="20" viewBox="0 0 21 20" fill="none">
  <g clip-path="url(#clip0_1841_40543)">
    <path fill-rule="evenodd" clip-rule="evenodd" d="M1.71363 3.46379C1.39402 3.48223 1.11394 3.67582 0.993902 3.96125C0.873863 4.24669 0.935272 4.57307 1.15171 4.79996L6.1996 10.0918L8.44161 16.9415C8.53774 17.2352 8.80098 17.4495 9.11807 17.4922C9.43516 17.535 9.74954 17.3986 9.92596 17.1416L19.1293 3.73788C19.3025 3.4856 19.3127 3.16087 19.1555 2.89906C18.9983 2.63726 18.7008 2.48333 18.387 2.50144L1.71363 3.46379ZM7.09753 8.67174L3.55375 4.95668L16.8294 4.19044L9.50149 14.8628L7.92753 10.0541L11.6637 7.9799C12.0607 7.75951 12.1967 7.27139 11.9675 6.88965C11.7383 6.50792 11.2307 6.37713 10.8337 6.59752L7.09753 8.67174Z" fill="black" fill-opacity="0.88"/>
  </g>
  <defs>
    <clipPath id="clip0_1841_40543">
      <rect width="20" height="20" fill="white" transform="translate(0.100098)"/>
    </clipPath>
  </defs>
</svg>
