<?xml version="1.0" standalone="no"?><!DOCTYPE svg PUBLIC "-//W3C//DTD SVG 1.1//EN" "http://www.w3.org/Graphics/SVG/1.1/DTD/svg11.dtd"><svg t="1705652559954" class="icon" viewBox="0 0 1024 1024" version="1.1" xmlns="http://www.w3.org/2000/svg" p-id="5892" xmlns:xlink="http://www.w3.org/1999/xlink" width="200" height="200"><path d="M631.06 687.1v182.01c0 21.91-17.76 39.67-39.67 39.67s-39.67-17.76-39.67-39.67v-277.7c0-21.91 17.76-39.67 39.67-39.67h277.7c21.91 0 39.67 17.76 39.67 39.67s-17.76 39.67-39.67 39.67H687.08l261.31 261.24c15.49 15.48 15.48 40.6-0.02 56.07-15.48 15.46-40.56 15.45-56.03-0.02L631.06 687.1zM432.71 472.32h-277.7c-21.91 0-39.67-17.76-39.67-39.67s17.76-39.67 39.67-39.67h181.93L75.61 131.72c-15.48-15.48-15.48-40.57 0-56.05l0.04-0.04c15.48-15.48 40.58-15.48 56.05 0l261.26 261.33V154.95c0-21.91 17.76-39.67 39.67-39.67s39.67 17.76 39.67 39.67v277.7c0 21.87-17.71 39.62-39.59 39.67z" p-id="5893" fill="#176bfb"></path></svg>