<svg xmlns="http://www.w3.org/2000/svg" width="21" height="20" viewBox="0 0 21 20" fill="none">
  <g clip-path="url(#clip0_1841_40463)">
    <path d="M12.5194 4.44384C12.2116 4.10175 11.6846 4.07402 11.3426 4.3819C11.0005 4.68978 10.9727 5.21669 11.2806 5.55878L11.5289 5.83464H8.40002C7.93979 5.83464 7.56669 6.20774 7.56669 6.66798C7.56669 7.12821 7.93979 7.50131 8.40002 7.50131H13.4C13.7291 7.50131 14.0274 7.30763 14.1613 7.00701C14.2952 6.70638 14.2396 6.35512 14.0194 6.11051L12.5194 4.44384Z" fill="black"/>
    <path fill-rule="evenodd" clip-rule="evenodd" d="M5.90002 1.66797C4.97955 1.66797 4.23336 2.41416 4.23336 3.33464V12.5013H1.73336C1.27312 12.5013 0.900024 12.8744 0.900024 13.3346V17.5013C0.900024 17.9615 1.27312 18.3346 1.73336 18.3346H10.1757C10.4296 18.3346 10.69 18.312 10.9498 18.2599C14.2041 17.6079 16.2262 16.4604 18.7436 15.0318L18.7444 15.0314C19.0165 14.8769 19.2945 14.7192 19.5804 14.5585C20.4607 14.0635 20.8114 12.9606 20.3546 12.047C19.9615 11.261 19.0799 10.848 18.2244 11.0493L17.5667 11.204V3.33464C17.5667 2.41416 16.8205 1.66797 15.9 1.66797H5.90002ZM4.23336 16.668V14.168H2.56669V16.668H4.23336ZM5.90002 16.668H10.1757C10.3311 16.668 10.481 16.6541 10.6224 16.6257C13.6045 16.0283 15.4072 15.0066 17.9329 13.5751C18.2009 13.4233 18.4771 13.2667 18.7636 13.1056C18.879 13.0408 18.9179 12.9005 18.8639 12.7924C18.8163 12.6973 18.7096 12.6473 18.6061 12.6716L12.3409 14.1458C12.2783 14.1605 12.2143 14.168 12.15 14.168H9.65002C9.21862 14.168 8.85853 13.8387 8.82002 13.409C8.78151 12.9793 9.0773 12.5913 9.50183 12.5146C11.2347 12.2014 12.367 11.8684 12.944 11.469C13.2056 11.2879 13.2644 11.153 13.2803 11.0754C13.2898 11.0292 13.2945 10.9521 13.2666 10.8346H9.09981C8.36999 10.8346 7.67662 11.1535 7.20167 11.7077L5.90002 13.2262V16.668ZM5.90002 3.33464V10.6653L5.93624 10.623C6.72783 9.69948 7.88345 9.16797 9.09981 9.16797H13.8167C14.1195 9.16797 14.3984 9.33221 14.5454 9.59697C14.8661 10.1749 15.0403 10.792 14.9128 11.4114C14.8795 11.5731 14.828 11.7237 14.7617 11.864L15.9 11.5962V3.33464H5.90002Z" fill="black"/>
  </g>
  <defs>
    <clipPath id="clip0_1841_40463">
      <rect width="20" height="20" fill="white" transform="translate(0.900024)"/>
    </clipPath>
  </defs>
</svg>
