<svg xmlns="http://www.w3.org/2000/svg" width="21" height="20" viewBox="0 0 21 20" fill="none">
  <path d="M10.2029 2.50561L10.3 2.5C10.7274 2.5 11.0796 2.8217 11.1278 3.23615L11.1334 3.33333V9.16667H16.9667C17.3941 9.16667 17.7463 9.48837 17.7944 9.90282L17.8 10C17.8 10.4274 17.4783 10.7796 17.0639 10.8277L16.9667 10.8333H11.1334V16.6667C11.1334 17.094 10.8117 17.4463 10.3972 17.4944L10.3 17.5C9.87269 17.5 9.52046 17.1783 9.47232 16.7639L9.46672 16.6667V10.8333H3.63338C3.20602 10.8333 2.85379 10.5116 2.80566 10.0972L2.80005 10C2.80005 9.57264 3.12175 9.22041 3.5362 9.17227L3.63338 9.16667H9.46672V3.33333C9.46672 2.90597 9.78842 2.55374 10.2029 2.50561L10.3 2.5L10.2029 2.50561Z" fill="black" fill-opacity="0.88"/>
</svg>
