<svg width="20" height="18" viewBox="0 0 20 18" fill="none" xmlns="http://www.w3.org/2000/svg">
<path d="M0.921371 1.12881C1.1272 0.717158 1.62776 0.550304 2.03941 0.756129L3.70607 1.58946C4.11772 1.79529 4.28457 2.29585 4.07875 2.7075C3.87293 3.11914 3.37236 3.286 2.96072 3.08017L1.29405 2.24684C0.8824 2.04102 0.715547 1.54046 0.921371 1.12881Z" fill="black" fill-opacity="0.88"/>
<path fill-rule="evenodd" clip-rule="evenodd" d="M10.0001 0.668147C6.77842 0.668147 4.16675 3.27982 4.16675 6.50148V9.47986L2.58103 12.8099C2.45809 13.0681 2.47611 13.3713 2.62879 13.6131C2.78146 13.8549 3.04745 14.0015 3.33342 14.0015H6.66675C6.66675 15.8424 8.15913 17.3348 10.0001 17.3348C11.841 17.3348 13.3334 15.8424 13.3334 14.0015H16.6667C16.9527 14.0015 17.2187 13.8549 17.3714 13.6131C17.5241 13.3713 17.5421 13.0681 17.4191 12.8099L15.8334 9.47986V6.50148C15.8334 3.27982 13.2217 0.668147 10.0001 0.668147ZM8.33342 14.0015C8.33342 14.922 9.07961 15.6681 10.0001 15.6681C10.9206 15.6681 11.6667 14.922 11.6667 14.0015H8.33342ZM5.83342 6.50148C5.83342 4.20029 7.6989 2.33481 10.0001 2.33481C12.3013 2.33481 14.1667 4.20029 14.1667 6.50148V9.66815C14.1667 9.79211 14.1944 9.91451 14.2477 10.0264L15.3469 12.3348H4.65323L5.75247 10.0264C5.80576 9.91451 5.83342 9.79211 5.83342 9.66815V6.50148Z" fill="black" fill-opacity="0.88"/>
<path d="M17.9608 0.756129C18.3724 0.550304 18.873 0.717158 19.0788 1.12881C19.2846 1.54046 19.1178 2.04102 18.7061 2.24684L17.0394 3.08017C16.6278 3.286 16.1272 3.11914 15.9214 2.7075C15.7156 2.29585 15.8824 1.79529 16.2941 1.58946L17.9608 0.756129Z" fill="black" fill-opacity="0.88"/>
<path d="M16.6667 6.50148C16.6667 6.04124 17.0398 5.66815 17.5001 5.66815H18.7501C19.2103 5.66815 19.5834 6.04124 19.5834 6.50148C19.5834 6.96172 19.2103 7.33481 18.7501 7.33481H17.5001C17.0398 7.33481 16.6667 6.96172 16.6667 6.50148Z" fill="black" fill-opacity="0.88"/>
<path d="M1.25008 5.66815C0.789844 5.66815 0.416748 6.04124 0.416748 6.50148C0.416748 6.96172 0.789844 7.33481 1.25008 7.33481H2.50008C2.96032 7.33481 3.33341 6.96172 3.33341 6.50148C3.33341 6.04124 2.96032 5.66815 2.50008 5.66815H1.25008Z" fill="black" fill-opacity="0.88"/>
</svg>
