<svg fill="none" xmlns="http://www.w3.org/2000/svg" viewBox="0 0 25 24" class="design-iconfont">
  <path d="M7.375 3C5.442 3 3.875 4.567 3.875 6.5V8.36364C3.875 8.91592 4.32272 9.36364 4.875 9.36364C5.42728 9.36364 5.875 8.91592 5.875 8.36364V6.5C5.875 5.67157 6.54657 5 7.375 5H9.23864C9.79092 5 10.2386 4.55228 10.2386 4C10.2386 3.44772 9.79092 3 9.23864 3H7.375ZM16.5114 3C15.9591 3 15.5114 3.44772 15.5114 4C15.5114 4.55228 15.9591 5 16.5114 5H18.375C19.2034 5 19.875 5.67157 19.875 6.5V8.36364C19.875 8.91592 20.3227 9.36364 20.875 9.36364C21.4273 9.36364 21.875 8.91592 21.875 8.36364V6.5C21.875 4.567 20.308 3 18.375 3H16.5114ZM5.875 15.6364C5.875 15.0841 5.42728 14.6364 4.875 14.6364C4.32272 14.6364 3.875 15.0841 3.875 15.6364V17.5C3.875 19.433 5.442 21 7.375 21H9.23864C9.79092 21 10.2386 20.5523 10.2386 20C10.2386 19.4477 9.79092 19 9.23864 19H7.375C6.54657 19 5.875 18.3284 5.875 17.5V15.6364ZM21.875 15.6364C21.875 15.0841 21.4273 14.6364 20.875 14.6364C20.3227 14.6364 19.875 15.0841 19.875 15.6364V17.5C19.875 18.3284 19.2034 19 18.375 19H16.5114C15.9591 19 15.5114 19.4477 15.5114 20C15.5114 20.5523 15.9591 21 16.5114 21H18.375C20.308 21 21.875 19.433 21.875 17.5V15.6364ZM8.875 11C8.32272 11 7.875 11.4477 7.875 12C7.875 12.5523 8.32272 13 8.875 13H16.875C17.4273 13 17.875 12.5523 17.875 12C17.875 11.4477 17.4273 11 16.875 11H8.875Z" fill="#1677FF"/>
</svg>
