<svg width="72" height="72" viewBox="0 0 72 72" fill="none" xmlns="http://www.w3.org/2000/svg">
<rect opacity="0.5" x="23.0506" y="5.53551" width="40.7881" height="52.1576" rx="3.15" transform="rotate(15 23.0506 5.53551)" fill="url(#paint0_linear_8164_405418)" stroke="url(#paint1_linear_8164_405418)" stroke-width="0.9"/>
<g filter="url(#filter0_d_8164_405418)">
<rect x="14.3999" y="9.00781" width="43.2" height="54" rx="3.6" fill="url(#paint2_linear_8164_405418)"/>
<rect x="14.8499" y="9.45781" width="42.3" height="53.1" rx="3.15" stroke="url(#paint3_linear_8164_405418)" stroke-width="0.9"/>
</g>
<path fill-rule="evenodd" clip-rule="evenodd" d="M21.6001 36.0031C21.6001 35.009 22.406 34.2031 23.4001 34.2031H48.6001C49.5942 34.2031 50.4001 35.009 50.4001 36.0031C50.4001 36.9972 49.5942 37.8031 48.6001 37.8031H23.4001C22.406 37.8031 21.6001 36.9972 21.6001 36.0031ZM21.6001 43.2063C21.6001 42.2121 22.406 41.4062 23.4001 41.4062H48.6001C49.5942 41.4062 50.4001 42.2121 50.4001 43.2063C50.4001 44.2004 49.5942 45.0063 48.6001 45.0063H23.4001C22.406 45.0063 21.6001 44.2004 21.6001 43.2063ZM23.4001 48.6016C22.406 48.6016 21.6001 49.4075 21.6001 50.4016C21.6001 51.3957 22.406 52.2016 23.4001 52.2016H48.6001C49.5942 52.2016 50.4001 51.3957 50.4001 50.4016C50.4001 49.4075 49.5942 48.6016 48.6001 48.6016H23.4001Z" fill="#1677FF"/>
<rect x="21.6001" y="19.8047" width="10.8" height="10.8" rx="3.6" fill="#1677FF"/>
<defs>
<filter id="filter0_d_8164_405418" x="13.4999" y="9.00781" width="45" height="55.8" filterUnits="userSpaceOnUse" color-interpolation-filters="sRGB">
<feFlood flood-opacity="0" result="BackgroundImageFix"/>
<feColorMatrix in="SourceAlpha" type="matrix" values="0 0 0 0 0 0 0 0 0 0 0 0 0 0 0 0 0 0 127 0" result="hardAlpha"/>
<feOffset dy="0.9"/>
<feGaussianBlur stdDeviation="0.45"/>
<feComposite in2="hardAlpha" operator="out"/>
<feColorMatrix type="matrix" values="0 0 0 0 0.0946168 0 0 0 0 0.391695 0 0 0 0 0.808218 0 0 0 0.41 0"/>
<feBlend mode="normal" in2="BackgroundImageFix" result="effect1_dropShadow_8164_405418"/>
<feBlend mode="normal" in="SourceGraphic" in2="effect1_dropShadow_8164_405418" result="shape"/>
</filter>
<linearGradient id="paint0_linear_8164_405418" x1="43.5765" y1="4.98437" x2="43.5765" y2="58.042" gradientUnits="userSpaceOnUse">
<stop stop-color="#DCEEFF"/>
<stop offset="1" stop-color="#91CAFF"/>
</linearGradient>
<linearGradient id="paint1_linear_8164_405418" x1="43.5765" y1="4.98437" x2="43.5765" y2="58.042" gradientUnits="userSpaceOnUse">
<stop stop-color="#F1F8FF"/>
<stop offset="1" stop-color="#7DBAF2"/>
</linearGradient>
<linearGradient id="paint2_linear_8164_405418" x1="35.9999" y1="9.00781" x2="35.9999" y2="63.0078" gradientUnits="userSpaceOnUse">
<stop stop-color="#DCEEFF"/>
<stop offset="1" stop-color="#91CAFF"/>
</linearGradient>
<linearGradient id="paint3_linear_8164_405418" x1="35.9999" y1="9.00781" x2="35.9999" y2="63.0078" gradientUnits="userSpaceOnUse">
<stop stop-color="#F1F8FF"/>
<stop offset="1" stop-color="#7DBAF2"/>
</linearGradient>
</defs>
</svg>
