<svg width="12" height="11" viewBox="0 0 12 11" fill="none" xmlns="http://www.w3.org/2000/svg">
<path fill-rule="evenodd" clip-rule="evenodd" d="M4.5 0.5C3.11929 0.5 2 1.61929 2 3C2 4.38071 3.11929 5.5 4.5 5.5C5.88071 5.5 7 4.38071 7 3C7 1.61929 5.88071 0.5 4.5 0.5ZM3 3C3 2.17157 3.67157 1.5 4.5 1.5C5.32843 1.5 6 2.17157 6 3C6 3.82843 5.32843 4.5 4.5 4.5C3.67157 4.5 3 3.82843 3 3Z" fill="#8C8C8C"/>
<path d="M8 1C7.72386 1 7.5 1.22386 7.5 1.5C7.5 1.77614 7.72386 2 8 2C8.55229 2 9 2.44772 9 3C9 3.55228 8.55229 4 8 4C7.72386 4 7.5 4.22386 7.5 4.5C7.5 4.77614 7.72386 5 8 5C9.10457 5 10 4.10457 10 3C10 1.89543 9.10457 1 8 1Z" fill="#8C8C8C"/>
<path fill-rule="evenodd" clip-rule="evenodd" d="M1.77706 6.65166C2.49884 6.23921 3.46261 6 4.5 6C5.53739 6 6.50116 6.23921 7.22294 6.65166C7.93059 7.05603 8.5 7.69085 8.5 8.5C8.5 9.30915 7.93059 9.94397 7.22294 10.3483C6.50116 10.7608 5.53739 11 4.5 11C3.46261 11 2.49884 10.7608 1.77706 10.3483C1.06941 9.94397 0.5 9.30915 0.5 8.5C0.5 7.69085 1.06941 7.05603 1.77706 6.65166ZM2.2732 7.51991C1.71409 7.8394 1.5 8.20458 1.5 8.5C1.5 8.79542 1.71409 9.1606 2.2732 9.48009C2.81816 9.7915 3.60439 10 4.5 10C5.39561 10 6.18184 9.7915 6.7268 9.48009C7.28591 9.1606 7.5 8.79542 7.5 8.5C7.5 8.20458 7.28591 7.8394 6.7268 7.51991C6.18184 7.2085 5.39561 7 4.5 7C3.60439 7 2.81816 7.2085 2.2732 7.51991Z" fill="#8C8C8C"/>
<path d="M9.60709 6.5116C9.33735 6.45245 9.07074 6.62316 9.01159 6.8929C8.95244 7.16263 9.12315 7.42924 9.39288 7.48839C9.77494 7.57218 10.0721 7.71453 10.2623 7.87014C10.4528 8.02606 10.5 8.16089 10.5 8.25C10.5 8.33136 10.4618 8.44746 10.3134 8.58537C10.1633 8.72476 9.92443 8.86051 9.60583 8.95645C9.34141 9.03606 9.1916 9.31496 9.27122 9.57937C9.35083 9.84379 9.62973 9.9936 9.89414 9.91398C10.3187 9.78616 10.7048 9.58663 10.994 9.31803C11.2847 9.04793 11.5 8.68331 11.5 8.25C11.5 7.76858 11.2357 7.37458 10.8955 7.09622C10.555 6.81755 10.1022 6.62017 9.60709 6.5116Z" fill="#8C8C8C"/>
</svg>
