<svg width="67" height="58" viewBox="0 0 67 58" fill="none" xmlns="http://www.w3.org/2000/svg">
<rect x="5" y="1" width="56" height="56" rx="28" stroke="#73D13D" stroke-width="2"/>
<circle cx="27.6935" cy="9.19845" r="1.5" transform="rotate(75 27.6935 9.19845)" fill="#52C41A"/>
<circle cx="38.3046" cy="48.802" r="1.5" transform="rotate(75 38.3046 48.802)" fill="#52C41A"/>
<path d="M31.6782 49.9576C27.2522 49.6786 23.0281 48.0056 19.6114 45.1784C16.1947 42.3512 13.7607 38.5149 12.6583 34.2193C11.5559 29.9237 11.8417 25.3894 13.4748 21.2663C15.1078 17.1431 18.0042 13.6428 21.7489 11.267" stroke="#52C41A" stroke-linecap="round" stroke-dasharray="2 2"/>
<path d="M44.317 46.6894C48.0528 44.2996 50.9362 40.7885 52.5539 36.6593C54.1715 32.5301 54.4405 27.9948 53.3221 23.7034C52.2037 19.4119 49.7555 15.5847 46.3283 12.7702C42.9011 9.95574 38.6708 8.29848 34.2438 8.03598" stroke="#52C41A" stroke-linecap="round" stroke-dasharray="2 2"/>
<rect x="0.00219727" y="27.623" width="64" height="20" rx="4" transform="rotate(-15 0.00219727 27.623)" fill="#F6FFED"/>
<path d="M25.8351 30.8094L18.6486 32.735L19.5028 35.9226C19.6208 36.363 19.9 36.5243 20.3405 36.4062L26.1244 34.8564C26.3331 34.8005 26.5115 34.6782 26.6365 34.4956C26.7754 34.272 26.7049 33.5455 26.4484 32.3098L27.6195 32.3687C27.8718 33.8665 27.9076 34.7886 27.7357 35.1204C27.5258 35.45 27.1922 35.6884 26.7231 35.839L20.3248 37.5534C19.3396 37.8174 18.7161 37.4378 18.4428 36.4178L16.8278 30.3904L17.9405 30.0922L18.366 31.6802L24.4282 30.0559L23.689 27.2972L16.0388 29.347L15.7562 28.2923L24.5307 25.9411L25.8351 30.8094ZM37.2801 23.171L38.0131 25.9065L36.8888 26.2077L36.4415 24.5386L28.6987 26.6133L29.1459 28.2824L28.0216 28.5837L27.2886 25.8482L31.6237 24.6866C31.4146 24.3699 31.1916 24.0942 30.978 23.8533L32.1624 23.3123C32.3915 23.6112 32.6215 23.9596 32.8639 24.3543L37.2801 23.171ZM29.5764 27.5707L36.137 25.8128L36.4196 26.8676L29.859 28.6255L29.5764 27.5707ZM28.3806 30.2019L38.546 27.4781L38.8287 28.5329L35.6643 29.3808L36.3134 31.8033C36.4066 32.151 36.5954 32.2992 36.8967 32.2185L38.3572 31.8271C38.4963 31.7899 38.5673 31.6839 38.5965 31.5146C38.6225 31.3336 38.5385 30.8344 38.3558 30.0137L39.486 30.0587C39.7069 31.2543 39.7542 31.987 39.6162 32.26C39.4866 32.5184 39.2279 32.7119 38.8338 32.8175L36.8285 33.3548C36.0287 33.5691 35.5135 33.2227 35.2744 32.3302L34.5631 29.6758L32.8245 30.1417L32.8338 30.1765C33.0918 31.3248 33.0126 32.3275 32.6163 33.1666C32.216 33.9447 31.4223 34.6916 30.2289 35.3841L29.339 34.5666C30.4953 33.9213 31.2328 33.2889 31.566 32.6778C31.8551 32.0413 31.9184 31.3038 31.7442 30.4684L31.7349 30.4336L28.6633 31.2567L28.3806 30.2019ZM46.5136 19.38C47.1555 19.6428 47.7162 19.9274 48.199 20.2453L47.8086 20.9213L49.1996 20.5486L49.4822 21.6034L46.0281 22.5289C46.4757 23.875 46.9005 24.9041 47.2994 25.6047C47.3986 25.7893 47.5094 25.9708 47.617 26.1408C47.874 25.1526 48.0188 24.0702 48.0483 22.8821L49.1716 23.0408C49.1055 24.6487 48.8676 26.079 48.4285 27.3147C48.6305 27.5588 48.8202 27.7564 49.0005 27.9193C49.4849 28.3361 49.8345 28.5282 50.0199 28.4785C50.1706 28.4381 50.1691 27.8298 50.0154 26.6535L51.1551 26.9196C51.294 28.5968 51.0825 29.5231 50.5261 29.6722C50.0161 29.8088 49.3897 29.604 48.6501 29.0692C48.4026 28.887 48.172 28.6755 47.9467 28.4377C47.4031 29.5151 46.676 30.4181 45.7771 31.1434L44.9027 30.3839C45.8819 29.5873 46.6282 28.6171 47.1386 27.4616C46.8645 27.0878 46.6043 26.673 46.3463 26.2204C45.8397 25.3498 45.3638 24.2226 44.9037 22.8302L41.1714 23.8303L41.6248 25.5226L44.4647 24.7617C45.0036 26.8659 45.2534 28.2152 45.217 28.8213C45.162 29.3578 44.8331 29.7068 44.2335 29.8799C43.9553 29.9544 43.6245 30.0182 43.2559 30.0797L42.6526 29.173C43.1225 29.0719 43.5112 28.9926 43.8358 28.9056C44.0413 28.8381 44.1346 28.6765 44.1359 28.4028C44.1246 28.0828 43.9544 27.3085 43.6546 26.0968L41.9044 26.5658L41.923 26.6353C42.4512 28.7921 42.4356 30.6349 41.9026 32.1692L40.8692 31.651C41.3052 30.4036 41.2933 28.8291 40.8218 26.9304L39.7876 23.0706L44.5631 21.791C44.394 21.2524 44.2418 20.6844 44.0834 20.0933L45.1961 19.7951C45.3576 20.3978 45.533 20.9596 45.6991 21.4866L47.4841 21.0083C47.078 20.7444 46.5845 20.4791 45.9983 20.2386L46.5136 19.38Z" fill="#52C41A"/>
</svg>
