<svg width="68" height="58" fill="none" xmlns="http://www.w3.org/2000/svg"><rect x="6" y="1" width="56" height="56" rx="28" stroke="#000" stroke-opacity=".65" stroke-width="2"/><circle cx="28.693" cy="9.198" r="1.5" transform="rotate(75 28.693 9.198)" fill="#000" fill-opacity=".88"/><circle cx="39.305" cy="48.8" r="1.5" transform="rotate(75 39.305 48.8)" fill="#000" fill-opacity=".88"/><path d="M32.678 49.958a21 21 0 0 1-9.93-38.691M45.317 46.69A21 21 0 0 0 35.244 8.035" stroke="#000" stroke-opacity=".88" stroke-linecap="round" stroke-dasharray="2 2"/><rect x=".502" y="28.012" width="64" height="20" rx="4" transform="rotate(-15 .502 28.012)" fill="#DEDFE0"/><path d="m26.335 31.198-7.186 1.926.854 3.187c.118.44.397.602.837.484l5.784-1.55a.89.89 0 0 0 .513-.36c.138-.224.068-.95-.189-2.186l1.171.058c.253 1.498.289 2.42.117 2.752-.21.33-.544.568-1.013.719l-6.398 1.714c-.985.264-1.609-.115-1.882-1.136l-1.615-6.027 1.113-.298.425 1.588 6.062-1.624-.739-2.76-7.65 2.05-.283-1.054 8.775-2.351 1.304 4.868zm7.335 1.041.28 1.043c-1.07.734-2.31 1.44-3.746 2.11l-.425-1.03c1.52-.68 2.821-1.389 3.891-2.123zm-4.535-7.655 1.137.118c-.18 1.551-.433 2.836-.776 3.873.428-.165.864-.344 1.31-.538.102-.45.202-.911.32-1.402l1.055.09c-.501 2.072-.967 3.625-1.416 4.64.733-.37 1.463-.802 2.176-1.291l.264.985c-1.18.788-2.32 1.404-3.438 1.866l-.554-.908c.175-.134.31-.282.415-.446.265-.494.563-1.282.877-2.385-.558.237-1.15.483-1.752.743l-.537-.937c.144-.113.257-.293.344-.527.3-1.198.5-2.494.575-3.88zm2.52.828 2.677-.717-.35-1.31 1.1-.295.352 1.31 2.666-.715.285 1.067-2.666.714.392 1.46 2.33-.624.285 1.067L33 28.903l-.285-1.067 2.294-.614-.39-1.461-2.678.718-.286-1.067zm7.07 2.926 1.292 4.822-1.066.286-.125-.464-3.06.82.125.464-1.078.288-1.292-4.822 5.204-1.394zm-3.238 4.42 3.06-.82-.609-2.271-3.06.82.609 2.272zm3.892-9.677 4.44-1.189-.287-1.066 1.113-.299.286 1.067 4.416-1.184.283 1.055-4.416 1.184.245.915 3.628-.972.935 3.49-2.77.741c1.1.861 2.69 1.466 4.772 1.815l-.496 1.164c-2.251-.614-3.958-1.511-5.119-2.69l1.09 4.068-1.112.298-1.09-4.069c-.457 1.775-1.52 3.414-3.178 4.927l-.91-.85c1.583-1.231 2.65-2.536 3.203-3.902l-2.736.733-.935-3.489 3.605-.965-.245-.916-4.44 1.19-.282-1.056zm9.272 2.287-.389-1.45-2.527.678.389 1.449 2.526-.677zm-3.64.975-.388-1.449-2.504.671.388 1.449 2.504-.671z" fill="#000" fill-opacity=".88"/></svg>