<svg xmlns="http://www.w3.org/2000/svg" width="21" height="20" viewBox="0 0 21 20" fill="none">
  <path d="M5.07495 2.91406H16.323C16.6682 2.91406 16.948 2.63424 16.948 2.28906C16.948 1.97265 16.7129 1.71115 16.4078 1.66977L16.323 1.66406H5.07495C4.72977 1.66406 4.44995 1.94388 4.44995 2.28906C4.44995 2.60548 4.68508 2.86697 4.99014 2.90836L5.07495 2.91406ZM10.6028 18.3288L10.7 18.3344C11.1273 18.3344 11.4795 18.0127 11.5277 17.5982L11.5333 17.5011V7.0094L14.2783 9.75338C14.5788 10.0538 15.0515 10.0768 15.3783 9.82259L15.4568 9.75326C15.7572 9.45282 15.7803 8.98013 15.5261 8.65325L15.4567 8.57475L11.292 4.4109C10.9918 4.1107 10.5194 4.08747 10.1925 4.34133L10.114 4.41056L5.94443 8.5744C5.61877 8.89962 5.61841 9.42726 5.94363 9.75292C6.24382 10.0535 6.7165 10.077 7.04358 9.82299L7.12214 9.75372L9.86662 7.01356V17.5011C9.86662 17.9284 10.1883 18.2807 10.6028 18.3288Z" fill="black" fill-opacity="0.88"/>
</svg>
