<svg xmlns="http://www.w3.org/2000/svg" width="21" height="20" viewBox="0 0 21 20" fill="none">
  <path fill-rule="evenodd" clip-rule="evenodd" d="M2.99996 1.66797C2.53972 1.66797 2.16663 2.04106 2.16663 2.5013C2.16663 2.96154 2.53972 3.33464 2.99996 3.33464H7.99996C8.4602 3.33464 8.83329 2.96154 8.83329 2.5013C8.83329 2.04106 8.4602 1.66797 7.99996 1.66797H2.99996ZM2.99996 4.16797C2.53972 4.16797 2.16663 4.54106 2.16663 5.0013C2.16663 5.46154 2.53972 5.83464 2.99996 5.83464H7.99996C8.4602 5.83464 8.83329 5.46154 8.83329 5.0013C8.83329 4.54106 8.4602 4.16797 7.99996 4.16797H2.99996ZM2.16663 7.5013C2.16663 7.04106 2.53972 6.66797 2.99996 6.66797H7.99996C8.4602 6.66797 8.83329 7.04106 8.83329 7.5013C8.83329 7.96154 8.4602 8.33464 7.99996 8.33464H2.99996C2.53972 8.33464 2.16663 7.96154 2.16663 7.5013ZM12.1666 10.8346C11.2462 10.8346 10.5 11.5808 10.5 12.5013V15.8346C10.5 16.7551 11.2462 17.5013 12.1666 17.5013H17.1666C18.0871 17.5013 18.8333 16.7551 18.8333 15.8346V12.5013C18.8333 11.5808 18.0871 10.8346 17.1666 10.8346H12.1666ZM12.1666 12.5013H17.1666V15.8346H12.1666V12.5013ZM4.24996 12.918V9.16797H5.91663V12.918C5.91663 13.3782 6.28972 13.7513 6.74996 13.7513H9.66663V15.418H6.74996C5.36925 15.418 4.24996 14.2987 4.24996 12.918ZM15.5 10.0013V5.83464C15.5 4.45392 14.3807 3.33464 13 3.33464H9.66663V5.0013H13C13.4602 5.0013 13.8333 5.3744 13.8333 5.83464V10.0013H15.5Z" fill="black" fill-opacity="0.88"/>
</svg>
