<svg fill="none" xmlns="http://www.w3.org/2000/svg" viewBox="0 0 12 12" class="design-iconfont">
  <g clip-path="url(#xqcwh0yrx__clip0_8700_867652)" fill="#fff">
    <path d="M6 6C5.72386 6 5.5 6.22386 5.5 6.5V8.5C5.5 8.77614 5.72386 9 6 9C6.27614 9 6.5 8.77614 6.5 8.5V6.5C6.5 6.22386 6.27614 6 6 6Z"/>
    <path fill-rule="evenodd" clip-rule="evenodd" d="M3 3.5C3 2.11929 4.11929 1 5.5 1H6.5C7.88071 1 9 2.11929 9 3.5V4.02314C9.12605 4.03186 9.24451 4.04387 9.35519 4.0604C9.78854 4.12514 10.1731 4.26806 10.4762 4.60486C10.7726 4.93412 10.8919 5.33905 10.947 5.79403C11 6.23262 11 6.78805 11 7.46767V7.53231C11 8.21193 11 8.76738 10.947 9.20597C10.8919 9.66095 10.7726 10.0659 10.4762 10.3951C10.1731 10.7319 9.78854 10.8749 9.35519 10.9396C8.95051 11 8.44192 11 7.83779 11H4.16222C3.55809 11 3.04949 11 2.64481 10.9396C2.21147 10.8749 1.82688 10.7319 1.52376 10.3951C1.22743 10.0659 1.1081 9.66095 1.05305 9.20597C0.999978 8.76738 0.999988 8.21195 1 7.53234V7.46768C0.999988 6.78807 0.999978 6.23262 1.05305 5.79403C1.1081 5.33905 1.22743 4.93412 1.52376 4.60486C1.82688 4.26806 2.21147 4.12514 2.64481 4.0604C2.75549 4.04387 2.87395 4.03186 3 4.02314V3.5ZM8 3.5V4.00004H4V3.5C4 2.67157 4.67157 2 5.5 2H6.5C7.32843 2 8 2.67157 8 3.5ZM2.79256 5.04943C2.49065 5.09453 2.35934 5.17128 2.26705 5.27382C2.16798 5.3839 2.0896 5.55219 2.04581 5.91416C2.00086 6.28557 2 6.78014 2 7.5C2 8.21986 2.00086 8.71443 2.04581 9.08584C2.0896 9.44781 2.16798 9.6161 2.26705 9.72618C2.35934 9.82872 2.49065 9.90547 2.79256 9.95057C3.11471 9.9987 3.54795 10 4.2 10H7.8C8.45205 10 8.88529 9.9987 9.20745 9.95057C9.50935 9.90547 9.64066 9.82872 9.73295 9.72618C9.83202 9.6161 9.9104 9.44781 9.9542 9.08584C9.99914 8.71443 10 8.21986 10 7.5C10 6.78014 9.99914 6.28557 9.9542 5.91416C9.9104 5.55219 9.83202 5.3839 9.73295 5.27382C9.64066 5.17128 9.50935 5.09453 9.20745 5.04943C8.88529 5.00131 8.45205 5 7.8 5H4.2C3.54795 5 3.11471 5.00131 2.79256 5.04943Z"/>
  </g>
  <defs>
    <clipPath id="xqcwh0yrx__clip0_8700_867652">
      <path fill="#fff" d="M0 0H12V12H0z"/>
    </clipPath>
  </defs>
</svg>
