<svg fill="none" xmlns="http://www.w3.org/2000/svg" viewBox="0 0 24 24" class="design-iconfont">
  <g clip-path="url(#kk9c8gq3w__clip0_8796_122867)">
    <path fill-rule="evenodd" clip-rule="evenodd" d="M20.9999 2H7.5C7.23478 2 6.98043 2.10536 6.79289 2.29289L2.29289 6.79289C2.28642 6.79936 2.28005 6.80591 2.27378 6.81254C2.10408 6.99174 2 7.23372 2 7.5V21C2 21.5523 2.44772 22 3 22H16.5C16.7777 22 17.029 21.8868 17.2102 21.704L21.7071 17.2071C21.8946 17.0196 22 16.7652 22 16.5V3.00098C22 3.00065 22 3.00131 22 3.00098C22 2.75177 21.9074 2.50159 21.7223 2.30839C21.7123 2.29795 21.7021 2.28773 21.6916 2.27773C21.6002 2.1901 21.4962 2.1232 21.3856 2.07705C21.2669 2.02742 21.1366 2 20.9999 2ZM17.5 18.5858L20 16.0858V5.41421L17.5 7.91421V18.5858ZM15.5 20V8.5H4V20H15.5ZM5.41421 6.5H16.0858L18.5858 4H7.91421L5.41421 6.5Z" fill="#000" fill-opacity=".45"/>
  </g>
  <defs>
    <clipPath id="kk9c8gq3w__clip0_8796_122867">
      <path fill="#fff" d="M0 0H24V24H0z"/>
    </clipPath>
  </defs>
</svg>
