<svg fill="none" xmlns="http://www.w3.org/2000/svg" viewBox="0 0 40 40" class="design-iconfont">
  <path fill-rule="evenodd" clip-rule="evenodd" d="M7.87322 8.125C6.55263 8.125 5.51598 9.25701 5.6319 10.5725L6.63727 21.9815C6.73963 23.1431 7.71249 24.034 8.87858 24.034H31.1221C32.2882 24.034 33.2611 23.1431 33.3634 21.9815L34.3688 10.5725C34.4847 9.25701 33.4481 8.125 32.1275 8.125H7.87322ZM11.5912 18.3522C10.6592 18.3522 9.90365 19.1248 9.90365 20.0567C9.90365 20.9887 10.6592 21.7613 11.5912 21.7613H28.4096C29.3415 21.7613 30.0971 20.9887 30.0971 20.0567C30.0971 19.1248 29.3415 18.3522 28.4096 18.3522H11.5912ZM26.1706 12.1022C26.1706 11.7916 26.4224 11.5341 26.7331 11.5341H29.5346C29.8452 11.5341 30.0971 11.7916 30.0971 12.1022C30.0971 12.4129 29.8452 12.6704 29.5346 12.6704H26.7331C26.4224 12.6704 26.1706 12.4129 26.1706 12.1022Z" fill="#000" fill-opacity=".45"/>
  <path d="M14.9064 26.6503C14.7957 26.3889 14.5067 26.2472 14.231 26.3303C13.9341 26.4199 13.7651 26.7363 13.8535 27.037L14.1054 27.8941L14.1365 28.0138C14.245 28.4948 14.1654 29.0016 13.9113 29.4264L13.8372 29.5576C13.4601 30.2652 13.3744 31.0978 13.6032 31.8721L13.8537 32.7196L13.8761 32.782C13.9871 33.0433 14.2764 33.1845 14.5519 33.101C14.8487 33.011 15.0173 32.6943 14.9284 32.3937L14.678 31.5462L14.6468 31.4267C14.5378 30.9462 14.617 30.4396 14.8708 30.0152L14.9449 29.884C15.3221 29.1766 15.4083 28.3443 15.1806 27.5698L14.9287 26.7127L14.9064 26.6503Z" fill="#000" fill-opacity=".45"/>
  <path d="M19.8403 26.3303C20.116 26.2472 20.405 26.3889 20.5157 26.6503L20.538 26.7127L20.7899 27.5698C21.0176 28.3443 20.9313 29.1766 20.5542 29.884L20.4801 30.0152C20.2263 30.4396 20.147 30.9462 20.2561 31.4267L20.2872 31.5462L20.5377 32.3937C20.6266 32.6943 20.458 33.011 20.1612 33.101C19.8856 33.1845 19.5964 33.0433 19.4854 32.782L19.463 32.7196L19.2125 31.8721C18.9837 31.0978 19.0694 30.2652 19.4465 29.5576L19.5206 29.4264C19.7746 29.0016 19.8542 28.4948 19.7458 28.0138L19.7147 27.8941L19.4628 27.037C19.3743 26.7363 19.5434 26.4199 19.8403 26.3303Z" fill="#000" fill-opacity=".45"/>
  <path d="M26.1249 26.6503C26.0143 26.3889 25.7252 26.2472 25.4495 26.3303C25.1526 26.4199 24.9836 26.7363 25.072 27.037L25.324 27.8941L25.355 28.0138C25.4635 28.4948 25.3839 29.0016 25.1299 29.4264L25.0558 29.5576C24.6786 30.2652 24.593 31.0978 24.8218 31.8721L25.0723 32.7196L25.0946 32.782C25.2057 33.0433 25.4949 33.1845 25.7705 33.101C26.0673 33.011 26.2358 32.6943 26.147 32.3937L25.8965 31.5462L25.8653 31.4267C25.7563 30.9462 25.8355 30.4396 26.0894 30.0152L26.1635 29.884C26.5406 29.1766 26.6269 28.3443 26.3992 27.5698L26.1472 26.7127L26.1249 26.6503Z" fill="#000" fill-opacity=".45"/>
</svg>
