<svg fill="none" xmlns="http://www.w3.org/2000/svg" viewBox="0 0 16 16" class="design-iconfont">
  <g clip-path="url(#8t5xr6nv0__clip0_8700_867657)" fill-rule="evenodd" clip-rule="evenodd" fill="#000" fill-opacity=".45">
    <path d="M10 7.33594C10 8.44051 9.10457 9.33594 8 9.33594C6.89543 9.33594 6 8.44051 6 7.33594C6 6.23137 6.89543 5.33594 8 5.33594C9.10457 5.33594 10 6.23137 10 7.33594ZM8.66667 7.33594C8.66667 7.70413 8.36819 8.0026 8 8.0026C7.63181 8.0026 7.33333 7.70413 7.33333 7.33594C7.33333 6.96775 7.63181 6.66927 8 6.66927C8.36819 6.66927 8.66667 6.96775 8.66667 7.33594Z"/>
    <path d="M14 7.33594C14 11.983 8 14.6693 8 14.6693C8 14.6693 2 11.983 2 7.33594C2 4.02223 4.68629 1.33594 8 1.33594C11.3137 1.33594 14 4.02223 14 7.33594ZM12.6667 7.33594C12.6667 9.06174 11.5425 10.5552 10.1454 11.7218C9.46988 12.2858 8.78758 12.7242 8.27131 13.022C8.17401 13.0781 8.08317 13.1289 8 13.1743C7.91684 13.1289 7.82599 13.0781 7.72869 13.022C7.21242 12.7242 6.53012 12.2858 5.85457 11.7218C4.45746 10.5552 3.33333 9.06174 3.33333 7.33594C3.33333 4.75861 5.42267 2.66927 8 2.66927C10.5773 2.66927 12.6667 4.75861 12.6667 7.33594Z"/>
  </g>
  <defs>
    <clipPath id="8t5xr6nv0__clip0_8700_867657">
      <path fill="#fff" d="M0 0H16V16H0z"/>
    </clipPath>
  </defs>
</svg>
