<svg fill="none" xmlns="http://www.w3.org/2000/svg" viewBox="0 0 24 24" class="design-iconfont">
  <g clip-path="url(#7vrt71cqq__clip0_8677_76190)" fill="#000" fill-opacity=".88">
    <path d="M9 7C8.44772 7 8 7.44772 8 8C8 8.55228 8.44772 9 9 9C9.55228 9 10 8.55228 10 8C10 7.44772 9.55228 7 9 7Z"/>
    <path d="M8 12C8 11.4477 8.44772 11 9 11C9.55228 11 10 11.4477 10 12C10 12.5523 9.55228 13 9 13C8.44772 13 8 12.5523 8 12Z"/>
    <path d="M11 8C11 7.44772 11.4477 7 12 7H15C15.5523 7 16 7.44772 16 8C16 8.55228 15.5523 9 15 9H12C11.4477 9 11 8.55228 11 8Z"/>
    <path d="M11 12C11 11.4477 11.4477 11 12 11H15C15.5523 11 16 11.4477 16 12C16 12.5523 15.5523 13 15 13H12C11.4477 13 11 12.5523 11 12Z"/>
    <path d="M9 15C8.44772 15 8 15.4477 8 16C8 16.5523 8.44772 17 9 17C9.55228 17 10 16.5523 10 16C10 15.4477 9.55228 15 9 15Z"/>
    <path d="M11 16C11 15.4477 11.4477 15 12 15H15C15.5523 15 16 15.4477 16 16C16 16.5523 15.5523 17 15 17H12C11.4477 17 11 16.5523 11 16Z"/>
    <path fill-rule="evenodd" clip-rule="evenodd" d="M4 4C4 2.89543 4.89543 2 6 2H18C19.1046 2 20 2.89543 20 4V20C20 21.1046 19.1046 22 18 22H6C4.89543 22 4 21.1046 4 20V4ZM6 4H18V20H6V4Z"/>
  </g>
  <defs>
    <clipPath id="7vrt71cqq__clip0_8677_76190">
      <path fill="#fff" d="M0 0H24V24H0z"/>
    </clipPath>
  </defs>
</svg>
