<svg fill="none" xmlns="http://www.w3.org/2000/svg" viewBox="0 0 32 32" class="design-iconfont">
  <g clip-path="url(#0tk5o188o__clip0_8603_223849)" fill-rule="evenodd" clip-rule="evenodd" fill="#1677FF">
    <path d="M5.33333 4C4.59695 4 4 4.59695 4 5.33333V13.3333C4 14.0697 4.59695 14.6667 5.33333 14.6667H13.3333C14.0697 14.6667 14.6667 14.0697 14.6667 13.3333V5.33333C14.6667 4.59695 14.0697 4 13.3333 4H5.33333ZM6.66667 12V6.66667H12V12H6.66667Z"/>
    <path d="M18.6667 4C17.9303 4 17.3333 4.59695 17.3333 5.33333V13.3333C17.3333 14.0697 17.9303 14.6667 18.6667 14.6667H26.6667C27.403 14.6667 28 14.0697 28 13.3333V5.33333C28 4.59695 27.403 4 26.6667 4H18.6667ZM20 6.66667V12H25.3333V6.66667H20Z"/>
    <path d="M18.6667 17.3333C17.9303 17.3333 17.3333 17.9303 17.3333 18.6667V26.6667C17.3333 27.403 17.9303 28 18.6667 28H26.6667C27.403 28 28 27.403 28 26.6667V18.6667C28 17.9303 27.403 17.3333 26.6667 17.3333H18.6667ZM20 20V25.3333H25.3333V20H20Z"/>
    <path d="M4 18.6667C4 17.9303 4.59695 17.3333 5.33333 17.3333H13.3333C14.0697 17.3333 14.6667 17.9303 14.6667 18.6667V26.6667C14.6667 27.403 14.0697 28 13.3333 28H5.33333C4.59695 28 4 27.403 4 26.6667V18.6667ZM6.66667 25.3333V20H12V25.3333H6.66667Z"/>
  </g>
  <defs>
    <clipPath id="0tk5o188o__clip0_8603_223849">
      <path fill="#fff" d="M0 0H32V32H0z"/>
    </clipPath>
  </defs>
</svg>
