<svg xmlns="http://www.w3.org/2000/svg" width="24" height="24" fill="none" xmlns:v="https://vecta.io/nano"><path d="M12 2c5.523 0 10 4.477 10 10s-4.477 10-10 10S2 17.523 2 12 6.477 2 12 2zm3.53 6.47l-.084-.073a.75.75 0 0 0-.883-.007l-.094.08L12 10.939 9.53 8.47l-.084-.073a.75.75 0 0 0-.883-.007l-.094.08-.073.084a.75.75 0 0 0-.007.883l.08.094L10.939 12 8.47 14.47l-.073.084a.75.75 0 0 0-.007.883l.08.094.084.073a.75.75 0 0 0 .883.007l.094-.08L12 13.061l2.47 2.469.084.073a.75.75 0 0 0 .883.007l.094-.08.073-.084a.75.75 0 0 0 .007-.883l-.08-.094L13.061 12l2.469-2.47.073-.084a.75.75 0 0 0 .007-.883l-.08-.094-.084-.073.084.073z" fill="#000" fill-opacity=".45"/></svg>