<svg xmlns="http://www.w3.org/2000/svg" width="20" height="20" fill="none" xmlns:v="https://vecta.io/nano"><path d="M.22.22a.75.75 0 0 0-.073.977l.073.084 4.035 4.035C2.332 6.664.896 8.68.299 11.064a.75.75 0 0 0 1.455.364 8.49 8.49 0 0 1 3.58-5.034l1.81 1.81C6.436 8.926 6 9.914 6 11.005a4 4 0 0 0 4 4c1.09 0 2.079-.436 2.8-1.144l5.919 5.92a.75.75 0 0 0 1.133-.977l-.073-.084-6.113-6.114.001-.002-6.949-6.946.001-.002-1.133-1.131L1.28.22A.75.75 0 0 0 .22.22zM10 3.5a9.99 9.99 0 0 0-2.889.425l1.237 1.236C8.884 5.055 9.436 5 10 5c3.923 0 7.31 2.68 8.247 6.433a.75.75 0 1 0 1.455-.364C18.599 6.653 14.616 3.5 10 3.5zm.195 3.509l3.801 3.801c-.102-2.057-1.749-3.702-3.801-3.801z" fill="#000"/></svg>