<svg fill="none" xmlns="http://www.w3.org/2000/svg" viewBox="0 0 16 16" class="design-iconfont">
  <g clip-path="url(#wve5by2dd__clip0_6708_136227)">
    <path fill-rule="evenodd" clip-rule="evenodd" d="M8.39984 0.797396C8.1628 0.619618 7.83687 0.619618 7.59984 0.797396L2.2665 4.7974C2.09863 4.9233 1.99984 5.12089 1.99984 5.33073V13.3307H1.33317C0.964981 13.3307 0.666504 13.6292 0.666504 13.9974C0.666504 14.3656 0.964981 14.6641 1.33317 14.6641H14.6665C15.0347 14.6641 15.3332 14.3656 15.3332 13.9974C15.3332 13.6292 15.0347 13.3307 14.6665 13.3307H13.9998V5.33073C13.9998 5.12089 13.901 4.9233 13.7332 4.7974L8.39984 0.797396ZM12.6665 13.3307V5.66406L7.99984 2.16406L3.33317 5.66406V13.3307H12.6665ZM4.6665 6.66406C4.29831 6.66406 3.99984 6.96254 3.99984 7.33073C3.99984 7.69892 4.29831 7.9974 4.6665 7.9974H11.3332C11.7014 7.9974 11.9998 7.69892 11.9998 7.33073C11.9998 6.96254 11.7014 6.66406 11.3332 6.66406H4.6665ZM3.99984 9.33073C3.99984 8.96254 4.29831 8.66406 4.6665 8.66406H11.3332C11.7014 8.66406 11.9998 8.96254 11.9998 9.33073C11.9998 9.69892 11.7014 9.9974 11.3332 9.9974H4.6665C4.29831 9.9974 3.99984 9.69892 3.99984 9.33073ZM3.99984 11.3307C3.99984 10.9625 4.29831 10.6641 4.6665 10.6641H11.3332C11.7014 10.6641 11.9998 10.9625 11.9998 11.3307C11.9998 11.6989 11.7014 11.9974 11.3332 11.9974H4.6665C4.29831 11.9974 3.99984 11.6989 3.99984 11.3307Z" fill="#000" fill-opacity=".65"/>
  </g>
  <defs>
    <clipPath id="wve5by2dd__clip0_6708_136227">
      <rect width="16" height="16" rx="3" fill="#fff"/>
    </clipPath>
  </defs>
</svg>
