<?xml version="1.0" encoding="UTF-8"?>
<svg width="49px" height="37px" viewBox="0 0 49 37" version="1.1" xmlns="http://www.w3.org/2000/svg" xmlns:xlink="http://www.w3.org/1999/xlink">
    <title>Display/Default/innumerable</title>
    <g id="Display/Default/innumerable" stroke="none" stroke-width="1" fill="none" fill-rule="evenodd">
        <path d="M4.99325338e-15,31.7223114 C4.99325338e-15,34.3346 11.0119272,36.4522783 24.5958279,36.4522783 C38.1797286,36.4522783 49.1916558,34.3346 49.1916558,31.7223114 C49.1916558,29.1100228 38.1797286,26.9923445 24.5958279,26.9923445 C11.0119272,26.9923445 4.99325338e-15,29.1100228 4.99325338e-15,31.7223114 Z" id="路径" fill="#F2F3F5" fill-rule="nonzero"></path>
        <path d="M34.2664947,-7.10542736e-15 C35.273858,-7.10542736e-15 36.216487,0.497416635 36.7864028,1.3295249 L44.2995186,12.297914 L43.535447,28.6951326 L5.33186819,28.6951326 L5.52976273,12.2971485 L4.56779661,12.2971485 L12.0809124,1.32875948 C12.6509995,0.496941886 13.5935995,-7.10542736e-15 14.6008205,-7.10542736e-15 L34.2672588,-7.10542736e-15 L34.2664947,-7.10542736e-15 Z" id="路径" fill="#FFFFFF" fill-rule="nonzero"></path>
        <path d="M34.2664947,-3.55271368e-15 C35.273858,-3.55271368e-15 36.216487,0.497416635 36.7864028,1.3295249 L44.2995186,12.297914 L43.3375525,12.2971485 L42.830973,11.5317341 L42.8477826,11.5317341 L36.3837371,2.09417393 C35.81365,1.26235633 34.8710499,0.76531884 33.863829,0.765414449 L15.0027221,0.765414449 C13.9953589,0.765491976 13.0527298,1.26283108 12.4828141,2.09493935 L6.01953261,11.5317341 L6.03634218,11.5317341 L5.52976273,12.2971485 L4.56779661,12.2971485 L12.0809124,1.32875948 C12.6509995,0.496941886 13.5935995,-3.55271368e-15 14.6008205,-3.55271368e-15 L34.2672588,-3.55271368e-15 L34.2664947,-3.55271368e-15 Z" id="路径" fill="#86909C" fill-rule="nonzero"></path>
        <path d="M9.91629765,12.297914 C11.604238,12.297914 12.972584,13.6532281 12.972584,15.3250928 L12.972584,16.8386822 C12.9723309,17.6307623 13.5886724,18.2890816 14.3861164,18.3484876 L14.5007271,18.3522716 L34.3665881,18.3522716 C35.1662843,18.3525223 35.8309337,17.7420506 35.8909109,16.9522014 L35.8947313,16.8386822 L35.8947313,15.3250928 C35.8947313,13.6532281 37.2630772,12.297914 38.9510176,12.297914 L44.2995186,12.297914 L44.2995186,28.6951326 C44.2995186,30.3669972 42.9311726,31.7223114 41.2432323,31.7223114 L7.62408292,31.7223114 C5.9361426,31.7223114 4.56779661,30.3669972 4.56779661,28.6951326 L4.56779661,12.297914 L9.91629765,12.297914 Z" id="路径" fill="#FFFFFF" fill-rule="nonzero"></path>
        <path d="M9.91629765,12.7131682 C10.6460565,12.7131682 11.3069044,13.0058467 11.7851976,13.4795847 C12.2620457,13.9518914 12.5573297,14.6042808 12.5573297,15.3250928 L12.5573297,15.3250928 L12.5573297,16.8385495 C12.5571683,17.3437258 12.753375,17.806392 13.0770791,18.152143 C13.4029472,18.5002053 13.8581334,18.7297101 14.3715306,18.7637391 L14.3715306,18.7637391 L34.3664579,18.7675258 C34.8744719,18.767685 35.3394526,18.573611 35.687044,18.2543529 C36.0397341,17.9304118 36.2716386,17.4776974 36.3061303,16.9675186 L36.3061303,16.9675186 L36.3099855,15.3250928 C36.3099855,14.6042808 36.6052695,13.9518914 37.0821176,13.4795847 C37.5604108,13.0058467 38.2212588,12.7131682 38.9510176,12.7131682 L38.9510176,12.7131682 L43.8842644,12.7131682 L43.8842644,28.6951326 C43.8842644,29.4159446 43.5889804,30.0683339 43.1121323,30.5406406 C42.633839,31.0143786 41.9729911,31.3070571 41.2432323,31.3070571 L41.2432323,31.3070571 L7.62408292,31.3070571 C6.8943241,31.3070571 6.23347617,31.0143786 5.75518296,30.5406406 C5.27833486,30.0683339 4.98305085,29.4159446 4.98305085,28.6951326 L4.98305085,28.6951326 L4.98305085,12.7131682 Z" id="路径" stroke="#86909C" stroke-width="0.830508475" fill="#DBDDE3" fill-rule="nonzero"></path>
    </g>
</svg>