<?xml version="1.0" encoding="UTF-8"?>
<svg width="48px" height="48px" viewBox="0 0 48 48" version="1.1" xmlns="http://www.w3.org/2000/svg" xmlns:xlink="http://www.w3.org/1999/xlink">
    <title>Icons/48px/icon_bluetooth</title>
    <g id="Icons/48px/icon_bluetooth" stroke="none" stroke-width="1" fill="none" fill-rule="evenodd">
        <path d="M26.1494143,5.44202353 L36.320002,13.9810047 C36.7481489,14.3449057 36.9958025,14.8780631 36.9958025,15.4450718 C36.9958025,16.007849 36.7481489,16.5452378 36.3158045,16.9049075 L27.877,23.991 L36.320002,31.080124 C36.7481489,31.4397936 37,31.9771824 37,32.5399597 C37,33.1027369 36.7523464,33.6401257 36.320002,33.9997954 L26.1284268,42.5599336 C25.7842302,42.8519007 25.3560833,43 24.9237389,43 C24.6509002,43 24.3780615,42.9407603 24.1220128,42.8180495 C23.4588049,42.5049253 23.0348555,41.8321314 23.0390222,41.0958664 L23.051,28.048 L14.0899433,35.5738791 C13.7373518,35.8700777 13.3092049,36.0139456 12.8852555,36.0139456 C12.3437756,36.0139456 11.8106907,35.7812181 11.4371115,35.3284575 C10.7697061,34.5202586 10.8788416,33.3227701 11.6805676,32.6542077 L22.034,23.958 L11.6805676,15.2631213 C10.8788416,14.5903274 10.7739036,13.392839 11.4371115,12.5888715 C12.104517,11.784904 13.2924148,11.6748874 14.0899433,12.3434498 L23.043,19.862 L23.0558431,6.89762785 C23.0558431,6.16136287 23.4797925,5.49280043 24.1430004,5.17967624 C24.8062084,4.86655206 25.5869468,4.96810585 26.1494143,5.44202353 Z M26.8210173,28.0546673 L26.8126223,37.0421777 L32.1686561,32.5441911 L26.8210173,28.0546673 Z M26.8210173,10.955548 L26.8126223,19.9430584 L32.1644585,15.4450718 L26.8210173,10.955548 Z" id="path" fill="#1D2129" fill-rule="nonzero"></path>
    </g>
</svg>