<?xml version="1.0" encoding="UTF-8"?>
<svg width="200px" height="200px" viewBox="0 0 200 200" version="1.1" xmlns="http://www.w3.org/2000/svg" xmlns:xlink="http://www.w3.org/1999/xlink">
    <title>Icon/Logo/icon_logo</title>
    <defs>
        <linearGradient x1="50%" y1="0%" x2="50%" y2="100%" id="linearGradient-1">
            <stop stop-color="#FFFFFF" offset="0%"></stop>
            <stop stop-color="#FFFFFF" offset="46.3492535%"></stop>
            <stop stop-color="#FFFFFF" stop-opacity="0.337470635" offset="57.6342826%"></stop>
            <stop stop-color="#FFFFFF" offset="80.4185129%"></stop>
            <stop stop-color="#FFFFFF" offset="100%"></stop>
        </linearGradient>
    </defs>
    <g id="Icon/Logo/icon_logo" stroke="none" stroke-width="1" fill="none" fill-rule="evenodd">
        <path d="M46.875,0 L153.125,0 C179.013348,0 200,20.9866524 200,46.875 L200,153.125 C200,179.013348 179.013348,200 153.125,200 L46.875,200 C20.9866524,200 0,179.013348 0,153.125 L0,46.875 C0,20.9866524 20.9866524,0 46.875,0 Z" id="矩形备份" fill="#4966F5"></path>
        <path d="M134.152996,88.4102706 L134.158644,89.0377277 L134.158644,128.181505 L126.611474,128.181505 L126.610645,93.84203 L134.126324,87.5383446 C134.138839,87.8280655 134.147744,88.1187221 134.152996,88.4102706 Z M65.8704722,87.7458962 L73.3936636,94.1495772 L73.3936636,127.126445 L65.8464938,127.126445 L65.8464938,89.0377277 C65.8464938,88.6051923 65.8545337,88.1745347 65.8704722,87.7458962 Z M100.002569,54.8816526 C116.074053,54.8816526 129.553013,65.9815715 133.191391,80.9333535 L126.496897,86.5519594 C125.243421,73.0217911 113.860055,62.4288225 100.002569,62.4288225 C86.0621605,62.4288225 74.6255711,73.1489454 73.4868281,86.7951637 L66.7773452,81.0844487 C70.3614253,66.0564127 83.8769945,54.8816526 100.002569,54.8816526 Z" id="形状" fill="url(#linearGradient-1)" fill-rule="nonzero"></path>
        <path d="M131.284153,89.2526203 C136.85088,84.5389427 145.184794,85.2304759 149.898472,90.7972028 C151.791948,93.0333478 152.88446,95.8310833 153.013628,98.7473653 L153.026568,99.332071 L153.026568,132.199174 C153.026568,139.493501 147.113348,145.406721 139.819021,145.406721 C132.676659,145.406721 126.858458,139.737318 126.619133,132.65323 L126.611474,132.199174 L126.611474,126.294713 L134.158644,126.294713 L134.158644,132.199174 C134.158644,135.325314 136.692881,137.859551 139.819021,137.859551 C142.833513,137.859551 145.297627,135.503098 145.46979,132.531764 L145.479399,132.199174 L145.479399,99.332071 C145.479399,97.992588 145.004375,96.6965081 144.138786,95.6742703 C142.196336,93.3802895 138.81941,93.0180475 136.441606,94.78948 L136.161221,95.0123064 L103.660369,122.532703 C101.645352,124.238938 98.73495,124.316494 96.6385342,122.765371 L96.3447681,122.532703 L63.8439171,95.0123064 C62.8215378,94.1465973 61.5254139,93.6714954 60.1861164,93.6714954 C57.1716843,93.6714954 54.7075153,96.0280746 54.5353481,98.9994739 L54.525739,99.332071 L54.525739,132.199174 C54.525739,135.325314 57.0599763,137.859551 60.1861164,137.859551 C63.2006086,137.859551 65.6647218,135.503098 65.8368849,132.531764 L65.8464938,132.199174 L65.8464938,125.239652 L73.3936636,125.239652 L73.3936636,132.199174 C73.3936636,139.493501 67.4804433,145.406721 60.1861164,145.406721 C53.0437547,145.406721 47.2255528,139.737318 46.9862277,132.65323 L46.9785692,132.199174 L46.9785692,99.332071 C46.9785692,92.0377308 52.8918028,86.1242463 60.1861164,86.1242463 C63.1161677,86.1242463 65.9572874,87.0986281 68.2663891,88.8846427 L68.7209846,89.2526203 L100.001887,115.739623 L131.284153,89.2526203 Z" id="路径" fill="#FFFFFF" fill-rule="nonzero"></path>
    </g>
</svg>