<svg fill="none" xmlns="http://www.w3.org/2000/svg" viewBox="0 0 67 58" class="design-iconfont">
  <g opacity=".8">
    <rect x="5" y="1" width="56" height="56" rx="28" stroke="#73D13D" stroke-width="2"/>
    <path transform="rotate(75 27.6932 9.19649)" fill="#52C41A" d="M27.6932 7.696490000000001A1.5 1.5 0 1 0 27.6932 10.69649A1.5 1.5 0 1 0 27.6932 7.696490000000001Z"/>
    <path transform="rotate(75 38.3046 48.7981)" fill="#52C41A" d="M38.3046 47.2981A1.5 1.5 0 1 0 38.3046 50.2981A1.5 1.5 0 1 0 38.3046 47.2981Z"/>
    <path d="M31.6782 49.9537C27.2522 49.6747 23.0281 48.0017 19.6114 45.1745C16.1947 42.3473 13.7607 38.511 12.6583 34.2154C11.5559 29.9198 11.8417 25.3855 13.4748 21.2624C15.1078 17.1392 18.0042 13.6389 21.7489 11.2631" stroke="#52C41A" stroke-linecap="round" stroke-dasharray="2 2"/>
    <path d="M44.317 46.6855C48.0528 44.2957 50.9362 40.7846 52.5539 36.6554C54.1715 32.5262 54.4405 27.9909 53.3221 23.6995C52.2037 19.408 49.7555 15.5808 46.3283 12.7663C42.9011 9.95183 38.6708 8.29458 34.2438 8.03208" stroke="#52C41A" stroke-linecap="round" stroke-dasharray="2 2"/>
    <rect x=".00195312" y="27.625" width="64" height="20" rx="4" transform="rotate(-15 .00195312 27.625)" fill="#F6FFED"/>
    <path d="M21.9932 26.1633C22.946 26.5665 23.7713 27.0038 24.466 27.4636L23.8944 28.4367C23.2755 27.9814 22.4587 27.5294 21.4324 27.0839L21.9932 26.1633ZM31.4409 34.7631C30.8034 34.9339 30.1049 35.1087 29.3599 35.2959C28.6034 35.4862 27.9704 35.5812 27.4525 35.5958C26.9516 35.5809 26.4714 35.4114 26.0181 35.1105C25.803 34.9569 25.6391 34.9015 25.5 34.9387C25.2566 35.004 24.979 35.6374 24.6674 36.839L23.6542 36.303C23.9821 35.2088 24.3453 34.4779 24.7469 34.1218L23.8679 30.8415L22.3147 31.2577L22.0414 30.2377L24.6262 29.5451L25.8002 33.9265C25.8706 33.9574 25.9441 33.9998 26.0207 34.0538C26.3711 34.2954 26.7114 34.4526 27.0416 34.5257C27.4328 34.5948 27.9708 34.5624 28.6608 34.4024C29.3246 34.2369 30.1044 34.0404 31.0085 33.7982C31.5764 33.646 32.1529 33.4791 32.7293 33.3122C33.3058 33.1453 33.7516 33.001 34.0584 32.894L34.0837 34.055L31.4409 34.7631ZM26.9603 26.0623L24.7233 26.6617L24.4779 25.746L30.8414 24.0409L31.0495 24.8176C30.5325 25.5772 29.9443 26.2566 29.2911 26.8789C29.3205 26.8959 29.3468 26.9012 29.3762 26.9182L31.706 26.2939L33.085 31.4404C33.2682 32.1243 32.9789 32.5745 32.2255 32.7764L31.333 33.0155L30.8558 32.1619L31.6912 31.9878C31.9462 31.9195 32.0511 31.7547 31.9828 31.4997L31.8244 30.9085L30.1552 31.3558L30.6646 33.2567L29.6562 33.5269L29.1468 31.626L27.5125 32.0639L28.028 33.988L26.9848 34.2676L25.3077 28.0084L27.9737 27.294C27.5228 27.1415 27.0225 26.9898 26.4789 26.8622L26.9603 26.0623ZM28.4791 26.5374C28.9007 26.1636 29.2782 25.7643 29.6147 25.3511L27.0183 26.0468C27.5333 26.207 28.022 26.3617 28.4791 26.5374ZM27.0559 30.36L27.2733 31.1714L28.9077 30.7335L28.6903 29.9221L27.0559 30.36ZM29.6987 29.6519L29.9161 30.4633L31.5852 30.016L31.3678 29.2047L29.6987 29.6519ZM31.1256 28.3005L30.9081 27.4892L29.239 27.9364L29.4564 28.7478L31.1256 28.3005ZM28.448 29.018L28.2306 28.2066L26.5963 28.6445L26.8137 29.4559L28.448 29.018ZM33.538 23.0699C34.4761 23.4646 35.2983 23.8903 36.0046 24.3471L35.4191 25.3611C34.8001 24.9058 33.9918 24.4391 32.9771 23.9905L33.538 23.0699ZM43.2755 31.5921C42.6148 31.7691 41.893 31.9501 41.1133 32.1466C40.322 32.3462 39.6543 32.4506 39.1364 32.4651C38.6123 32.4564 38.1089 32.2932 37.644 31.9954C37.4289 31.8418 37.2418 31.7925 37.1027 31.8298C36.8593 31.895 36.5732 32.5431 36.2594 33.7826L35.2461 33.2466C35.5795 32.1261 35.9511 31.3805 36.3496 31.0129L35.4737 27.7442L33.8973 28.1666L33.6178 27.1234L36.249 26.4184L37.4261 30.8114C37.5081 30.8391 37.5816 30.8816 37.6581 30.9356C38.0171 31.1624 38.3806 31.3135 38.7223 31.3834C39.1251 31.4494 39.6832 31.3993 40.408 31.2299C41.095 31.0582 41.9095 30.8524 42.86 30.5977C43.3816 30.458 43.9116 30.3035 44.4564 30.1575C45.0066 29.9853 45.4177 29.8503 45.7012 29.7495L45.7328 30.9336L43.2755 31.5921ZM42.52 30.1173L40.8857 30.5553L40.3596 29.5657C40.8937 29.4723 41.3983 29.3619 41.8735 29.2346C42.1865 29.1507 42.3053 28.945 42.2245 28.6436L40.9915 24.0419L36.6333 25.2097L36.3444 24.1318L40.7027 22.964L40.2244 21.1789L41.3255 20.8839L41.8038 22.6689L43.4498 22.2279L43.7386 23.3059L42.0927 23.7469L43.3971 28.6152C43.6083 29.4033 43.3082 29.9061 42.52 30.1173ZM38.3205 25.6645C39.2658 26.3181 40.0094 26.914 40.5596 27.4374L39.8433 28.2878C39.266 27.7095 38.5162 27.0905 37.6056 26.4276L38.3205 25.6645Z" fill="#52C41A"/>
  </g>
</svg>
