<svg fill="none" xmlns="http://www.w3.org/2000/svg" viewBox="0 0 20 20" class="design-iconfont">
  <g clip-path="url(#h9uspx9kp__clip0_6708_117736)">
    <path fill-rule="evenodd" clip-rule="evenodd" d="M3.41218 2.14393C3.54933 1.85111 3.84349 1.66406 4.16684 1.66406H15.8335C16.1569 1.66406 16.451 1.85111 16.5882 2.14393C16.7253 2.43675 16.6807 2.78248 16.4737 3.03088L12.5002 7.7991V17.4974C12.5002 17.8003 12.3358 18.0794 12.0708 18.2263C11.8059 18.3731 11.4821 18.3646 11.2252 18.2041L7.89184 16.1207C7.64819 15.9684 7.50017 15.7014 7.50017 15.4141V7.7991L3.52666 3.03088C3.31965 2.78248 3.27503 2.43675 3.41218 2.14393ZM5.94604 3.33073L8.97369 6.96391C9.09849 7.11367 9.16684 7.30245 9.16684 7.4974V14.9522L10.8335 15.9939V7.4974C10.8335 7.30245 10.9019 7.11367 11.0267 6.96391L14.0543 3.33073H5.94604Z" fill="#000" fill-opacity=".88"/>
  </g>
  <defs>
    <clipPath id="h9uspx9kp__clip0_6708_117736">
      <path fill="#fff" d="M0 0H20V20H0z"/>
    </clipPath>
  </defs>
</svg>
