<svg fill="none" xmlns="http://www.w3.org/2000/svg" viewBox="0 0 25 24" class="design-iconfont">
  <g clip-path="url(#e9vylxoy2__clip0_6832_121181)">
    <path fill-rule="evenodd" clip-rule="evenodd" d="M11.775 1.2C12.1306 0.933333 12.6194 0.933333 12.975 1.2L20.975 7.2C21.2268 7.38885 21.375 7.68524 21.375 8V20H22.375C22.9273 20 23.375 20.4477 23.375 21C23.375 21.5523 22.9273 22 22.375 22H2.375C1.8227 22 1.375 21.5523 1.375 21C1.375 20.4477 1.8227 20 2.375 20H3.375V8C3.375 7.68524 3.5232 7.38885 3.775 7.2L11.775 1.2ZM5.375 14V8.5L12.375 3.25L19.375 8.5V20H5.375V16H15.375C15.7699 16 16.1278 15.7676 16.2885 15.4068C16.4491 15.0461 16.3825 14.6246 16.1183 14.331L14.3183 12.331C13.9488 11.9205 13.3165 11.8873 12.906 12.2567C12.4955 12.6262 12.4622 13.2585 12.8317 13.669L13.1296 14H5.375Z" fill="#1677FF"/>
  </g>
  <defs>
    <clipPath id="e9vylxoy2__clip0_6832_121181">
      <rect x=".375" width="24" height="24" rx="3" fill="#fff"/>
    </clipPath>
  </defs>
</svg>
