<svg fill="none" xmlns="http://www.w3.org/2000/svg" viewBox="0 0 25 24" class="design-iconfont">
  <path d="M12.725 1.2C12.3694 0.933334 11.8806 0.933334 11.525 1.2L3.52502 7.2C3.27319 7.38884 3.125 7.68523 3.125 7.99998V20H2.125C1.57275 20 1.125 20.4477 1.125 21C1.125 21.5523 1.57275 22 2.125 22H22.125C22.6772 22 23.125 21.5523 23.125 21C23.125 20.4477 22.6772 20 22.125 20H5.125V8.49998L12.125 3.24998L19.125 8.49998V12H21.125V7.99998C21.125 7.68523 20.9768 7.38884 20.725 7.2L12.725 1.2Z" fill="#1677FF"/>
  <path d="M21.625 18C22.0199 18 22.3778 17.7676 22.5385 17.4068C22.6991 17.0461 22.6324 16.6246 22.3683 16.331L20.5682 14.331C20.1989 13.9205 19.5665 13.8873 19.156 14.2567C18.7455 14.6261 18.7123 15.2584 19.0817 15.669L19.3796 16H9.125C8.57275 16 8.125 16.4477 8.125 17C8.125 17.5523 8.57275 18 9.125 18H21.625Z" fill="#1677FF"/>
  <path d="M11.1317 10.6175C11.1891 11.1149 11.6115 11.5012 12.1244 11.5016C12.6372 11.5019 13.0601 11.1161 13.1182 10.6188L13.125 10.5022L13.1285 8.0006L13.1219 7.88399C13.0645 7.38658 12.6421 7.00029 12.1293 6.99998C11.6165 6.99959 11.1935 7.38539 11.1354 7.88268L11.1285 7.99928L11.125 10.5009L11.1317 10.6175Z" fill="#1677FF"/>
  <path d="M12.135 14.503C11.4438 14.503 10.8835 13.9427 10.8835 13.2515C10.8835 12.5603 11.4438 12 12.135 12C12.8263 12 13.3866 12.5603 13.3866 13.2515C13.3866 13.9427 12.8263 14.503 12.135 14.503Z" fill="#1677FF"/>
</svg>
