<svg fill="none" xmlns="http://www.w3.org/2000/svg" viewBox="0 0 25 24" class="design-iconfont">
  <g clip-path="url(#pyfnv4xyh__clip0_6832_121176)" fill="#1677FF">
    <path d="M7.875 4H17.875C18.4273 4 18.875 4.44772 18.875 5V12.355L19.2677 11.9624C19.726 11.5041 20.286 11.2095 20.875 11.0785V5C20.875 3.34315 19.5319 2 17.875 2H7.875C6.21815 2 4.875 3.34315 4.875 5V19C4.875 20.6569 6.21815 22 7.875 22H11.8755C11.8682 21.8075 11.8879 21.6088 11.9382 21.4075L12.2901 20H7.875C7.32272 20 6.875 19.5523 6.875 19V5C6.875 4.44772 7.32271 4 7.875 4Z"/>
    <path d="M14.0724 18.5719L19.9749 12.6695C20.8675 11.7768 22.3147 11.7768 23.2073 12.6695C24.0999 13.5621 24.0999 15.0093 23.2073 15.9019L17.3049 21.8043C16.9607 22.1485 16.5295 22.3926 16.0574 22.5106L14.2267 22.9683C13.4306 23.1674 12.7094 22.4462 12.9084 21.6501L13.3661 19.8194C13.4842 19.3472 13.7283 18.916 14.0724 18.5719Z"/>
    <path d="M10.1681 6.29299C10.5586 5.90248 11.1918 5.9025 11.5823 6.29304L12.8751 7.58595L14.168 6.29293C14.5585 5.90239 15.1917 5.90235 15.5822 6.29286C15.9728 6.68336 15.9728 7.31653 15.5823 7.70707L14.2893 9.00018H15.875C16.4273 9.00018 16.875 9.4479 16.875 10.0002C16.875 10.5525 16.4273 11.0002 15.875 11.0002H13.875V12.0002H15.875C16.4273 12.0002 16.875 12.4479 16.875 13.0002C16.875 13.5525 16.4273 14.0002 15.875 14.0002H13.875V15.0002C13.875 15.5525 13.4273 16.0002 12.875 16.0002C12.3227 16.0002 11.875 15.5525 11.875 15.0002V14.0002H9.875C9.32272 14.0002 8.875 13.5525 8.875 13.0002C8.875 12.4479 9.32272 12.0002 9.875 12.0002H11.875V11.0002H9.875C9.32272 11.0002 8.875 10.5525 8.875 10.0002C8.875 9.4479 9.32272 9.00018 9.875 9.00018H11.4609L10.168 7.70721C9.77751 7.31667 9.77753 6.68351 10.1681 6.29299Z"/>
  </g>
  <defs>
    <clipPath id="pyfnv4xyh__clip0_6832_121176">
      <path fill="#fff" transform="translate(.875)" d="M0 0H24V24H0z"/>
    </clipPath>
  </defs>
</svg>
