<svg fill="none" xmlns="http://www.w3.org/2000/svg" viewBox="0 0 25 24" class="design-iconfont">
  <g clip-path="url(#oywqa546f__clip0_6832_121206)">
    <path fill-rule="evenodd" clip-rule="evenodd" d="M13.225 1.2C12.8694 0.933333 12.3806 0.933333 12.025 1.2L4.025 7.2C3.77319 7.38885 3.625 7.68524 3.625 8V20H2.625C2.07271 20 1.625 20.4477 1.625 21C1.625 21.5523 2.07271 22 2.625 22H22.625C23.1773 22 23.625 21.5523 23.625 21C23.625 20.4477 23.1773 20 22.625 20H21.625V8C21.625 7.68524 21.4768 7.38885 21.225 7.2L13.225 1.2ZM19.625 14V8.5L12.625 3.25L5.625 8.5V20H19.625V16H9.62502C9.23011 16 8.87218 15.7676 8.71152 15.4068C8.55085 15.0461 8.61754 14.6246 8.88172 14.331L10.6817 12.331C11.0512 11.9205 11.6835 11.8873 12.094 12.2567C12.5045 12.6262 12.5378 13.2585 12.1683 13.669L11.8704 14H19.625Z" fill="#1677FF"/>
  </g>
  <defs>
    <clipPath id="oywqa546f__clip0_6832_121206">
      <rect x=".625" width="24" height="24" rx="3" fill="#fff"/>
    </clipPath>
  </defs>
</svg>
