<svg fill="none" xmlns="http://www.w3.org/2000/svg" viewBox="0 0 68 58" class="design-iconfont">
  <g opacity=".8">
    <rect x="6" y="1" width="56" height="56" rx="28" stroke="#FF7875" stroke-width="2"/>
    <path transform="rotate(75 28.6932 9.19649)" fill="#FF4D4F" d="M28.6932 7.696490000000001A1.5 1.5 0 1 0 28.6932 10.69649A1.5 1.5 0 1 0 28.6932 7.696490000000001Z"/>
    <path transform="rotate(75 39.3046 48.7981)" fill="#FF4D4F" d="M39.3046 47.2981A1.5 1.5 0 1 0 39.3046 50.2981A1.5 1.5 0 1 0 39.3046 47.2981Z"/>
    <path d="M32.6782 49.9537C28.2522 49.6747 24.0281 48.0017 20.6114 45.1745C17.1947 42.3473 14.7607 38.511 13.6583 34.2154C12.5559 29.9198 12.8417 25.3855 14.4748 21.2624C16.1078 17.1392 19.0042 13.6389 22.7489 11.2631" stroke="#FF4D4F" stroke-linecap="round" stroke-dasharray="2 2"/>
    <path d="M45.317 46.6855C49.0528 44.2957 51.9362 40.7846 53.5539 36.6554C55.1715 32.5262 55.4405 27.9909 54.3221 23.6995C53.2037 19.408 50.7555 15.5808 47.3283 12.7663C43.9011 9.95183 39.6708 8.29458 35.2438 8.03208" stroke="#FF4D4F" stroke-linecap="round" stroke-dasharray="2 2"/>
    <rect x=".501953" y="27.625" width="64" height="20" rx="4" transform="rotate(-15 .501953 27.625)" fill="#FFF1F0"/>
    <path d="M30.3913 23.9725L31.4228 24.2055C31.2343 24.9393 30.9808 25.616 30.6654 26.2471C31.441 26.4989 32.1996 26.7802 32.9297 27.0939L32.5839 28.168C31.7509 27.7949 30.9188 27.4712 30.1022 27.2055C29.4433 28.1772 28.6071 28.9975 27.5737 29.6844L26.7403 28.9387C27.6501 28.347 28.4099 27.659 29.0197 26.8744C28.1304 26.6158 27.2598 26.4266 26.4016 26.2839L26.7513 25.2709C27.741 25.4405 28.6935 25.6573 29.6354 25.9268C29.957 25.3188 30.2051 24.6684 30.3913 23.9725ZM31.4078 28.508L32.5165 28.6581C32.4725 30.0241 32.2513 31.2387 31.8646 32.2989C32.7455 32.7586 33.7168 33.045 34.7666 33.1612L34.3583 34.3266C33.2845 34.1671 32.2923 33.849 31.3904 33.3577C30.8875 34.2627 30.2515 35.0419 29.4561 35.6898L28.5006 34.952C29.3169 34.3357 29.9622 33.5913 30.4312 32.7451C29.5353 32.0907 28.7412 31.2599 28.0227 30.2474L28.7986 29.4804C29.4134 30.3841 30.1216 31.1261 30.8968 31.701C31.2358 30.7406 31.3984 29.6783 31.4078 28.508ZM24.8735 26.9791L21.9177 27.7711L21.6382 26.7279L25.7299 25.6315L26.4647 30.553L27.3224 30.3232C28.0554 33.0587 28.3387 34.6724 28.1955 35.158C28.0407 35.6467 27.5403 36.0044 26.6825 36.2342C26.3811 36.315 26.0736 36.3726 25.7428 36.4363L25.1859 35.5171C25.662 35.4393 25.9843 35.3902 26.1697 35.3405C26.7725 35.179 27.0767 34.9235 27.1057 34.5679C27.1431 34.1976 26.9549 33.2169 26.5294 31.629L23.3186 32.4893L22.7399 28.1968L23.8218 27.969L24.2044 31.1587L25.3983 30.8388L24.8735 26.9791ZM26.2274 32.5422L26.5008 33.5622C25.6998 34.0502 24.7588 34.5259 23.6865 34.9748L23.2616 33.9456C24.4066 33.4898 25.397 33.0132 26.2274 32.5422ZM36.8315 25.6136L41.468 24.3713L42.6171 28.66L37.9807 29.9023L36.8315 25.6136ZM41.3286 28.0238L40.6732 25.5781L38.1 26.2676L38.7553 28.7133L41.3286 28.0238ZM43.2103 21.1837L45.8441 31.013L44.7777 31.2987L44.669 30.893L37.297 32.8683L37.4057 33.274L36.3394 33.5597L33.7056 23.7305L43.2103 21.1837ZM37.0361 31.8947L44.4081 29.9193L42.4048 22.4431L35.0329 24.4184L37.0361 31.8947Z" fill="#FF4D4F"/>
  </g>
</svg>
