<svg fill="none" xmlns="http://www.w3.org/2000/svg" viewBox="0 0 68 58" class="design-iconfont">
  <g opacity=".8">
    <rect x="6" y="1" width="56" height="56" rx="28" stroke="#000" stroke-opacity=".65" stroke-width="2"/>
    <path transform="rotate(75 28.6932 9.19649)" fill="#000" fill-opacity=".88" d="M28.6932 7.696490000000001A1.5 1.5 0 1 0 28.6932 10.69649A1.5 1.5 0 1 0 28.6932 7.696490000000001Z"/>
    <path transform="rotate(75 39.3046 48.7981)" fill="#000" fill-opacity=".88" d="M39.3046 47.2981A1.5 1.5 0 1 0 39.3046 50.2981A1.5 1.5 0 1 0 39.3046 47.2981Z"/>
    <path d="M32.6782 49.9537C28.2522 49.6747 24.0281 48.0017 20.6114 45.1745C17.1947 42.3473 14.7607 38.511 13.6583 34.2154C12.5559 29.9198 12.8417 25.3855 14.4748 21.2624C16.1078 17.1392 19.0042 13.6389 22.7489 11.2631" stroke="#000" stroke-opacity=".88" stroke-linecap="round" stroke-dasharray="2 2"/>
    <path d="M45.317 46.6855C49.0529 44.2957 51.9362 40.7846 53.5539 36.6554C55.1715 32.5262 55.4405 27.9909 54.3221 23.6995C53.2037 19.408 50.7555 15.5808 47.3283 12.7663C43.9011 9.95183 39.6708 8.29457 35.2438 8.03208" stroke="#000" stroke-opacity=".88" stroke-linecap="round" stroke-dasharray="2 2"/>
    <rect x=".501953" y="28.0078" width="64" height="20" rx="4" transform="rotate(-15 .501953 28.0078)" fill="#DEDFE0"/>
    <path d="M22.5048 26.543C23.4344 26.9524 24.2566 27.3781 24.9513 27.838L24.3627 28.8405C23.7554 28.382 22.9502 27.9269 21.9355 27.4783L22.5048 26.543ZM31.8714 35.1646C31.2455 35.3323 30.5585 35.5039 29.8136 35.6911C29.0686 35.8783 28.4357 35.9734 27.9294 35.9848C27.4284 35.9699 26.9598 35.7973 26.5065 35.4964C26.2914 35.3429 26.1275 35.2874 26 35.3216C25.7566 35.3868 25.479 36.0202 25.1674 37.2218L24.1542 36.6858C24.4821 35.5916 24.8453 34.8607 25.2469 34.5046L24.3679 31.2244L22.8147 31.6405L22.5414 30.6205L25.1262 29.9279L26.3033 34.321C26.3621 34.3549 26.4325 34.3857 26.5091 34.4397C26.8595 34.6813 27.1998 34.8386 27.5184 34.9147C27.9096 34.9838 28.4476 34.9515 29.1261 34.7945C29.7783 34.6322 30.5464 34.4388 31.4505 34.1965C32.0301 34.0412 32.6065 33.8743 33.2061 33.7013C33.7942 33.5313 34.2516 33.3839 34.57 33.2737L34.5837 34.4378L31.8714 35.1646ZM29.3153 30.1223C30.0081 30.297 30.6576 30.4956 31.2755 30.7152C31.5532 30.2681 31.7962 29.8303 31.9812 29.408L32.9309 29.7995C32.7089 30.269 32.4744 30.6921 32.2306 31.0804C32.8694 31.3317 33.468 31.6185 34.0234 31.9294L33.5685 32.9209C32.269 32.151 30.7215 31.5221 28.9028 31.0404L29.3153 30.1223ZM27.3135 28.4473L27.5341 29.2703L31.0925 28.3168L30.872 27.4939L27.3135 28.4473ZM30.6298 26.5898L30.4092 25.7668L26.8508 26.7203L27.0713 27.5432L30.6298 26.5898ZM27.7949 30.244L28.531 32.9911C29.1807 32.6803 29.8211 32.3348 30.4406 31.9576L30.948 32.8776C30.086 33.3695 28.9921 33.9235 27.6401 34.5342L27.1598 33.6691C27.3899 33.508 27.4771 33.3232 27.4274 33.1377L25.5235 26.0324L31.2263 24.5043L32.4314 29.0016L27.7949 30.244ZM36.8315 25.9964L41.468 24.7541L42.6171 29.0428L37.9807 30.2851L36.8315 25.9964ZM41.3286 28.4066L40.6732 25.9609L38.1 26.6504L38.7553 29.0961L41.3286 28.4066ZM43.2103 21.5665L45.8441 31.3958L44.7777 31.6815L44.669 31.2758L37.297 33.2511L37.4057 33.6568L36.3394 33.9425L33.7056 24.1133L43.2103 21.5665ZM37.0361 32.2775L44.4081 30.3022L42.4048 22.8259L35.0329 24.8012L37.0361 32.2775Z" fill="#000" fill-opacity=".88"/>
  </g>
</svg>
