<svg fill="none" xmlns="http://www.w3.org/2000/svg" viewBox="0 0 68 58" class="design-iconfont">
  <g opacity=".8">
    <rect x="6" y="1" width="56" height="56" rx="28" stroke="#4096FF" stroke-width="2"/>
    <path transform="rotate(75 28.6932 9.19649)" fill="#1677FF" d="M28.6932 7.696490000000001A1.5 1.5 0 1 0 28.6932 10.69649A1.5 1.5 0 1 0 28.6932 7.696490000000001Z"/>
    <path transform="rotate(75 39.3046 48.7981)" fill="#1677FF" d="M39.3046 47.2981A1.5 1.5 0 1 0 39.3046 50.2981A1.5 1.5 0 1 0 39.3046 47.2981Z"/>
    <path d="M32.6782 49.9537C28.2522 49.6747 24.0281 48.0017 20.6114 45.1745C17.1947 42.3473 14.7607 38.511 13.6583 34.2154C12.5559 29.9198 12.8417 25.3855 14.4748 21.2624C16.1078 17.1392 19.0042 13.6389 22.7489 11.2631" stroke="#1677FF" stroke-linecap="round" stroke-dasharray="2 2"/>
    <path d="M45.317 46.6855C49.0528 44.2957 51.9362 40.7846 53.5539 36.6554C55.1715 32.5262 55.4405 27.9909 54.3221 23.6995C53.2037 19.408 50.7555 15.5808 47.3283 12.7663C43.9011 9.95183 39.6708 8.29458 35.2438 8.03208" stroke="#1677FF" stroke-linecap="round" stroke-dasharray="2 2"/>
    <rect x=".501953" y="27.625" width="64" height="20" rx="4" transform="rotate(-15 .501953 27.625)" fill="#E6F4FF"/>
    <path d="M26.3351 30.8114L19.1486 32.737L20.0028 35.9245C20.1208 36.365 20.4 36.5262 20.8405 36.4082L26.6244 34.8584C26.8331 34.8025 27.0115 34.6801 27.1365 34.4976C27.2754 34.274 27.2049 33.5475 26.9484 32.3118L28.1195 32.3707C28.3718 33.8684 28.4076 34.7905 28.2357 35.1224C28.0258 35.4519 27.6922 35.6904 27.2231 35.8409L20.8248 37.5553C19.8396 37.8193 19.2161 37.4398 18.9428 36.4197L17.3278 30.3924L18.4405 30.0942L18.866 31.6822L24.9282 30.0578L24.189 27.2992L16.5388 29.349L16.2562 28.2942L25.0307 25.9431L26.3351 30.8114ZM31.4326 34.9987L30.4126 35.272L29.8834 34.2709C30.1941 34.2249 30.5017 34.1673 30.7799 34.0928C31.0465 34.0214 31.1483 33.845 31.0769 33.5784L30.4122 31.0979C30.0585 31.3542 29.6901 31.602 29.3217 31.8498L28.7569 30.8085C29.2243 30.559 29.6707 30.2779 30.111 29.9736L29.4712 27.5858L28.1614 27.9368L27.8787 26.882L29.1885 26.531L28.6264 24.433L29.7391 24.1349L30.3013 26.2328L31.3792 25.944L31.6619 26.9988L30.5839 27.2876L31.0995 29.2118C31.3636 28.9919 31.613 28.7636 31.8593 28.5237L32.1605 29.648C31.8995 29.8794 31.6501 30.1078 31.3976 30.3245L32.2673 33.57C32.466 34.3118 32.186 34.7968 31.4326 34.9987ZM31.6922 23.9594L36.9082 22.5617L38.0295 26.7461L32.8135 28.1438L31.6922 23.9594ZM36.7123 26.1425L36.5011 25.3543L33.4295 26.1773L33.6407 26.9655L36.7123 26.1425ZM33.2059 25.3427L36.2775 24.5197L36.0694 23.7431L32.9978 24.5661L33.2059 25.3427ZM32.2215 28.9484L38.8864 27.1625L39.1504 28.1478L36.3686 28.8932L36.6543 29.9595L38.9377 29.3477L39.1986 30.3214L36.9152 30.9332L37.2444 32.1619C37.6857 32.0933 38.1934 31.9945 38.773 31.8392C39.3989 31.6715 39.9259 31.5055 40.3539 31.3411L40.3383 32.4882C39.8862 32.6093 39.4774 32.7065 39.1034 32.7943C37.5587 33.1957 36.4666 33.3393 35.8241 33.2133C35.3625 33.1133 34.8922 32.8418 34.4248 32.3956C34.329 33.1045 34.1397 33.7888 33.8568 34.4485L32.8444 33.962C33.3994 32.6952 33.5556 31.4234 33.3067 30.1236L34.3114 29.9786C34.4 30.4021 34.4477 30.8117 34.469 31.2159C34.9969 31.7951 35.509 32.1299 36.0107 32.1943L36.1244 32.2011L35.3138 29.1758L32.4855 29.9336L32.2215 28.9484ZM39.2663 22.9238L43.868 21.6908C43.5591 21.3263 43.2449 20.9881 42.9199 20.7025L44.0926 20.1646C44.4216 20.5113 44.7513 20.9074 45.085 21.3646L49.594 20.1565L49.8766 21.2113L39.5489 23.9786L39.2663 22.9238ZM46.6568 22.2231C48.2105 22.8752 49.5556 23.5832 50.7036 24.344L50.1096 25.3728C49.1015 24.6242 47.7618 23.8899 46.099 23.1552L46.6568 22.2231ZM47.151 24.4387L48.2922 24.6174C48.0292 25.7687 47.6277 26.8204 47.0677 27.7904C48.4968 28.302 50.1366 28.5335 51.9902 28.4965L51.5827 29.7113C49.6378 29.6858 47.9153 29.3771 46.4118 28.7737C45.4039 30.1122 44.0611 31.2671 42.3802 32.2268L41.4346 31.3869C43.0584 30.4922 44.3565 29.4487 45.3206 28.271C44.3367 27.752 43.4524 27.0944 42.6792 26.2953L43.4837 25.4959C44.195 26.2494 45.0321 26.8699 45.9888 27.3341C46.5443 26.4399 46.9297 25.467 47.151 24.4387ZM42.7537 23.2814L43.7429 23.7741C43.1726 25.1693 42.3501 26.458 41.2817 27.6636L40.3146 26.9289C41.3669 25.8022 42.1817 24.5776 42.7537 23.2814Z" fill="#1677FF"/>
  </g>
</svg>
