<svg fill="none" xmlns="http://www.w3.org/2000/svg" viewBox="0 0 24 24" class="design-iconfont">
  <g clip-path="url(#xbcqtdtnk__clip0_6708_43787)">
    <path d="M5.25 3.49219H18.7477C19.1619 3.49219 19.4977 3.1564 19.4977 2.74219C19.4977 2.36249 19.2155 2.0487 18.8494 1.99903L18.7477 1.99219H5.25C4.83579 1.99219 4.5 2.32797 4.5 2.74219C4.5 3.12188 4.78215 3.43568 5.14823 3.48534L5.25 3.49219ZM11.8834 21.9899L12 21.9966C12.5128 21.9966 12.9355 21.6105 12.9933 21.1132L13 20.9966V8.40659L16.2941 11.6994C16.6546 12.0598 17.2218 12.0875 17.6141 11.7824L17.7083 11.6992C18.0687 11.3387 18.0964 10.7715 17.7913 10.3792L17.7081 10.285L12.7105 5.28839C12.3502 4.92815 11.7833 4.90028 11.391 5.2049L11.2968 5.28798L6.29338 10.2846C5.90259 10.6749 5.90215 11.308 6.29241 11.6988C6.65265 12.0595 7.21986 12.0877 7.61236 11.7829L7.70662 11.6998L11 8.41159V20.9966C11 21.5094 11.386 21.9321 11.8834 21.9899Z" fill="#000" fill-opacity=".88"/>
  </g>
  <defs>
    <clipPath id="xbcqtdtnk__clip0_6708_43787">
      <path fill="#fff" d="M0 0H24V24H0z"/>
    </clipPath>
  </defs>
</svg>
