<svg fill="none" xmlns="http://www.w3.org/2000/svg" viewBox="0 0 24 24" class="design-iconfont">
  <path fill-rule="evenodd" clip-rule="evenodd" d="M9 1C6.23858 1 4 3.23858 4 6C4 8.76142 6.23858 11 9 11C11.7614 11 14 8.76142 14 6C14 3.23858 11.7614 1 9 1ZM6 6C6 4.34315 7.34315 3 9 3C10.6569 3 12 4.34315 12 6C12 7.65685 10.6569 9 9 9C7.34315 9 6 7.65685 6 6Z" fill="#000" fill-opacity="0.45"/>
  <path d="M16 2C15.4477 2 15 2.44772 15 3C15 3.55228 15.4477 4 16 4C17.1046 4 18 4.89543 18 6C18 7.10457 17.1046 8 16 8C15.4477 8 15 8.44772 15 9C15 9.55228 15.4477 10 16 10C18.2091 10 20 8.20914 20 6C20 3.79086 18.2091 2 16 2Z" fill="#000" fill-opacity="0.45"/>
  <path fill-rule="evenodd" clip-rule="evenodd" d="M3.55411 13.3033C4.99769 12.4784 6.92522 12 9 12C11.0748 12 13.0023 12.4784 14.4459 13.3033C15.8612 14.1121 17 15.3817 17 17C17 18.6183 15.8612 19.8879 14.4459 20.6967C13.0023 21.5216 11.0748 22 9 22C6.92522 22 4.99769 21.5216 3.55411 20.6967C2.13883 19.8879 1 18.6183 1 17C1 15.3817 2.13883 14.1121 3.55411 13.3033ZM4.54639 15.0398C3.42817 15.6788 3 16.4092 3 17C3 17.5908 3.42817 18.3212 4.54639 18.9602C5.63632 19.583 7.20879 20 9 20C10.7912 20 12.3637 19.583 13.4536 18.9602C14.5718 18.3212 15 17.5908 15 17C15 16.4092 14.5718 15.6788 13.4536 15.0398C12.3637 14.417 10.7912 14 9 14C7.20879 14 5.63632 14.417 4.54639 15.0398Z" fill="#000" fill-opacity="0.45"/>
  <path d="M19.2142 13.0232C18.6747 12.9049 18.1415 13.2463 18.0232 13.7858C17.9049 14.3253 18.2463 14.8585 18.7858 14.9768C19.5499 15.1444 20.1442 15.4291 20.5245 15.7403C20.9056 16.0521 21 16.3218 21 16.5C21 16.6627 20.9236 16.8949 20.6267 17.1707C20.3266 17.4495 19.8489 17.721 19.2117 17.9129C18.6828 18.0721 18.3832 18.6299 18.5424 19.1587C18.7017 19.6876 19.2595 19.9872 19.7883 19.828C20.6373 19.5723 21.4096 19.1733 21.9879 18.6361C22.5694 18.0959 23 17.3666 23 16.5C23 15.5372 22.4714 14.7492 21.7911 14.1924C21.11 13.6351 20.2043 13.2403 19.2142 13.0232Z" fill="#000"  fill-opacity="0.45"/>
</svg>
