<svg fill="none" xmlns="http://www.w3.org/2000/svg" viewBox="0 0 25 24" class="design-iconfont">
  <path d="M9.83218 13.2928C9.44168 12.9023 8.80851 12.9022 8.41797 13.2927C8.02742 13.6832 8.02738 14.3164 8.41788 14.7069L10.4179 16.7072C10.6054 16.8948 10.8598 17.0001 11.125 17.0001C11.3902 17.0001 11.6446 16.8948 11.8322 16.7072L15.8278 12.7116C16.2183 12.3211 16.2183 11.6879 15.8278 11.2974C15.4373 10.9069 14.8041 10.9069 14.4136 11.2974L11.1251 14.5859L9.83218 13.2928Z" fill="#1677FF"/>
  <path fill-rule="evenodd" clip-rule="evenodd" d="M4.125 3C4.125 2.44772 4.57272 2 5.125 2H14.125C14.3902 2 14.6446 2.10536 14.8321 2.29289L19.8317 7.29253C20.0129 7.47352 20.125 7.72367 20.125 8V21C20.125 21.5523 19.6773 22 19.125 22H5.125C4.57272 22 4.125 21.5523 4.125 21V3ZM6.125 4H13.125V8C13.125 8.55228 13.5727 9 14.125 9H18.125V20H6.125V4ZM15.125 5.41421L16.7108 7H15.125V5.41421Z" fill="#1677FF"/>
</svg>
