<svg fill="none" xmlns="http://www.w3.org/2000/svg" viewBox="0 0 25 24" class="design-iconfont">
  <path d="M10.6817 6.33104C11.0512 5.92053 11.6835 5.88726 12.094 6.25671C12.5045 6.62617 12.5378 7.25846 12.1683 7.66897L11.8704 8.00001H15.625C16.1773 8.00001 16.625 8.44772 16.625 9.00001C16.625 9.55229 16.1773 10 15.625 10H9.625C9.23009 10 8.87216 9.7676 8.7115 9.40685C8.55083 9.0461 8.61753 8.62458 8.88171 8.33104L10.6817 6.33104Z" fill="#1677FF"/>
  <path fill-rule="evenodd" clip-rule="evenodd" d="M20.625 4C20.625 2.89543 19.7296 2 18.625 2H6.625C5.52043 2 4.625 2.89543 4.625 4V14C3.52043 14 2.625 14.8954 2.625 16V20C2.625 21.1046 3.52043 22 4.625 22H20.625C21.7296 22 22.625 21.1046 22.625 20V16C22.625 14.8954 21.7296 14 20.625 14V4ZM6.625 4L6.625 14H10.6453C11.1428 14 11.5647 14.3658 11.6352 14.8584C11.7044 15.3421 12.1221 15.7143 12.625 15.7143C13.1279 15.7143 13.5456 15.3421 13.6148 14.8584C13.6853 14.3658 14.1072 14 14.6047 14H18.625V4L6.625 4ZM15.336 16H20.625V20H4.625V16H9.91397C10.3955 17.0137 11.4279 17.7143 12.625 17.7143C13.8221 17.7143 14.8545 17.0137 15.336 16Z" fill="#1677FF"/>
</svg>
