<svg fill="none" xmlns="http://www.w3.org/2000/svg" viewBox="0 0 25 24" class="design-iconfont">
  <g clip-path="url(#8m17yp9l3__clip0_3603_373074)" fill="#1677FF">
    <path d="M14.3183 5.33104C13.9488 4.92053 13.3165 4.88726 12.906 5.25671C12.4955 5.62617 12.4622 6.25846 12.8317 6.66897L13.1296 7.00001H9.375C8.82271 7.00001 8.375 7.44772 8.375 8.00001C8.375 8.55229 8.82271 9.00001 9.375 9.00001H15.375C15.7699 9.00001 16.1278 8.7676 16.2885 8.40685C16.4492 8.0461 16.3825 7.62458 16.1183 7.33104L14.3183 5.33104Z"/>
    <path fill-rule="evenodd" clip-rule="evenodd" d="M6.375 2C5.27043 2 4.375 2.89543 4.375 4V15H1.375C0.822715 15 0.375 15.4477 0.375 16V21C0.375 21.5523 0.822715 22 1.375 22H11.5058C11.8105 22 12.1229 21.9728 12.4348 21.9103C16.3398 21.128 18.7664 19.7509 21.7872 18.0367L21.7882 18.0361C22.1148 17.8508 22.4483 17.6615 22.7915 17.4686C23.8479 16.8747 24.2686 15.5512 23.7205 14.4549C23.2488 13.5116 22.1908 13.016 21.1642 13.2576L20.375 13.4433V4C20.375 2.89543 19.4796 2 18.375 2H6.375ZM4.375 20V17H2.375V20H4.375ZM6.375 20H11.5058C11.6923 20 11.8722 19.9833 12.0419 19.9493C15.6204 19.2323 17.7836 18.0063 20.8145 16.2886C21.1361 16.1063 21.4675 15.9185 21.8113 15.7252C21.9498 15.6474 21.9965 15.479 21.9316 15.3493C21.8745 15.2351 21.7465 15.1752 21.6223 15.2044L14.104 16.9734C14.029 16.9911 13.9521 17 13.875 17H10.875C10.3573 17 9.92521 16.6049 9.87899 16.0893C9.83278 15.5737 10.1877 15.108 10.6972 15.0159C12.7766 14.6402 14.1353 14.2405 14.8277 13.7612C15.1417 13.5439 15.2122 13.382 15.2314 13.289C15.2428 13.2335 15.2484 13.141 15.2149 13H10.2147C9.33896 13 8.50692 13.3827 7.93697 14.0476L6.375 15.8699V20ZM6.375 4V12.7967L6.41846 12.746C7.36837 11.6378 8.75512 11 10.2147 11H15.875C16.2383 11 16.5731 11.1971 16.7494 11.5148C17.1342 12.2083 17.3433 12.9488 17.1903 13.6921C17.1504 13.8861 17.0886 14.0669 17.009 14.2353L18.375 13.9139V4H6.375Z"/>
  </g>
  <defs>
    <clipPath id="8m17yp9l3__clip0_3603_373074">
      <path fill="#fff" transform="translate(.375)" d="M0 0H24V24H0z"/>
    </clipPath>
  </defs>
</svg>
