<svg width="21" height="20" viewBox="0 0 21 20" fill="none" xmlns="http://www.w3.org/2000/svg">
<path d="M14.5 7.00023C14.5 6.44794 14.9477 6.00023 15.5 6.00023H16.5C17.0523 6.00023 17.5 6.44794 17.5 7.00023C17.5 7.55251 17.0523 8.00023 16.5 8.00023H15.5C14.9477 8.00023 14.5 7.55251 14.5 7.00023Z" fill="black" fill-opacity="0.65"/>
<path fill-rule="evenodd" clip-rule="evenodd" d="M6.75 11.0002C6.75 8.92916 8.42893 7.25023 10.5 7.25023C12.5711 7.25023 14.25 8.92916 14.25 11.0002C14.25 13.0713 12.5711 14.7502 10.5 14.7502C8.42893 14.7502 6.75 13.0713 6.75 11.0002ZM10.5 8.75023C9.25736 8.75023 8.25 9.75759 8.25 11.0002C8.25 12.2429 9.25736 13.2502 10.5 13.2502C11.7426 13.2502 12.75 12.2429 12.75 11.0002C12.75 9.75759 11.7426 8.75023 10.5 8.75023Z" fill="black" fill-opacity="0.65"/>
<path fill-rule="evenodd" clip-rule="evenodd" d="M9.5159 0.000115452C8.8967 -0.000729025 8.35325 -0.00147019 7.86025 0.174101C7.3727 0.347734 6.93835 0.644548 6.59943 1.03569C6.25673 1.43121 6.05996 1.93778 5.83577 2.51497L5.78835 2.63689C5.71615 2.822 5.67807 2.91842 5.64643 2.98665L5.64334 2.99325L5.63306 2.99406C5.55452 2.99996 5.44607 3.0019 5.24218 3.00475C4.23496 3.01882 3.39012 3.06929 2.6561 3.45058C1.92553 3.83008 1.32985 4.42576 0.950348 5.15634C0.694963 5.64797 0.5931 6.17281 0.545652 6.74417C0.499977 7.29416 0.499988 7.96969 0.5 8.78821V14.2122C0.499988 15.0308 0.499977 15.7063 0.545652 16.2563C0.5931 16.8277 0.694963 17.3525 0.950348 17.8441C1.32985 18.5747 1.92553 19.1704 2.6561 19.5499C3.14774 19.8053 3.67258 19.9071 4.24393 19.9546C4.79393 20.0003 5.46947 20.0002 6.288 20.0002H14.712C15.5305 20.0002 16.2061 20.0003 16.7561 19.9546C17.3274 19.9071 17.8523 19.8053 18.3439 19.5499C19.0745 19.1704 19.6702 18.5747 20.0497 17.8441C20.305 17.3525 20.4069 16.8277 20.4543 16.2563C20.5 15.7063 20.5 15.0308 20.5 14.2122V8.78826C20.5 7.96973 20.5 7.29417 20.4543 6.74417C20.4069 6.17282 20.305 5.64797 20.0497 5.15634C19.6702 4.42576 19.0745 3.83008 18.3439 3.45058C17.6099 3.06929 16.765 3.01882 15.7578 3.00475C15.5539 3.0019 15.4455 2.99996 15.3669 2.99406L15.3567 2.99324L15.3536 2.98665C15.3219 2.91842 15.2838 2.822 15.2117 2.63689L15.1642 2.51496C14.94 1.93778 14.7433 1.43121 14.4006 1.03569C14.0617 0.644547 13.6273 0.347734 13.1397 0.174101C12.6467 -0.00147019 12.1033 -0.000729028 11.4841 0.00011545L9.5159 0.000115452ZM8.53123 2.05819C8.65476 2.0142 8.81994 2.00023 9.64672 2.00023H11.3533C12.1801 2.00023 12.3452 2.0142 12.4688 2.05819C12.6313 2.11607 12.7761 2.21501 12.889 2.34539C12.9749 2.44449 13.0479 2.5933 13.3483 3.36358L13.3769 3.43742C13.4797 3.70396 13.6083 4.03766 13.8362 4.30275C14.0598 4.56287 14.3412 4.75809 14.6632 4.87639C14.9915 4.99702 15.3552 5.00068 15.6476 5.00362L15.7299 5.00455C16.7743 5.01915 17.1619 5.09034 17.4219 5.22541C17.7872 5.41516 18.0851 5.713 18.2748 6.07829C18.3572 6.23686 18.4242 6.46425 18.4612 6.90969C18.4992 7.3671 18.5 7.95921 18.5 8.83023V14.1702C18.5 15.0413 18.4992 15.6334 18.4612 16.0908C18.4242 16.5362 18.3572 16.7636 18.2748 16.9222C18.0851 17.2875 17.7872 17.5853 17.4219 17.7751C17.2634 17.8574 17.036 17.9245 16.5905 17.9614C16.1331 17.9994 15.541 18.0002 14.67 18.0002H6.33C5.45898 18.0002 4.86686 17.9994 4.40945 17.9614C3.96402 17.9245 3.73663 17.8574 3.57805 17.7751C3.21277 17.5853 2.91493 17.2875 2.72517 16.9222C2.6428 16.7636 2.57578 16.5362 2.53879 16.0908C2.5008 15.6334 2.5 15.0413 2.5 14.1702V8.83023C2.5 7.95921 2.5008 7.3671 2.53879 6.90969C2.57578 6.46425 2.6428 6.23686 2.72517 6.07829C2.91493 5.713 3.21277 5.41516 3.57805 5.22541C3.83807 5.09034 4.22567 5.01915 5.27012 5.00455L5.35237 5.00362C5.64477 5.00068 6.00853 4.99702 6.33684 4.87639C6.6588 4.75809 6.94024 4.56287 7.16382 4.30275C7.39167 4.03766 7.52032 3.70396 7.62308 3.43743L7.65166 3.36358C7.95206 2.5933 8.02509 2.44449 8.11096 2.34539C8.22393 2.21501 8.36871 2.11607 8.53123 2.05819Z" fill="black" fill-opacity="0.65"/>
</svg>
