<svg fill="none" xmlns="http://www.w3.org/2000/svg" viewBox="0 0 25 24" class="design-iconfont">
  <path d="M14.8183 6.33104C14.4488 5.92053 13.8165 5.88726 13.406 6.25671C12.9955 6.62617 12.9622 7.25846 13.3317 7.66897L13.6296 8.00001H9.875C9.32272 8.00001 8.875 8.44772 8.875 9.00001C8.875 9.55229 9.32272 10 9.875 10H15.875C16.2699 10 16.6278 9.7676 16.7885 9.40685C16.9492 9.0461 16.8825 8.62458 16.6183 8.33104L14.8183 6.33104Z" fill="#1677FF"/>
  <path fill-rule="evenodd" clip-rule="evenodd" d="M4.875 4C4.875 2.89543 5.77043 2 6.875 2H18.875C19.9796 2 20.875 2.89543 20.875 4V14C21.9796 14 22.875 14.8954 22.875 16V20C22.875 21.1046 21.9796 22 20.875 22H4.875C3.77043 22 2.875 21.1046 2.875 20V16C2.875 14.8954 3.77043 14 4.875 14V4ZM18.875 4L18.875 14H14.8547C14.3572 14 13.9353 14.3658 13.8648 14.8584C13.7956 15.3421 13.3779 15.7143 12.875 15.7143C12.3721 15.7143 11.9544 15.3421 11.8852 14.8584C11.8147 14.3658 11.3928 14 10.8953 14H6.875V4L18.875 4ZM10.164 16H4.875V20H20.875V16H15.586C15.1045 17.0137 14.0721 17.7143 12.875 17.7143C11.6779 17.7143 10.6455 17.0137 10.164 16Z" fill="#1677FF"/>
</svg>
