<svg width="20" height="21" viewBox="0 0 20 21" fill="none" xmlns="http://www.w3.org/2000/svg">
<path fill-rule="evenodd" clip-rule="evenodd" d="M6.83744 3.94284C6.93992 3.97906 7.04436 3.99758 7.14743 4H1.5C0.947715 4 0.5 4.44772 0.5 5C0.5 5.55228 0.947715 6 1.5 6H18.5001C19.0524 6 19.5001 5.55228 19.5001 5C19.5001 4.44772 19.0524 4 18.5001 4H12.8525C12.9556 3.99758 13.06 3.97906 13.1625 3.94284C13.6832 3.75879 13.9562 3.18747 13.7721 2.66675C13.2235 1.11451 11.7432 0 9.99998 0C8.25679 0 6.77648 1.11451 6.22784 2.66675C6.0438 3.18747 6.31672 3.75879 6.83744 3.94284ZM9.99998 2C9.13073 2 8.38856 2.5551 8.11352 3.33325C7.97116 3.73603 7.59707 3.99055 7.19393 4H12.806C12.4029 3.99055 12.0288 3.73603 11.8864 3.33325C11.6114 2.5551 10.8692 2 9.99998 2Z" fill="black" fill-opacity="0.65"/>
<path d="M4.19777 7.93349C4.16104 7.38243 3.68453 6.96549 3.13347 7.00222C2.58241 7.03896 2.16547 7.51546 2.2022 8.06653L2.63332 14.5333C2.71794 15.8031 2.78792 16.8532 2.95311 17.6824C3.12685 18.5546 3.42929 19.3179 4.07391 19.921C4.71854 20.5241 5.50032 20.7751 6.38208 20.8904C7.22046 21.0001 8.27284 21 9.54552 21H10.4545C11.7271 21 12.7795 21.0001 13.6179 20.8904C14.4997 20.7751 15.2814 20.5241 15.9261 19.921C16.5707 19.3179 16.8731 18.5546 17.0469 17.6824C17.2121 16.8532 17.282 15.8031 17.3667 14.5333L17.7978 8.06653C17.8345 7.51546 17.4176 7.03896 16.8665 7.00222C16.3154 6.96549 15.8389 7.38243 15.8022 7.93349L15.3756 14.3326C15.2853 15.6873 15.222 16.6058 15.0854 17.2917C14.9544 17.9493 14.7801 18.2543 14.5597 18.4605C14.3393 18.6667 14.0234 18.8203 13.3585 18.9073C12.6651 18.998 11.7443 19 10.3867 19H9.61331C8.25565 19 7.33491 18.998 6.64148 18.9073C5.97659 18.8203 5.66066 18.6667 5.44028 18.4605C5.2199 18.2543 5.04558 17.9493 4.91457 17.2917C4.77794 16.6058 4.71469 15.6873 4.62438 14.3326L4.19777 7.93349Z" fill="black" fill-opacity="0.65"/>
<path d="M7.40057 9.00498C7.95011 8.95002 8.44016 9.35097 8.49511 9.90051L8.99511 14.9005C9.05007 15.4501 8.64912 15.9401 8.09958 15.9951C7.55004 16.05 7.05999 15.6491 7.00504 15.0995L6.50504 10.0995C6.45008 9.54997 6.85103 9.05993 7.40057 9.00498Z" fill="black" fill-opacity="0.65"/>
<path d="M13.4951 10.0995C13.5501 9.54997 13.1491 9.05993 12.5996 9.00498C12.05 8.95002 11.56 9.35097 11.505 9.90051L11.005 14.9005C10.9501 15.4501 11.351 15.9401 11.9006 15.9951C12.4501 16.05 12.9402 15.6491 12.9951 15.0995L13.4951 10.0995Z" fill="black" fill-opacity="0.65"/>
</svg>
