<svg fill="none" xmlns="http://www.w3.org/2000/svg" viewBox="0 0 25 24" class="design-iconfont">
  <path d="M19.009 12.3669C18.5198 11.8777 17.7267 11.8777 17.2375 12.3669L16.9254 12.6791L18.6969 14.4505L19.0091 14.1383C19.4982 13.6491 19.4982 12.856 19.009 12.3669Z" fill="#1677FF"/>
  <path d="M13.0545 16.5505L16.5542 13.0504L18.3256 14.8218L14.826 18.3219C14.6837 18.4642 14.5047 18.5642 14.309 18.6108L12.6983 18.9943C12.6097 19.0154 12.5164 18.989 12.4519 18.9245C12.3874 18.8601 12.361 18.7668 12.3821 18.6781L12.7657 17.0674C12.8122 16.8717 12.9122 16.6927 13.0545 16.5505Z" fill="#1677FF"/>
  <path fill-rule="evenodd" clip-rule="evenodd" d="M19.0821 2.29289C18.8946 2.10536 18.6402 2 18.375 2H6.375C6.10978 2 5.85543 2.10536 5.66789 2.29289L2.66789 5.2929L2.58793 5.38298L2.521 5.47929L2.46867 5.57678L2.42474 5.68786L2.39524 5.79927L2.378 5.912L2.375 21C2.375 21.5523 2.82271 22 3.375 22H21.375C21.9273 22 22.375 21.5523 22.375 21V6L22.3681 5.88191L22.3391 5.73401L22.3151 5.65835L22.2813 5.5769L22.2503 5.51594L22.1787 5.40469L22.0821 5.2929L19.0821 2.29289ZM4.375 7H20.375V20H4.375V7ZM6.78921 4H17.9608L18.96 5H5.789L6.78921 4Z" fill="#1677FF"/>
</svg>
