<svg width="40" height="40" viewBox="0 0 40 40" fill="none" xmlns="http://www.w3.org/2000/svg">
<path d="M2.5 10C2.5 5.85786 5.85786 2.5 10 2.5H30C34.1421 2.5 37.5 5.85786 37.5 10V30C37.5 34.1421 34.1421 37.5 30 37.5H10C5.85786 37.5 2.5 34.1421 2.5 30V10Z" stroke="black" stroke-opacity="0.15"/>
<path fill-rule="evenodd" clip-rule="evenodd" d="M13.4119 12.1459C13.5491 11.8531 13.8432 11.666 14.1666 11.666H25.8333C26.1566 11.666 26.4508 11.8531 26.5879 12.1459C26.7251 12.4387 26.6804 12.7844 26.4734 13.0328L22.4999 17.8011V27.4994C22.4999 27.8023 22.3355 28.0814 22.0706 28.2282C21.8056 28.3751 21.4818 28.3666 21.2249 28.206L17.8916 26.1227C17.6479 25.9704 17.4999 25.7033 17.4999 25.416V17.8011L13.5264 13.0328C13.3194 12.7844 13.2748 12.4387 13.4119 12.1459ZM15.9458 13.3327L18.9734 16.9659C19.0982 17.1156 19.1666 17.3044 19.1666 17.4993V24.9541L20.8333 25.9958V17.4993C20.8333 17.3044 20.9016 17.1156 21.0264 16.9659L24.0541 13.3327H15.9458Z" fill="black"/>
</svg>
