<svg width="40" height="40" viewBox="0 0 40 40" fill="none" xmlns="http://www.w3.org/2000/svg">
<path d="M2.5 10C2.5 5.85786 5.85786 2.5 10 2.5H30C34.1421 2.5 37.5 5.85786 37.5 10V30C37.5 34.1421 34.1421 37.5 30 37.5H10C5.85786 37.5 2.5 34.1421 2.5 30V10Z" stroke="black" stroke-opacity="0.15"/>
<path fill-rule="evenodd" clip-rule="evenodd" d="M13.4122 12.1459C13.5493 11.8531 13.8435 11.666 14.1668 11.666H25.8335C26.1569 11.666 26.451 11.8531 26.5882 12.1459C26.7253 12.4387 26.6807 12.7844 26.4737 13.0328L22.5002 17.8011V27.4994C22.5002 27.8023 22.3358 28.0814 22.0708 28.2282C21.8059 28.3751 21.4821 28.3666 21.2252 28.206L17.8918 26.1227C17.6482 25.9704 17.5002 25.7033 17.5002 25.416V17.8011L13.5267 13.0328C13.3197 12.7844 13.275 12.4387 13.4122 12.1459ZM15.946 13.3327L18.9737 16.9659C19.0985 17.1156 19.1668 17.3044 19.1668 17.4993V24.9541L20.8335 25.9958V17.4993C20.8335 17.3044 20.9019 17.1156 21.0267 16.9659L24.0543 13.3327H15.946Z" fill="#1677FF"/>
</svg>
