<svg fill="none" xmlns="http://www.w3.org/2000/svg" viewBox="0 0 25 24" class="design-iconfont">
  <path fill-rule="evenodd" clip-rule="evenodd" d="M7.125 13C7.125 10.7909 8.91586 9 11.125 9C13.3341 9 15.125 10.7909 15.125 13C15.125 13.7418 14.9231 14.4365 14.5712 15.032L16.8321 17.2929C17.2226 17.6834 17.2226 18.3166 16.8321 18.7071C16.4416 19.0976 15.8084 19.0976 15.4179 18.7071L13.157 16.4462C12.5615 16.7981 11.8668 17 11.125 17C8.91586 17 7.125 15.2091 7.125 13ZM11.125 11C10.0204 11 9.125 11.8954 9.125 13C9.125 14.1046 10.0204 15 11.125 15C12.2296 15 13.125 14.1046 13.125 13C13.125 11.8954 12.2296 11 11.125 11Z" fill="#1677FF"/>
  <path fill-rule="evenodd" clip-rule="evenodd" d="M18.8321 2.29289C18.6446 2.10536 18.3902 2 18.125 2H6.125C5.85978 2 5.60543 2.10536 5.41789 2.29289L2.41789 5.2929L2.33793 5.38298L2.271 5.47929L2.21867 5.57678L2.17474 5.68786L2.14524 5.79927L2.128 5.912L2.125 21C2.125 21.5523 2.57271 22 3.125 22H21.125C21.6773 22 22.125 21.5523 22.125 21V6L22.1181 5.88191L22.0891 5.73401L22.0651 5.65835L22.0313 5.5769L22.0003 5.51594L21.9287 5.40469L21.8321 5.2929L18.8321 2.29289ZM4.125 7H20.125V20H4.125V7ZM6.53921 4H17.7108L18.71 5H5.539L6.53921 4Z" fill="#1677FF"/>
</svg>
