<svg fill="none" xmlns="http://www.w3.org/2000/svg" viewBox="0 0 25 24" class="design-iconfont">
  <path fill-rule="evenodd" clip-rule="evenodd" d="M13.475 1.2C13.1194 0.933333 12.6306 0.933333 12.275 1.2L4.275 7.2C4.02319 7.38885 3.875 7.68524 3.875 8V20H2.875C2.32272 20 1.875 20.4477 1.875 21C1.875 21.5523 2.32272 22 2.875 22H22.875C23.4273 22 23.875 21.5523 23.875 21C23.875 20.4477 23.4273 20 22.875 20H21.875V8C21.875 7.68524 21.7268 7.38885 21.475 7.2L13.475 1.2ZM19.875 20V8.5L12.875 3.25L5.875 8.5V20H19.875ZM7.875 10C7.32272 10 6.875 10.4477 6.875 11C6.875 11.5523 7.32272 12 7.875 12H17.875C18.4273 12 18.875 11.5523 18.875 11C18.875 10.4477 18.4273 10 17.875 10H7.875ZM6.875 14C6.875 13.4477 7.32272 13 7.875 13H17.875C18.4273 13 18.875 13.4477 18.875 14C18.875 14.5523 18.4273 15 17.875 15H7.875C7.32272 15 6.875 14.5523 6.875 14ZM6.875 17C6.875 16.4477 7.32272 16 7.875 16H17.875C18.4273 16 18.875 16.4477 18.875 17C18.875 17.5523 18.4273 18 17.875 18H7.875C7.32272 18 6.875 17.5523 6.875 17Z" fill="#1677FF"/>
</svg>
