<svg fill="none" xmlns="http://www.w3.org/2000/svg" viewBox="0 0 18 18" class="design-iconfont">
  <path d="M6.75 5.25C6.33579 5.25 6 5.58579 6 6C6 6.41421 6.33579 6.75 6.75 6.75C7.16421 6.75 7.5 6.41421 7.5 6C7.5 5.58579 7.16421 5.25 6.75 5.25Z" fill="#000" fill-opacity=".88"/>
  <path d="M6 9C6 8.58579 6.33579 8.25 6.75 8.25C7.16421 8.25 7.5 8.58579 7.5 9C7.5 9.41421 7.16421 9.75 6.75 9.75C6.33579 9.75 6 9.41421 6 9Z" fill="#000" fill-opacity=".88"/>
  <path d="M8.25 6C8.25 5.58579 8.58579 5.25 9 5.25H11.25C11.6642 5.25 12 5.58579 12 6C12 6.41421 11.6642 6.75 11.25 6.75H9C8.58579 6.75 8.25 6.41421 8.25 6Z" fill="#000" fill-opacity=".88"/>
  <path d="M8.25 9C8.25 8.58579 8.58579 8.25 9 8.25H11.25C11.6642 8.25 12 8.58579 12 9C12 9.41421 11.6642 9.75 11.25 9.75H9C8.58579 9.75 8.25 9.41421 8.25 9Z" fill="#000" fill-opacity=".88"/>
  <path d="M6.75 11.25C6.33579 11.25 6 11.5858 6 12C6 12.4142 6.33579 12.75 6.75 12.75C7.16421 12.75 7.5 12.4142 7.5 12C7.5 11.5858 7.16421 11.25 6.75 11.25Z" fill="#000" fill-opacity=".88"/>
  <path d="M8.25 12C8.25 11.5858 8.58579 11.25 9 11.25H11.25C11.6642 11.25 12 11.5858 12 12C12 12.4142 11.6642 12.75 11.25 12.75H9C8.58579 12.75 8.25 12.4142 8.25 12Z" fill="#000" fill-opacity=".88"/>
  <path fill-rule="evenodd" clip-rule="evenodd" d="M3 3C3 2.17157 3.67157 1.5 4.5 1.5H13.5C14.3284 1.5 15 2.17157 15 3V15C15 15.8284 14.3284 16.5 13.5 16.5H4.5C3.67157 16.5 3 15.8284 3 15V3ZM4.5 3H13.5V15H4.5V3Z" fill="#000" fill-opacity=".88"/>
</svg>
