<svg width="16" height="16" viewBox="0 0 16 16" fill="none" xmlns="http://www.w3.org/2000/svg">
<path fill-rule="evenodd" clip-rule="evenodd" d="M2.66699 4.93268C2.66699 3.43921 2.66699 2.69247 2.95764 2.12204C3.2133 1.62028 3.62125 1.21233 4.12302 0.956665C4.69345 0.666016 5.44019 0.666016 6.93366 0.666016H9.06699C10.5605 0.666016 11.3072 0.666016 11.8776 0.956665C12.3794 1.21233 12.7873 1.62028 13.043 2.12204C13.3337 2.69247 13.3337 3.43921 13.3337 4.93268V11.066C13.3337 12.5595 13.3337 13.3062 13.043 13.8767C12.7873 14.3784 12.3794 14.7864 11.8776 15.042C11.3072 15.3327 10.5605 15.3327 9.06699 15.3327H6.93366C5.44019 15.3327 4.69345 15.3327 4.12302 15.042C3.62125 14.7864 3.2133 14.3784 2.95764 13.8767C2.66699 13.3062 2.66699 12.5595 2.66699 11.066V4.93268ZM4.15044 2.71805C4.00033 3.00703 4.00033 3.38669 4.00033 4.14602V10.5193C4.00033 11.2787 4.00033 11.6583 4.15044 11.9473C4.27694 12.1908 4.4755 12.3894 4.71903 12.5159C5.00801 12.666 5.38767 12.666 6.14699 12.666H9.85366C10.613 12.666 10.9926 12.666 11.2816 12.5159C11.5251 12.3894 11.7237 12.1908 11.8502 11.9473C12.0003 11.6583 12.0003 11.2787 12.0003 10.5193V4.14602C12.0003 3.38669 12.0003 3.00703 11.8502 2.71805C11.7237 2.47453 11.5251 2.27597 11.2816 2.14946C10.9926 1.99935 10.613 1.99935 9.85366 1.99935H6.14699C5.38767 1.99935 5.00801 1.99935 4.71903 2.14946C4.4755 2.27597 4.27694 2.47453 4.15044 2.71805Z" fill="#8C8C8C"/>
</svg>
