<svg width="73" height="72" viewBox="0 0 73 72" fill="none" xmlns="http://www.w3.org/2000/svg">
<g clip-path="url(#clip0_5399_96106)">
<g filter="url(#filter0_d_5399_96106)">
<rect x="8.5" y="8" width="56" height="56" rx="4" fill="url(#paint0_linear_5399_96106)"/>
</g>
<rect x="12.5" y="12" width="48" height="48" rx="3" fill="url(#paint1_linear_5399_96106)"/>
<path d="M15.5 45.8942C15.5 44.1438 16.7272 42.625 18.4596 42.2314L27.9091 40.0846L44.8306 24.9752C46.6639 23.3382 49.5705 23.8247 50.7513 25.9662L57.5 38.2051V55.1205C57.5 56.1585 56.6453 57 55.5909 57H17.4091C16.3547 57 15.5 56.1585 15.5 55.1205L15.5 45.8942Z" fill="#BAE0FF"/>
<circle cx="20.5" cy="20" r="4" fill="#BAE0FF"/>
</g>
<defs>
<filter id="filter0_d_5399_96106" x="7.5" y="7" width="60" height="60" filterUnits="userSpaceOnUse" color-interpolation-filters="sRGB">
<feFlood flood-opacity="0" result="BackgroundImageFix"/>
<feColorMatrix in="SourceAlpha" type="matrix" values="0 0 0 0 0 0 0 0 0 0 0 0 0 0 0 0 0 0 127 0" result="hardAlpha"/>
<feOffset dx="1" dy="1"/>
<feGaussianBlur stdDeviation="1"/>
<feComposite in2="hardAlpha" operator="out"/>
<feColorMatrix type="matrix" values="0 0 0 0 0.623285 0 0 0 0 0.676337 0 0 0 0 0.748681 0 0 0 0.37 0"/>
<feBlend mode="normal" in2="BackgroundImageFix" result="effect1_dropShadow_5399_96106"/>
<feBlend mode="normal" in="SourceGraphic" in2="effect1_dropShadow_5399_96106" result="shape"/>
</filter>
<linearGradient id="paint0_linear_5399_96106" x1="36.5" y1="8" x2="36.5" y2="64" gradientUnits="userSpaceOnUse">
<stop stop-color="#D7DCE2"/>
<stop offset="1" stop-color="#F2F4F5"/>
</linearGradient>
<linearGradient id="paint1_linear_5399_96106" x1="27.8333" y1="60" x2="27.8333" y2="12" gradientUnits="userSpaceOnUse">
<stop stop-color="white"/>
<stop offset="1" stop-color="#F6F7F8"/>
</linearGradient>
<clipPath id="clip0_5399_96106">
<rect width="72" height="72" fill="white" transform="translate(0.5)"/>
</clipPath>
</defs>
</svg>
