<svg xmlns="http://www.w3.org/2000/svg" width="18" height="18" fill="#fff" xmlns:v="https://vecta.io/nano"><path d="M14 7.333c0 .46-.373.833-.833.833s-.833-.373-.833-.833.373-.833.833-.833.833.373.833.833z"/><path fill-rule="evenodd" d="M6.14.666a7.65 7.65 0 0 0-.589.014c-.19.016-.415.052-.641.168-.314.16-.569.415-.728.728-.115.226-.152.451-.168.641C4 2.391 4 2.596 4 2.806v1.193l-.996.025c-.329.027-.657.086-.972.247A2.5 2.5 0 0 0 .939 5.364c-.161.315-.22.643-.247.972-.026.312-.025.691-.025 1.13v3.064l.025 1.13c.027.329.086.657.247.972a2.5 2.5 0 0 0 1.093 1.093c.315.161.643.22.972.247.28.023.613.025.996.025v1.193l.014.589c.016.191.052.415.168.641.16.314.415.569.728.728.226.115.451.152.641.168.173.014.378.014.588.014h5.72l.589-.014c.19-.016.415-.052.641-.168.314-.16.569-.415.728-.728.115-.226.152-.451.168-.641a7.6 7.6 0 0 0 .014-.589v-1.193l.996-.025c.329-.027.657-.086.972-.247a2.5 2.5 0 0 0 1.093-1.093c.161-.315.22-.643.247-.972.026-.312.026-.691.026-1.13V7.467l-.026-1.13c-.027-.329-.086-.657-.247-.972a2.5 2.5 0 0 0-1.093-1.093c-.315-.161-.643-.22-.972-.247A13.03 13.03 0 0 0 14 3.999V2.806l-.014-.589c-.016-.19-.052-.415-.168-.641-.16-.314-.415-.569-.728-.728-.226-.115-.451-.152-.641-.168a7.65 7.65 0 0 0-.589-.014H6.14zm6.193 3.333V2.833l-.009-.479-.001-.011-.011-.001a6.82 6.82 0 0 0-.479-.009H6.167l-.479.009-.011.001-.001.011a6.82 6.82 0 0 0-.009.479v1.167h6.667zM14 12.333l.86-.02c.226-.018.31-.05.351-.071.157-.08.284-.207.364-.364.021-.041.052-.125.071-.352.019-.236.02-.546.02-1.027v-3l-.02-1.027c-.018-.226-.05-.31-.071-.352-.08-.157-.207-.284-.364-.364-.041-.021-.125-.052-.351-.071-.236-.019-.546-.02-1.027-.02H4.167l-1.027.02c-.226.019-.31.05-.352.071-.157.08-.284.207-.364.364-.021.041-.052.125-.071.352-.019.236-.02.546-.02 1.027v3l.02 1.027c.018.226.05.31.071.352.08.157.207.284.364.364.041.021.125.052.352.071.208.017.473.02.86.02v-.833c-.46 0-.833-.373-.833-.833s.373-.833.833-.833h10c.46 0 .833.373.833.833s-.373.833-.833.833v.833zm-1.667-.833H5.667v3.667l.009.479.001.011h.011a6.78 6.78 0 0 0 .479.009h5.667l.479-.009h.011l.001-.011c.008-.097.009-.232.009-.479v-3.667z"/></svg>