<svg fill="none" xmlns="http://www.w3.org/2000/svg" viewBox="0 0 25 24" class="design-iconfont">
  <path d="M8.375 12C8.375 11.4477 8.82272 11 9.375 11C9.92728 11 10.375 11.4477 10.375 12C10.375 12.5523 9.92728 13 9.375 13C8.82272 13 8.375 12.5523 8.375 12Z" fill="#1677FF"/>
  <path d="M9.375 15C8.82272 15 8.375 15.4477 8.375 16C8.375 16.5523 8.82272 17 9.375 17C9.92728 17 10.375 16.5523 10.375 16C10.375 15.4477 9.92728 15 9.375 15Z" fill="#1677FF"/>
  <path d="M11.375 12C11.375 11.4477 11.8227 11 12.375 11H15.375C15.9273 11 16.375 11.4477 16.375 12C16.375 12.5523 15.9273 13 15.375 13H12.375C11.8227 13 11.375 12.5523 11.375 12Z" fill="#1677FF"/>
  <path d="M12.375 15C11.8227 15 11.375 15.4477 11.375 16C11.375 16.5523 11.8227 17 12.375 17H15.375C15.9273 17 16.375 16.5523 16.375 16C16.375 15.4477 15.9273 15 15.375 15H12.375Z" fill="#1677FF"/>
  <path fill-rule="evenodd" clip-rule="evenodd" d="M5.375 2C4.82272 2 4.375 2.44772 4.375 3V21C4.375 21.5523 4.82272 22 5.375 22H19.375C19.9273 22 20.375 21.5523 20.375 21V8C20.375 7.72367 20.2629 7.47352 20.0817 7.29253L15.0826 2.29342C14.8951 2.10589 14.6402 2 14.375 2H5.375ZM13.375 4H6.375V20H18.375V9H14.375C13.8227 9 13.375 8.55228 13.375 8V4ZM16.9608 7L15.375 5.41421V7H16.9608Z" fill="#1677FF"/>
</svg>
