<svg width="20" height="20" viewBox="0 0 20 20" fill="none" xmlns="http://www.w3.org/2000/svg">
<path d="M10 2.75C5.99594 2.75 2.75 5.99594 2.75 10C2.75 14.0041 5.99594 17.25 10 17.25C14.0041 17.25 17.25 14.0041 17.25 10C17.25 9.71439 17.2335 9.43264 17.2014 9.15565C17.1333 8.5685 17.5593 8 18.1504 8C18.666 8 19.1193 8.35807 19.1817 8.8699C19.2268 9.24029 19.25 9.61743 19.25 10C19.25 15.1086 15.1086 19.25 10 19.25C4.89137 19.25 0.75 15.1086 0.75 10C0.75 4.89137 4.89137 0.75 10 0.75C12.1731 0.75 14.1712 1.49939 15.75 2.75385V2.25C15.75 1.69772 16.1977 1.25 16.75 1.25C17.3023 1.25 17.75 1.69772 17.75 2.25V4.94829C17.7612 4.96549 17.7724 4.98272 17.7835 5H17.75V5.25C17.75 5.80228 17.3023 6.25 16.75 6.25H13.75C13.1977 6.25 12.75 5.80228 12.75 5.25C12.75 4.69772 13.1977 4.25 13.75 4.25H14.4165C13.1936 3.30932 11.6621 2.75 10 2.75Z" fill="black" fill-opacity="0.65"/>
</svg>
