<svg fill="none" xmlns="http://www.w3.org/2000/svg" viewBox="0 0 25 24" class="design-iconfont">
  <g clip-path="url(#wvywhrfly__clip0_3603_373078)" fill="#1677FF">
    <path d="M9.76791 5.33104C10.1374 4.92053 10.7697 4.88726 11.1802 5.25671C11.5907 5.62617 11.624 6.25846 11.2545 6.66897L10.9566 7.00001H14.7112C15.2635 7.00001 15.7112 7.44772 15.7112 8.00001C15.7112 8.55229 15.2635 9.00001 14.7112 9.00001H8.7112C8.31629 9.00001 7.95837 8.7676 7.7977 8.40685C7.63704 8.0461 7.70373 7.62458 7.96791 7.33104L9.76791 5.33104Z"/>
    <path fill-rule="evenodd" clip-rule="evenodd" d="M17.7112 2C18.8158 2 19.7112 2.89543 19.7112 4V15H22.7112C23.2635 15 23.7112 15.4477 23.7112 16V21C23.7112 21.5523 23.2635 22 22.7112 22H12.5804C12.2757 22 11.9633 21.9728 11.6514 21.9103C7.74636 21.128 5.31982 19.7509 2.29897 18.0367L2.298 18.0361C1.9714 17.8508 1.63786 17.6615 1.29475 17.4686C0.238334 16.8747 -0.182414 15.5512 0.365743 14.4549C0.837379 13.5116 1.89539 13.016 2.92197 13.2576L3.7112 13.4433V4C3.7112 2.89543 4.60663 2 5.7112 2H17.7112ZM19.7112 20V17H21.7112V20H19.7112ZM17.7112 20H12.5804C12.3939 20 12.214 19.9833 12.0443 19.9493C8.46579 19.2323 6.30256 18.0063 3.27172 16.2886C2.95012 16.1063 2.61874 15.9185 2.27487 15.7252C2.13638 15.6474 2.08972 15.479 2.1546 15.3493C2.21166 15.2351 2.33968 15.1752 2.46389 15.2044L9.98216 16.9734C10.0572 16.9911 10.1341 17 10.2112 17H13.2112C13.7289 17 14.161 16.6049 14.2072 16.0893C14.2534 15.5737 13.8985 15.108 13.389 15.0159C11.3096 14.6402 9.95088 14.2405 9.25847 13.7612C8.9445 13.5439 8.87399 13.382 8.85484 13.289C8.84342 13.2335 8.83782 13.141 8.87131 13H13.8715C14.7472 13 15.5793 13.3827 16.1492 14.0476L17.7112 15.8699V20ZM17.7112 4V12.7967L17.6677 12.746C16.7178 11.6378 15.3311 11 13.8715 11H8.2112C7.84785 11 7.51309 11.1971 7.3368 11.5148C6.95197 12.2083 6.74293 12.9488 6.89589 13.6921C6.93582 13.8861 6.9976 14.0669 7.0772 14.2353L5.7112 13.9139V4H17.7112Z"/>
  </g>
  <defs>
    <clipPath id="wvywhrfly__clip0_3603_373078">
      <path fill="#fff" transform="translate(.125)" d="M0 0H24V24H0z"/>
    </clipPath>
  </defs>
</svg>
