<svg width="20" height="20" viewBox="0 0 20 20" fill="none" xmlns="http://www.w3.org/2000/svg">
<g clip-path="url(#clip0_4744_298123)">
<path d="M5.41667 2.5C3.80584 2.5 2.5 3.80583 2.5 5.41667V6.9697C2.5 7.42993 2.8731 7.80303 3.33333 7.80303C3.79357 7.80303 4.16667 7.42993 4.16667 6.9697V5.41667C4.16667 4.72631 4.72631 4.16667 5.41667 4.16667H6.9697C7.42993 4.16667 7.80303 3.79357 7.80303 3.33333C7.80303 2.8731 7.42993 2.5 6.9697 2.5H5.41667ZM13.0303 2.5C12.5701 2.5 12.197 2.8731 12.197 3.33333C12.197 3.79357 12.5701 4.16667 13.0303 4.16667H14.5833C15.2737 4.16667 15.8333 4.72631 15.8333 5.41667V6.9697C15.8333 7.42993 16.2064 7.80303 16.6667 7.80303C17.1269 7.80303 17.5 7.42993 17.5 6.9697V5.41667C17.5 3.80584 16.1942 2.5 14.5833 2.5H13.0303ZM4.16667 13.0303C4.16667 12.5701 3.79357 12.197 3.33333 12.197C2.8731 12.197 2.5 12.5701 2.5 13.0303V14.5833C2.5 16.1942 3.80584 17.5 5.41667 17.5H6.9697C7.42993 17.5 7.80303 17.1269 7.80303 16.6667C7.80303 16.2064 7.42993 15.8333 6.9697 15.8333H5.41667C4.72631 15.8333 4.16667 15.2737 4.16667 14.5833V13.0303ZM17.5 13.0303C17.5 12.5701 17.1269 12.197 16.6667 12.197C16.2064 12.197 15.8333 12.5701 15.8333 13.0303V14.5833C15.8333 15.2737 15.2737 15.8333 14.5833 15.8333H13.0303C12.5701 15.8333 12.197 16.2064 12.197 16.6667C12.197 17.1269 12.5701 17.5 13.0303 17.5H14.5833C16.1942 17.5 17.5 16.1942 17.5 14.5833V13.0303ZM6.66667 9.16667C6.20643 9.16667 5.83333 9.53976 5.83333 10C5.83333 10.4602 6.20643 10.8333 6.66667 10.8333H13.3333C13.7936 10.8333 14.1667 10.4602 14.1667 10C14.1667 9.53976 13.7936 9.16667 13.3333 9.16667H6.66667Z" fill="black" fill-opacity="0.45"/>
</g>
<defs>
<clipPath id="clip0_4744_298123">
<rect width="20" height="20" fill="white"/>
</clipPath>
</defs>
</svg>
