<svg fill="none" xmlns="http://www.w3.org/2000/svg" viewBox="0 0 104 104" class="design-iconfont">
  <path d="M0 8C0 3.58172 3.58172 0 8 0H96C100.418 0 104 3.58172 104 8V96C104 100.418 100.418 104 96 104H8C3.58172 104 0 100.418 0 96V8Z" fill="#000" fill-opacity=".06"/>
  <path d="M58.7406 48.1475C60.3361 48.1475 61.6295 46.8541 61.6295 45.2586C61.6295 43.6631 60.3361 42.3697 58.7406 42.3697C57.1451 42.3697 55.8517 43.6631 55.8517 45.2586C55.8517 46.8541 57.1451 48.1475 58.7406 48.1475Z" fill="#000" fill-opacity=".45"/>
  <path fill-rule="evenodd" clip-rule="evenodd" d="M34.6665 41.7277C34.6665 37.8277 37.8281 34.666 41.7282 34.666H62.2714C66.1715 34.666 69.3332 37.8277 69.3332 41.7277V62.271C69.3332 66.171 66.1715 69.3327 62.2714 69.3327H41.7282C37.8281 69.3327 34.6665 66.171 34.6665 62.271V53.5715C34.6665 53.5714 34.6665 53.5716 34.6665 53.5715V41.7277ZM38.5184 54.4645V62.271C38.5184 64.0437 39.9555 65.4808 41.7282 65.4808H62.2714C63.8881 65.4808 65.2255 64.2857 65.4486 62.7308L62.5144 60.1812C61.9714 59.7093 61.2686 59.4214 60.5188 59.3778C59.7689 59.3341 59.0319 59.5382 58.4294 59.9469L57.9146 60.296C56.8821 60.9966 55.6356 61.3182 54.3938 61.2144C53.1517 61.1105 51.9759 60.5863 51.0771 59.7185L43.6847 52.5797C43.3239 52.2315 42.8267 52.0178 42.2905 52.0005C41.7543 51.9832 41.2408 52.1646 40.8539 52.491L38.5184 54.4645ZM65.4813 57.6564L65.0409 57.2737C63.8446 56.2341 62.3286 55.6248 60.7427 55.5324C59.157 55.4401 57.5796 55.869 56.2673 56.7591L55.7517 57.1088C55.4569 57.3089 55.0892 57.4072 54.7148 57.3759C54.3406 57.3446 54.0012 57.1875 53.7526 56.9475L46.36 49.8085C45.2991 48.7843 43.8876 48.1982 42.4148 48.1506C41.0066 48.1052 39.6218 48.5549 38.5184 49.4259V41.7277C38.5184 39.955 39.9555 38.5179 41.7282 38.5179H62.2714C64.0442 38.5179 65.4813 39.955 65.4813 41.7277V57.6564Z" fill="#000" fill-opacity=".45"/>
</svg>
