<svg fill="none" xmlns="http://www.w3.org/2000/svg" viewBox="0 0 25 24" class="design-iconfont">
  <path fill-rule="evenodd" clip-rule="evenodd" d="M18.625 2C18.8902 2 19.1446 2.10536 19.3321 2.29289L22.3321 5.2929L22.4287 5.40469L22.5003 5.51594L22.5313 5.5769L22.5651 5.65835L22.5891 5.73401L22.6181 5.88191L22.625 6V21C22.625 21.5523 22.1773 22 21.625 22H3.625C3.07271 22 2.625 21.5523 2.625 21L2.628 5.912L2.64524 5.79927L2.67474 5.68786L2.71867 5.57678L2.771 5.47929L2.83793 5.38298L2.91789 5.2929L5.91789 2.29289C6.10543 2.10536 6.35978 2 6.625 2H18.625ZM20.625 7H4.625V20H20.625V7ZM16.625 14C17.0216 14 17.3807 14.2343 17.5404 14.5973C17.7001 14.9603 17.6301 15.3834 17.3622 15.6757L14.6122 18.6757C14.239 19.0828 13.6064 19.1104 13.1993 18.7372C12.7922 18.364 12.7647 17.7314 13.1379 17.3243L14.3518 16H8.62502C8.07274 16 7.62502 15.5523 7.62502 15C7.62502 14.4477 8.07274 14 8.62502 14H16.625ZM12.0507 8.26285C12.4579 8.63604 12.4854 9.26861 12.1122 9.67573L10.8983 11H16.625C17.1773 11 17.625 11.4477 17.625 12C17.625 12.5523 17.1773 13 16.625 13H8.62502C8.22845 13 7.86935 12.7657 7.70967 12.4027C7.54999 12.0397 7.6199 11.6166 7.88787 11.3243L10.6379 8.32428C11.0111 7.91716 11.6436 7.88966 12.0507 8.26285ZM18.2108 4H7.03921L6.039 5H19.21L18.2108 4Z" fill="#1677FF"/>
</svg>
