<svg fill="none" xmlns="http://www.w3.org/2000/svg" viewBox="0 0 25 24" class="design-iconfont">
  <path fill-rule="evenodd" clip-rule="evenodd" d="M11.9895 4.75159C13.8414 2.89971 16.6035 2.51744 18.8314 3.59919C19.1224 3.74049 19.3271 4.01383 19.3807 4.33284C19.4344 4.65185 19.3304 4.97712 19.1017 5.20587L16.9021 7.4055C16.6564 7.65113 16.6564 8.04938 16.9021 8.29502C17.1477 8.54065 17.546 8.54065 17.7916 8.29502L19.992 6.0946C20.2207 5.86594 20.5458 5.76197 20.8647 5.81551C21.1836 5.86905 21.4569 6.07351 21.5984 6.3643C22.6823 8.59286 22.3007 11.3569 20.4478 13.2098C18.9253 14.7323 16.7873 15.2612 14.8381 14.8007L8.98156 20.6573C7.75617 21.8827 5.76943 21.8827 4.54404 20.6573C3.31865 19.4319 3.31865 17.4452 4.54404 16.2198L10.3994 10.3644C9.93759 8.41439 10.4662 6.27491 11.9895 4.75159ZM16.4715 5.00764C15.3696 4.93808 14.2448 5.32473 13.4038 6.16581C12.2823 7.28726 11.9684 8.91272 12.4678 10.3176C12.597 10.6812 12.5055 11.0868 12.2326 11.3596L5.95825 17.634C5.51392 18.0783 5.51392 18.7988 5.95825 19.2431C6.40259 19.6874 7.12301 19.6874 7.56735 19.2431L13.8427 12.9678C14.1154 12.6951 14.5206 12.6035 14.8841 12.7324C16.2885 13.2306 17.9127 12.9164 19.0335 11.7956C19.8757 10.9534 20.2623 9.8268 20.1914 8.72358L19.2058 9.70923C18.1791 10.7359 16.5145 10.7359 15.4879 9.70923C14.4612 8.68255 14.4612 7.01797 15.4879 5.99128L16.4715 5.00764Z" fill="#1677FF"/>
</svg>
