<svg fill="none" xmlns="http://www.w3.org/2000/svg" viewBox="0 0 24 24" class="design-iconfont">
  <path d="M6.44404 3.68478C6.96854 3.33436 7.52502 3.03436 8.10604 2.78878C9.50904 2.19578 10.21 1.89878 11.106 2.49278C12 3.08578 12 4.05678 12 5.99978V7.99978C12 9.88578 12 10.8278 12.586 11.4138C13.172 11.9998 14.114 11.9998 16 11.9998H18C19.942 11.9998 20.914 11.9998 21.507 12.8948C22.1 13.7898 21.804 14.4908 21.211 15.8948C20.3145 18.0139 18.7148 19.7591 16.6816 20.8362C14.6483 21.9133 12.3058 22.2565 10.049 21.8078C8.1091 21.422 6.32712 20.4697 4.92847 19.0711C3.52982 17.6726 2.57732 15.8907 2.19143 13.9508C1.80555 12.0108 2.00361 10.0001 2.76057 8.17272C3.51754 6.34538 4.7994 4.78356 6.44404 3.68478Z" stroke="#595959" stroke-width="1.5" stroke-linecap="round"/>
  <path fill-rule="evenodd" clip-rule="evenodd" d="M14.976 1.16844C15.0878 0.769589 15.5017 0.536853 15.9005 0.648611C17.7246 1.1597 19.3812 2.14369 20.7026 3.50095C22.024 4.85821 22.9633 6.54054 23.4254 8.37759C23.5264 8.77929 23.2827 9.18684 22.881 9.28788C22.4793 9.38893 22.0717 9.1452 21.9707 8.7435C21.5731 7.16278 20.7648 5.7152 19.6278 4.54732C18.4908 3.37945 17.0653 2.53276 15.4958 2.09298C15.097 1.98122 14.8642 1.56729 14.976 1.16844Z" fill="#595959"/>
</svg>
