<svg fill="none" xmlns="http://www.w3.org/2000/svg" viewBox="0 0 24 24" class="design-iconfont">
  <path d="M2 11.5C2 7.72876 2 5.84315 3.17157 4.67157C4.34315 3.5 6.22876 3.5 10 3.5H14C17.7712 3.5 19.6569 3.5 20.8284 4.67157C22 5.84315 22 7.72876 22 11.5V13.5C22 17.2712 22 19.1569 20.8284 20.3284C19.6569 21.5 17.7712 21.5 14 21.5H10C6.22876 21.5 4.34315 21.5 3.17157 20.3284C2 19.1569 2 17.2712 2 13.5V11.5Z" stroke="#595959" stroke-width="1.5" stroke-linecap="round"/>
  <path d="M9 14.5L11 16.5L16 11.5" stroke="#595959" stroke-width="1.5" stroke-linecap="round" stroke-linejoin="round"/>
  <path d="M7 3.5V2" stroke="#595959" stroke-width="1.5" stroke-linecap="round"/>
  <path d="M17 3.5V2" stroke="#595959" stroke-width="1.5" stroke-linecap="round"/>
  <path d="M2.5 8.5H21.5" stroke="#595959" stroke-width="1.5" stroke-linecap="round"/>
</svg>
