<svg fill="none" xmlns="http://www.w3.org/2000/svg" viewBox="0 0 24 24" class="design-iconfont">
  <path fill-rule="evenodd" clip-rule="evenodd" d="M7 1.25C7.41421 1.25 7.75 1.58579 7.75 2V2.76272C8.41203 2.74999 9.1414 2.74999 9.94357 2.75H9.94358H14.0564H14.0564C14.8586 2.74999 15.588 2.74999 16.25 2.76272V2C16.25 1.58579 16.5858 1.25 17 1.25C17.4142 1.25 17.75 1.58579 17.75 2V2.82709C18.0099 2.84691 18.2561 2.87182 18.489 2.90314C19.6614 3.06076 20.6104 3.39288 21.3588 4.14124C22.1071 4.88961 22.4392 5.83856 22.5969 7.01098C22.6282 7.2439 22.6531 7.49006 22.6729 7.75H1.32709C1.34691 7.49006 1.37182 7.2439 1.40314 7.01098C1.56076 5.83856 1.89288 4.88961 2.64124 4.14124C3.38961 3.39288 4.33856 3.06076 5.51098 2.90314C5.7439 2.87182 5.99006 2.84691 6.25 2.82709V2C6.25 1.58579 6.58579 1.25 7 1.25ZM1.26272 9.25H22.7373C22.75 9.91189 22.75 10.6411 22.75 11.4431V11.4435V11.4436V13.5564V13.5565C22.75 15.3942 22.75 16.8498 22.5969 17.989C22.4392 19.1614 22.1071 20.1104 21.3588 20.8588C20.6104 21.6071 19.6614 21.9392 18.489 22.0969C17.3498 22.25 15.8942 22.25 14.0565 22.25H14.0564H9.94359H9.94354C8.1058 22.25 6.65018 22.25 5.51098 22.0969C4.33856 21.9392 3.38961 21.6071 2.64124 20.8588C1.89288 20.1104 1.56076 19.1614 1.40314 17.989C1.24997 16.8498 1.24999 15.3942 1.25 13.5564V13.5564V13.5564V11.4436V11.4436V11.4435C1.24999 10.6414 1.24999 9.91201 1.26272 9.25Z" fill="#1677FF"/>
  <path fill-rule="evenodd" clip-rule="evenodd" d="M7.75 2C7.75 1.58579 7.41421 1.25 7 1.25C6.58579 1.25 6.25 1.58579 6.25 2V3.5C6.25 3.91421 6.58579 4.25 7 4.25C7.41421 4.25 7.75 3.91421 7.75 3.5V2ZM17.75 2C17.75 1.58579 17.4142 1.25 17 1.25C16.5858 1.25 16.25 1.58579 16.25 2V3.5C16.25 3.91421 16.5858 4.25 17 4.25C17.4142 4.25 17.75 3.91421 17.75 3.5V2Z" fill="#1677FF"/>
  <path d="M1.2627 9.25C1.27317 8.70545 1.29226 8.20647 1.32706 7.75H22.6729C22.7077 8.20647 22.7268 8.70545 22.7373 9.25H1.2627Z" fill="#E6F4FF"/>
  <path d="M9 14.5L11 16.5L16 11.5" stroke="#E6F4FF" stroke-width="1.5" stroke-linecap="round" stroke-linejoin="round"/>
</svg>
