<svg fill="none" xmlns="http://www.w3.org/2000/svg" viewBox="0 0 24 24" class="design-iconfont">
  <path d="M13 6.99982C13 6.44753 12.5523 5.99982 12 5.99982C11.4477 5.99982 11 6.44753 11 6.99982V11.9998C11 12.5521 11.4477 12.9998 12 12.9998H16C16.5523 12.9998 17 12.5521 17 11.9998C17 11.4475 16.5523 10.9998 16 10.9998H13V6.99982Z" fill="#1677FF"/>
  <path fill-rule="evenodd" clip-rule="evenodd" d="M22 12C22 6.47714 17.5229 2 12 2C6.47713 2 2 6.47714 2 12C2 17.5229 6.47712 22 12 22C17.5229 22 22 17.5229 22 12ZM4 12C4 7.58171 7.5817 4 12 4C16.4183 4 20 7.58171 20 12C20 16.4183 16.4183 20 12 20C7.58168 20 4 16.4183 4 12Z" fill="#1677FF"/>
</svg>
