<svg fill="none" xmlns="http://www.w3.org/2000/svg" viewBox="0 0 24 24" class="design-iconfont">
  <path fill-rule="evenodd" clip-rule="evenodd" d="M11 10C13.2091 10 15 8.20914 15 6C15 3.79086 13.2091 2 11 2C8.79086 2 7 3.79086 7 6C7 8.20914 8.79086 10 11 10ZM11 8C12.1046 8 13 7.10457 13 6C13 4.89543 12.1046 4 11 4C9.89543 4 9 4.89543 9 6C9 7.10457 9.89543 8 11 8Z" fill="#1677FF"/>
  <path d="M11 14C12.0454 14 13.0073 14.1474 13.8414 14.3933C14.4889 13.816 15.2739 13.3895 16.1411 13.1692C14.7507 12.4395 12.9574 12 11 12C6.582 12 3 14.2389 3 17C3 19.7611 3 22 11 22C11.8141 22 12.5453 21.9768 13.2021 21.9323C12.747 21.3631 12.4026 20.7016 12.2015 19.9804C11.8289 19.9932 11.429 20 11 20C9.07684 20 7.73914 19.8639 6.81388 19.6558C5.88702 19.4473 5.49854 19.1942 5.34191 19.0524C5.1066 18.8395 5 18.575 5 17C5 16.558 5.29234 15.8549 6.40326 15.1606C7.48591 14.4839 9.10595 14 11 14Z" fill="#1677FF"/>
  <path fill-rule="evenodd" clip-rule="evenodd" d="M22 18.5C22 20.9853 19.9853 23 17.5 23C15.0147 23 13 20.9853 13 18.5C13 16.0147 15.0147 14 17.5 14C19.9853 14 22 16.0147 22 18.5ZM17.5 16C17.7762 16 18 16.2239 18 16.5L18 18H20.5C20.7762 18 21 18.2239 21 18.5C21 18.7761 20.7762 19 20.5 19H17.5C17.3674 19 17.2402 18.9473 17.1465 18.8536C17.0527 18.7598 17 18.6326 17 18.5V16.5C17 16.2239 17.2239 16 17.5 16Z" fill="#1677FF"/>
</svg>
