<svg xmlns="http://www.w3.org/2000/svg" width="77" height="98" fill="none" xmlns:v="https://vecta.io/nano"><g filter="url(#A)"><rect x="1.5" y="8" width="72" height="87" rx="4" fill="url(#B)"/></g><rect x="9" y="14" width="57" height="73.5" rx="3" fill="url(#C)"/><path d="M18.441 34.34a2.25 2.25 0 0 1 2.25-2.25h33.618a2.25 2.25 0 1 1 0 4.5H20.691a2.25 2.25 0 0 1-2.25-2.25zm0 10.588a2.25 2.25 0 0 1 2.25-2.25H43.72a2.25 2.25 0 1 1 0 4.5H20.691a2.25 2.25 0 0 1-2.25-2.25zm2.25 8.338a2.25 2.25 0 1 0 0 4.5H35.25a2.25 2.25 0 1 0 0-4.5H20.691zM33.375.5c-2.278 0-4.125 1.847-4.125 4.125h-4.125C22.847 4.625 21 6.472 21 8.75v4.125C21 15.153 22.847 17 25.125 17h24.75C52.153 17 54 15.153 54 12.875V8.75c0-2.278-1.847-4.125-4.125-4.125H45.75C45.75 2.347 43.903.5 41.625.5h-8.25z" fill="#bae0ff"/><circle cx="37.5" cy="6.5" r="3" fill="#fff"/><defs><filter id="A" x=".5" y="7" width="76" height="91" filterUnits="userSpaceOnUse" color-interpolation-filters="sRGB"><feFlood flood-opacity="0" result="A"/><feColorMatrix in="SourceAlpha" values="0 0 0 0 0 0 0 0 0 0 0 0 0 0 0 0 0 0 127 0" result="B"/><feOffset dx="1" dy="1"/><feGaussianBlur stdDeviation="1"/><feComposite in2="B" operator="out"/><feColorMatrix values="0 0 0 0 0.623285 0 0 0 0 0.676337 0 0 0 0 0.748681 0 0 0 0.37 0"/><feBlend in2="A"/><feBlend in="SourceGraphic"/></filter><linearGradient id="B" x1="37.5" y1="8" x2="37.5" y2="95" gradientUnits="userSpaceOnUse"><stop stop-color="#d7dce2"/><stop offset="1" stop-color="#f2f4f5"/></linearGradient><linearGradient id="C" x1="27.208" y1="87.5" x2="27.208" y2="14" gradientUnits="userSpaceOnUse"><stop stop-color="#fff"/><stop offset="1" stop-color="#f6f7f8"/></linearGradient></defs></svg>