<svg xmlns="http://www.w3.org/2000/svg" width="24" height="18" fill="#000" xmlns:v="https://vecta.io/nano"><path fill-rule="evenodd" d="M0 3a3 3 0 0 1 3-3h13a3 3 0 0 1 3 3v2.195 2.309 3.464 2.309V15a3 3 0 0 1-3 3H3a3 3 0 0 1-3-3V3zm3-1a1 1 0 0 0-1 1v12a1 1 0 0 0 1 1h13a1 1 0 0 0 1-1V3a1 1 0 0 0-1-1H3z" fill-opacity=".45"/><path d="M4 5a1 1 0 0 1 1-1h2a1 1 0 1 1 0 2H5a1 1 0 0 1-1-1z" fill-opacity=".45"/><path fill-rule="evenodd" d="M21 4.041a1.5 1.5 0 0 1 2.25 1.299v7.794A1.5 1.5 0 0 1 21 14.433l-2-1.155v-2.309l2.25 1.299V6.206L19 7.505V5.195l2-1.155z" fill-opacity=".45"/></svg>