<svg xmlns="http://www.w3.org/2000/svg" width="24" height="24" fill="none" xmlns:v="https://vecta.io/nano"><g clip-path="url(#A)" fill="#000"><path d="M15.5 10a1.5 1.5 0 1 0 0-3 1.5 1.5 0 1 0 0 3z" fill-opacity=".45"/><path fill-rule="evenodd" d="M3 6.667A3.67 3.67 0 0 1 6.667 3h10.667A3.67 3.67 0 0 1 21 6.667v10.667A3.67 3.67 0 0 1 17.333 21H6.667A3.67 3.67 0 0 1 3 17.333v-4.517-6.15zm2 6.613v4.053C5 18.254 5.746 19 6.667 19h10.667c.839 0 1.534-.62 1.65-1.428l-1.524-1.324c-.282-.245-.647-.394-1.036-.417s-.772.083-1.085.296l-.267.181c-.536.364-1.183.531-1.828.477s-1.255-.326-1.722-.777l-3.838-3.707c-.187-.181-.445-.292-.724-.301s-.545.085-.746.255L5 13.28zm14 1.657l-.229-.199c-.621-.54-1.408-.856-2.232-.904s-1.642.175-2.324.637l-.268.182c-.153.104-.344.155-.538.139s-.371-.098-.5-.223l-3.838-3.707c-.551-.532-1.284-.836-2.048-.861-.731-.024-1.45.21-2.023.662V6.667C5 5.746 5.746 5 6.667 5h10.667C18.254 5 19 5.746 19 6.667v8.271z" fill-opacity=".45"/></g><defs><clipPath id="A"><path fill="#fff" d="M0 0h24v24H0z"/></clipPath></defs></svg>