<svg xmlns="http://www.w3.org/2000/svg" width="20" height="21" fill="none" xmlns:v="https://vecta.io/nano"><g clip-path="url(#A)"><path d="M10 6.553a1.46 1.46 0 0 1-1.458-1.458A1.46 1.46 0 0 1 10 3.637a1.46 1.46 0 0 1 1.458 1.458A1.46 1.46 0 0 1 10 6.553zm0 5a1.46 1.46 0 0 1-1.458-1.458A1.46 1.46 0 0 1 10 8.637a1.46 1.46 0 0 1 1.458 1.458A1.46 1.46 0 0 1 10 11.553zm-1.458 3.542A1.46 1.46 0 0 0 10 16.553a1.46 1.46 0 0 0 1.458-1.458A1.46 1.46 0 0 0 10 13.637a1.46 1.46 0 0 0-1.458 1.458z" fill="#000" fill-opacity=".45"/></g><defs><clipPath id="A"><path fill="#fff" transform="translate(0 .094)" d="M0 0h20v20H0z"/></clipPath></defs></svg>