<svg xmlns="http://www.w3.org/2000/svg" width="25" height="24" fill="none" xmlns:v="https://vecta.io/nano"><path d="M3.75 10c0-3.771 0-5.657 1.172-6.828S7.979 2 11.75 2h2c3.771 0 5.657 0 6.828 1.172S21.75 6.229 21.75 10v4c0 3.771 0 5.657-1.172 6.828S17.521 22 13.75 22h-2c-3.771 0-5.657 0-6.828-1.172S3.75 17.771 3.75 14v-4z" fill="#595959" stroke="#595959" stroke-width="1.5"/><path d="M12.943 18.995l.088.005a.75.75 0 0 0 .745-.663l.005-.087v-6.692l2.47 2.47a.75.75 0 0 0 .99.062l.071-.062a.75.75 0 0 0 .062-.99l-.062-.071-3.748-3.747a.75.75 0 0 0-.989-.063l-.071.062-3.752 3.747a.75.75 0 0 0 .989 1.124l.071-.062 2.47-2.466v6.688a.75.75 0 0 0 .662.745z" fill="#bae0ff"/><path d="M8.75 7h8" stroke="#bae0ff" stroke-width="1.5" stroke-linecap="round"/></svg>