<svg xmlns="http://www.w3.org/2000/svg" width="25" height="24" fill="none" xmlns:v="https://vecta.io/nano"><path d="M14.312 7.494l-.357-.659-.451.244.064.508.744-.093zm-4.124 0l.744.093.064-.508-.451-.244-.357.659zm-.599 4.789l.161.732.517-.114.066-.525-.744-.093zm5.321 0l-.744.093.066.525.517.114.161-.732zM15.21 5c0 .702-.443 1.395-1.255 1.835l.714 1.319C15.844 7.517 16.71 6.378 16.71 5h-1.5zm-2.96-2.25c1.791 0 2.96 1.148 2.96 2.25h1.5c0-2.212-2.153-3.75-4.46-3.75v1.5zM9.29 5c0-1.102 1.169-2.25 2.96-2.25v-1.5C9.944 1.25 7.79 2.788 7.79 5h1.5zm1.255 1.835C9.733 6.395 9.29 5.702 9.29 5h-1.5c0 1.378.866 2.517 2.041 3.154l.714-1.319zm-1.101.566l-.599 4.789 1.488.186.599-4.789-1.488-.186zm-.016 4.149c-1.65.364-3.107 1.045-4.166 1.965S3.5 15.636 3.5 17H5c0-.815.414-1.631 1.245-2.352s2.045-1.311 3.506-1.633l-.323-1.465zM3.5 17c0 1.308-.04 2.927 1.247 4.092.629.569 1.514.977 2.714 1.247s2.761.411 4.79.411v-1.5c-1.971 0-3.41-.139-4.46-.375s-1.665-.56-2.036-.896C5.04 19.334 5 18.454 5 17H3.5zm8.75 5.75c2.029 0 3.59-.141 4.79-.411s2.085-.678 2.714-1.247C21.04 19.927 21 18.308 21 17h-1.5c0 1.453-.04 2.334-.753 2.979-.371.336-.986.66-2.036.896s-2.489.375-4.46.375v1.5zM21 17c0-1.364-.7-2.563-1.762-3.485s-2.517-1.601-4.166-1.965l-.323 1.465c1.461.322 2.674.91 3.506 1.633S19.5 16.185 19.5 17H21zm-5.345-4.81l-.599-4.789-1.488.186.599 4.789 1.488-.186z" fill="#595959"/><path d="M8.25 18.758c1.04.14 2.35.217 4 .217s2.96-.076 4-.217" stroke="#595959" stroke-width="1.5" stroke-linecap="round"/></svg>