<svg xmlns="http://www.w3.org/2000/svg" width="33" height="32" fill="none" xmlns:v="https://vecta.io/nano"><path fill-rule="evenodd" d="M9.625 0h14a9 9 0 0 1 9 9v14a9 9 0 0 1-9 9h-14a9 9 0 0 1-9-9V9a9 9 0 0 1 9-9z" fill="#000" fill-opacity=".06"/><path d="M13.625 6h-5a2 2 0 0 0-2 2v5a2 2 0 0 0 2 2h5a2 2 0 0 0 2-2V8a2 2 0 0 0-2-2z" fill="url(#A)"/><path d="M13.625 17h-5a2 2 0 0 0-2 2v5a2 2 0 0 0 2 2h5a2 2 0 0 0 2-2v-5a2 2 0 0 0-2-2z" fill="url(#B)"/><path d="M24.625 6h-5a2 2 0 0 0-2 2v5a2 2 0 0 0 2 2h5a2 2 0 0 0 2-2V8a2 2 0 0 0-2-2z" fill="url(#C)"/><path d="M24.625 17h-5a2 2 0 0 0-2 2v5a2 2 0 0 0 2 2h5a2 2 0 0 0 2-2v-5a2 2 0 0 0-2-2z" fill="url(#D)"/><defs><linearGradient id="A" x1="456.625" y1="6" x2="456.625" y2="906" gradientUnits="userSpaceOnUse"><stop stop-color="#3e88fe"/><stop offset="1" stop-color="#176bfb"/></linearGradient><linearGradient id="B" x1="456.625" y1="17" x2="456.625" y2="917" gradientUnits="userSpaceOnUse"><stop stop-color="#23c343"/><stop offset="1" stop-color="#00b42a"/></linearGradient><linearGradient id="C" x1="467.625" y1="6" x2="467.625" y2="906" gradientUnits="userSpaceOnUse"><stop stop-color="#fc8884"/><stop offset="1" stop-color="#f84b4b"/></linearGradient><linearGradient id="D" x1="467.625" y1="17" x2="467.625" y2="917" gradientUnits="userSpaceOnUse"><stop stop-color="#f9cc45"/><stop offset="1" stop-color="#f7ba1e"/></linearGradient></defs></svg>