<?xml version="1.0" encoding="UTF-8"?>
<svg width="48px" height="48px" viewBox="0 0 48 48" version="1.1" xmlns="http://www.w3.org/2000/svg" xmlns:xlink="http://www.w3.org/1999/xlink">
    <title>Icons/48px/icon_scanQR</title>
    <g id="Icons/48px/icon_scanQR" stroke="none" stroke-width="1" fill="#176bfb" fill-rule="evenodd">
        <path d="M18,6 C20.209139,6 22,7.790861 22,10 L22,18 C22,20.209139 20.209139,22 18,22 L10,22 C7.790861,22 6,20.209139 6,18 L6,10 C6,7.790861 7.790861,6 10,6 L18,6 Z M18,10 L10,10 L10,18 L18,18 L18,10 Z M18,26 C20.209139,26 22,27.790861 22,30 L22,38 C22,40.209139 20.209139,42 18,42 L10,42 C7.790861,42 6,40.209139 6,38 L6,30 C6,27.790861 7.790861,26 10,26 L18,26 Z M18,30 L10,30 L10,38 L18,38 L18,30 Z M38,6 C40.209139,6 42,7.790861 42,10 L42,18 C42,20.209139 40.209139,22 38,22 L30,22 C27.790861,22 26,20.209139 26,18 L26,10 C26,7.790861 27.790861,6 30,6 L38,6 Z M38,10 L30,10 L30,18 L38,18 L38,10 Z M42,26 L42,42 L38,42 L38,26 L42,26 Z M30,26 L30,42 L26,42 L26,26 L30,26 Z" id="形状结合" fill="#176bfb" fill-rule="nonzero"></path>
    </g>
</svg>