<?xml version="1.0" encoding="UTF-8"?>
<svg width="42px" height="34px" viewBox="0 0 42 34" version="1.1" xmlns="http://www.w3.org/2000/svg" xmlns:xlink="http://www.w3.org/1999/xlink">
    <title>Data input/Selector/Select_Succeed</title>
    <defs>
        <path d="M0,0 L42,0 L42,18.6166888 C42,23.9658012 41.4430463,25.9055187 40.3972038,27.8610742 C39.3513612,29.8166298 37.8166298,31.3513612 35.8610742,32.3972038 C33.9055187,33.4430463 31.9658012,34 26.6166888,34 L0,34 L0,34 L0,0 Z" id="path-1"></path>
    </defs>
    <g id="Data-input/Selector/Select_Succeed" stroke="none" stroke-width="1" fill="none" fill-rule="evenodd">
        <mask id="mask-2" fill="white">
            <use xlink:href="#path-1"></use>
        </mask>
        <g id="蒙版"></g>
        <polygon id="路径" fill="#176BFB" mask="url(#mask-2)" points="42 2.4158453e-13 -2.89486568e-13 34 42 34"></polygon>
        <g id="编组" mask="url(#mask-2)">
            <g transform="translate(18.000000, 12.000000)" id="Icon/icon_succeed">
                <path d="M18.9595485,6.31878408 C19.3991466,6.77400121 19.3864848,7.49939225 18.9312677,7.93899032 L10.0294377,16.5353877 C9.76665651,16.7891525 9.41384377,16.8922083 9.07794828,16.8464218 C8.73795494,16.8975053 8.378598,16.7951843 8.11194512,16.5376807 L3.16648399,11.7619044 C2.71126687,11.3223063 2.69860512,10.5969153 3.13820319,10.1416981 C3.57780126,9.686481 4.3031923,9.67381925 4.75840943,10.1134173 L9.06919561,14.276204 L17.3393423,6.29050327 C17.7945594,5.8509052 18.5199505,5.86356695 18.9595485,6.31878408 Z" id="路径" fill="#FFFFFF"></path>
            </g>
        </g>
    </g>
</svg>