<svg width="44" height="44" xmlns="http://www.w3.org/2000/svg"><g fill="none" fill-rule="nonzero"><path d="M12 40h20a2 2 0 1 1 0 4H12a2 2 0 1 1 0-4zM21.857 0c10.415 0 18.857 8.443 18.857 18.857 0 10.415-8.442 18.857-18.857 18.857a18.857 18.857 0 1 1 0-37.714zm0 4a14.857 14.857 0 1 0 0 29.714c8.206 0 14.857-6.651 14.857-14.857C36.714 10.652 30.063 4 21.857 4z" fill="#181944"/><path d="M21.857 9.429a9.429 9.429 0 1 1 0 18.857 9.429 9.429 0 0 1 0-18.857zm0 4a5.429 5.429 0 1 0 0 10.857 5.429 5.429 0 0 0 0-10.857z" fill="#4966F5"/><path d="M20.286 3.143a1.571 1.571 0 1 0 0 3.143h3.143a1.571 1.571 0 0 0 0-3.143h-3.143z" fill="#181944"/></g></svg>