<svg width="164" height="156" viewBox="0 0 164 156" fill="none" xmlns="http://www.w3.org/2000/svg">
<path d="M82.1966 0C52.4542 0 27.9314 22.553 24.8784 51.5076C31.9693 46.3864 40.2421 42.9394 49.2042 41.4621C55.2117 29.25 67.7193 20.8788 82.1966 20.8788C102.484 20.8788 118.931 37.3258 118.931 57.6136C118.931 70.7121 112.037 82.2348 101.697 88.7348C97.8557 90.3106 95.1966 94.053 95.1966 98.3863C95.1966 104.197 99.9239 108.826 105.636 108.826C107.507 108.826 109.28 108.333 110.757 107.447C110.757 107.447 110.856 107.447 110.856 107.348L110.954 107.447C128.189 97.5 139.81 78.8864 139.81 57.5151C139.81 25.803 114.007 0 82.1966 0Z" fill="#3484C7"/>
<path d="M86.4315 48.0606C78.1587 43.4319 68.6057 40.7728 58.4618 40.7728C26.6512 40.7728 0.848145 66.5758 0.848145 98.3864C0.848145 130.197 26.6512 156 58.4618 156C66.636 156 74.4163 154.326 81.5072 151.174C81.7042 151.076 81.9012 150.977 82.0981 150.879C73.9239 147.235 66.833 141.72 61.2193 134.924C60.333 135.023 59.4466 135.023 58.5603 135.023C38.2724 135.023 21.8254 118.576 21.8254 98.2879C21.8254 78 38.2724 61.5531 58.5603 61.5531C65.3557 61.5531 71.6587 63.4243 77.0754 66.5758V66.4773C78.6512 67.3637 80.4239 67.8561 82.2951 67.8561C88.1057 67.8561 92.7345 63.1288 92.7345 57.4167C92.636 53.3788 90.0754 49.6364 86.4315 48.0606Z" fill="#3484C7"/>
<path d="M139.515 51.803C139.712 53.6742 139.81 55.6439 139.81 57.6136C139.81 64.803 138.53 71.6969 136.068 77.9999C140.007 83.8106 142.272 90.803 142.272 98.3863C142.272 118.674 125.825 135.121 105.538 135.121C85.2497 135.121 68.8027 118.674 68.8027 98.3863H68.7042C68.7042 92.5757 63.977 87.9469 58.2648 87.9469C52.4542 87.9469 47.8254 92.6742 47.8254 98.3863C47.8254 98.8787 47.8254 99.2727 47.9239 99.7651C48.4163 122.614 62.2042 142.212 81.9012 150.977C89.0906 154.227 97.0679 156 105.538 156C137.348 156 163.151 130.197 163.151 98.3863C163.25 79.2803 153.894 62.3409 139.515 51.803Z" fill="#3484C7"/>
<path d="M61.1209 135.023C60.2346 135.121 59.3482 135.121 58.4618 135.121C43.7876 135.121 31.1816 126.553 25.2725 114.144C30.6891 128.424 41.6209 139.947 55.5073 146.151C62.6967 149.401 70.674 151.174 79.1437 151.174C80.227 151.174 81.2118 151.174 82.2952 151.076C73.924 147.432 66.7346 141.917 61.1209 135.023Z" fill="#1C5AA9"/>
<path d="M136.166 78.1969C136.659 78.9848 137.151 79.6742 137.545 80.4621C144.833 93.1666 143.651 108.432 135.772 119.659C145.424 107.841 150.053 92.6742 148.575 77.5075C147.788 69.6287 145.424 61.8484 141.288 54.4621C140.795 53.5757 140.204 52.6893 139.712 51.803C140.598 60.8636 139.318 69.9242 136.166 78.1969Z" fill="#1C5AA9"/>
<path d="M49.4996 41.1667C49.8936 40.3789 50.2875 39.591 50.7799 38.8031C58.2648 26.1971 72.0527 19.7955 85.742 21.0758C70.6739 18.5152 55.2117 21.9622 42.8027 30.7274C36.3027 35.2577 30.689 41.1667 26.3557 48.4546C25.8633 49.341 25.2724 50.2274 24.8784 51.2122C32.2648 45.894 40.7345 42.5455 49.4996 41.1667Z" fill="#1C5AA9"/>
</svg>
