<svg width="44" height="44" xmlns="http://www.w3.org/2000/svg"><g fill="none" fill-rule="evenodd"><path d="M38.35 40c1.057 0 1.913.856 1.913 1.913v.174A1.913 1.913 0 0 1 38.35 44H4.176a1.913 1.913 0 0 1-1.913-1.913v-.174c0-1.057.857-1.913 1.913-1.913H38.35zM21.263 8c8.18 0 14.83 6.547 14.997 14.686l.003.314v11a2 2 0 0 1-3.994.15l-.006-.15V23c0-6.075-4.925-11-11-11-5.978 0-10.843 4.77-10.996 10.712l-.004.288v11a2 2 0 0 1-3.994.15L6.263 34V23c0-8.284 6.716-15 15-15zM4.766 11.493l1.352 1.352a1.913 1.913 0 0 1-2.705 2.706L2.06 14.198a1.913 1.913 0 1 1 2.706-2.705zm34.038 0a1.913 1.913 0 0 1 2.706 2.705l-1.353 1.353a1.913 1.913 0 0 1-2.705-2.706zM12.108 3.64l1.097 1.567a1.913 1.913 0 1 1-3.134 2.195L8.974 5.835a1.913 1.913 0 1 1 3.134-2.194zm18.963 0a1.913 1.913 0 0 1 3.134 2.194l-1.097 1.568a1.913 1.913 0 1 1-3.134-2.195zM21.307 0c1.056 0 1.913.856 1.913 1.913v1.913a1.913 1.913 0 0 1-3.826 0V1.913C19.394.856 20.25 0 21.307 0z" fill="#181944"/><path d="M15.263 24a2 2 0 0 1 2 2v8a2 2 0 1 1-4 0v-8a2 2 0 0 1 2-2z" fill="#4966F5"/></g></svg>