<svg width="19" height="10" viewBox="0 0 19 10" fill="none" xmlns="http://www.w3.org/2000/svg">
<path fill-rule="evenodd" clip-rule="evenodd" d="M5.23623 9.27414L3.53927 9.69968C2.0014 10.0721 0.411767 8.90693 0.413058 7.31634L0.361373 5.67278C0.257228 3.34002 4.23588 0.632798 9.48467 0.787595C14.4153 0.94265 18.7613 2.95386 18.7592 5.49879L18.8108 7.24839C18.8626 8.78591 17.4832 9.84742 16.0518 9.68952L14.3555 9.37278C13.0832 9.16174 12.1298 7.99608 12.2369 6.72353L12.0779 6.5646C11.813 6.40576 11.124 6.03518 9.5864 6.08945C7.94285 6.03776 7.30635 6.3564 7.09419 6.46261L6.98807 6.56873C7.09316 7.73507 6.45589 9.00806 5.23623 9.27414Z" fill="#EF444B"/>
</svg>
