<svg width="64" height="64" viewBox="0 0 64 64" fill="none" xmlns="http://www.w3.org/2000/svg">
<g clip-path="url(#clip0_11719_41938)">
<path fill-rule="evenodd" clip-rule="evenodd" d="M18 0H46C55.9411 0 64 8.05887 64 18V46C64 55.9411 55.9411 64 46 64H18C8.05887 64 0 55.9411 0 46V18C0 8.05887 8.05887 0 18 0Z" fill="url(#paint0_linear_11719_41938)"/>
<path fill-rule="evenodd" clip-rule="evenodd" d="M16 28C16.3978 28 16.7794 28.158 17.0607 28.4393C17.342 28.7206 17.5 29.1022 17.5 29.5V31.5C17.5 33.4042 17.8751 35.2897 18.6037 37.0489C19.3324 38.8081 20.4005 40.4066 21.747 41.753C23.0934 43.0995 24.6919 44.1676 26.4511 44.8963C28.2103 45.6249 30.0958 46 32 46C33.9042 46 35.7897 45.6249 37.5489 44.8963C39.3081 44.1676 40.9066 43.0995 42.253 41.753C43.5995 40.4066 44.6676 38.8081 45.3963 37.0489C46.1249 35.2897 46.5 33.4042 46.5 31.5V29.5C46.5 29.1022 46.658 28.7206 46.9393 28.4393C47.2206 28.158 47.6022 28 48 28C48.3978 28 48.7794 28.158 49.0607 28.4393C49.342 28.7206 49.5 29.1022 49.5 29.5V31.5C49.5001 35.8817 47.8565 40.104 44.8939 43.3324C41.9314 46.5608 37.8656 48.5604 33.5 48.936V53.5C33.5 53.8978 33.342 54.2794 33.0607 54.5607C32.7794 54.842 32.3978 55 32 55C31.6022 55 31.2206 54.842 30.9393 54.5607C30.658 54.2794 30.5 53.8978 30.5 53.5V48.936C26.1344 48.5604 22.0686 46.5608 19.1061 43.3324C16.1435 40.104 14.4999 35.8817 14.5 31.5V29.5C14.5 29.1022 14.658 28.7206 14.9393 28.4393C15.2206 28.158 15.6022 28 16 28Z" fill="white"/>
<g filter="url(#filter0_i_11719_41938)">
<path d="M32 14C28.95 14 26.0249 15.2116 23.8683 17.3683C21.7116 19.5249 20.5 22.45 20.5 25.5V31.5C20.4995 34.4202 21.61 37.2312 23.6061 39.3627C25.6022 41.4942 28.3344 42.7864 31.2484 42.9773C34.1624 43.1681 37.0398 42.2433 39.2969 40.3904C41.5539 38.5375 43.0216 35.8953 43.402 33H34C33.6022 33 33.2206 32.842 32.9393 32.5607C32.658 32.2794 32.5 31.8978 32.5 31.5C32.5 31.1022 32.658 30.7206 32.9393 30.4393C33.2206 30.158 33.6022 30 34 30H43.5V27H34C33.6022 27 33.2206 26.842 32.9393 26.5607C32.658 26.2794 32.5 25.8978 32.5 25.5C32.5 25.1022 32.658 24.7206 32.9393 24.4393C33.2206 24.158 33.6022 24 34 24H43.402C43.0377 21.2338 41.6802 18.6943 39.5826 16.8546C37.485 15.0149 34.7901 14.0004 32 14Z" fill="url(#paint1_linear_11719_41938)"/>
</g>
<path d="M32.5 31.5C32.5 32.328 33.172 33 34 33H43.402L43.5 30H34C33.6022 30 33.2206 30.158 32.9393 30.4393C32.658 30.7206 32.5 31.1022 32.5 31.5ZM32.5 25.5C32.5 26.328 33.172 27 34 27H43.5L43.402 24H34C33.6022 24 33.2206 24.158 32.9393 24.4393C32.658 24.7206 32.5 25.1022 32.5 25.5Z" fill="white"/>
</g>
<defs>
<filter id="filter0_i_11719_41938" x="20.5" y="14" width="23" height="29.002" filterUnits="userSpaceOnUse" color-interpolation-filters="sRGB">
<feFlood flood-opacity="0" result="BackgroundImageFix"/>
<feBlend mode="normal" in="SourceGraphic" in2="BackgroundImageFix" result="shape"/>
<feColorMatrix in="SourceAlpha" type="matrix" values="0 0 0 0 0 0 0 0 0 0 0 0 0 0 0 0 0 0 127 0" result="hardAlpha"/>
<feOffset/>
<feGaussianBlur stdDeviation="0.412912"/>
<feComposite in2="hardAlpha" operator="arithmetic" k2="-1" k3="1"/>
<feColorMatrix type="matrix" values="0 0 0 0 1 0 0 0 0 1 0 0 0 0 1 0 0 0 0.5 0"/>
<feBlend mode="normal" in2="shape" result="effect1_innerShadow_11719_41938"/>
</filter>
<linearGradient id="paint0_linear_11719_41938" x1="3200" y1="0" x2="3200" y2="6400" gradientUnits="userSpaceOnUse">
<stop stop-color="#23C343"/>
<stop offset="1" stop-color="#00B42A"/>
</linearGradient>
<linearGradient id="paint1_linear_11719_41938" x1="20.5" y1="14" x2="20.5" y2="43.0019" gradientUnits="userSpaceOnUse">
<stop stop-color="#AFF0B5"/>
<stop offset="1" stop-color="#7BE188"/>
</linearGradient>
<clipPath id="clip0_11719_41938">
<rect width="64" height="64" fill="white"/>
</clipPath>
</defs>
</svg>
