<svg width="16" height="16" viewBox="0 0 16 16" fill="none" xmlns="http://www.w3.org/2000/svg">
<g clip-path="url(#clip0_5169_32317)">
<path d="M3.32361 2.93445L3.93194 2.48986C4.50198 2.07325 5.2935 2.17543 5.78156 2.72862L6.75281 3.82949C7.17605 4.30921 7.26364 5.0101 6.96937 5.56228L6.1505 7.09887C6.45121 7.7544 6.90316 8.34791 7.50634 8.87942C8.10953 9.41092 8.77066 9.79821 9.48974 10.0413L10.7687 9.08169C11.2534 8.71796 11.9171 8.72892 12.4156 9.10889L13.5767 9.99408C14.1561 10.4358 14.349 11.2473 14.028 11.8927L13.684 12.5843C13.3415 13.2727 12.6688 13.7053 11.9179 13.7199C10.1453 13.7545 8.17314 12.7597 6.00157 10.7357C3.82684 8.70875 2.65012 6.76616 2.47141 4.90793C2.39622 4.12603 2.72041 3.37528 3.32361 2.93445Z" fill="#1677FF"/>
</g>
<defs>
<clipPath id="clip0_5169_32317">
<rect width="16" height="16" fill="white"/>
</clipPath>
</defs>
</svg>
