<svg width="20" height="20" viewBox="0 0 20 20" fill="none" xmlns="http://www.w3.org/2000/svg">
<path fill-rule="evenodd" clip-rule="evenodd" d="M3.75 4.375H11.875V15.625H3.75C3.05964 15.625 2.5 15.0653 2.5 14.375V5.625C2.5 4.93464 3.05964 4.375 3.75 4.375ZM6.25 13.125C6.25 13.8154 5.69036 14.375 5 14.375C4.30964 14.375 3.75 13.8154 3.75 13.125C3.75 12.4346 4.30964 11.875 5 11.875C5.69036 11.875 6.25 12.4346 6.25 13.125ZM8.125 13.125C8.125 13.4702 7.84518 13.75 7.5 13.75C7.15482 13.75 6.875 13.4702 6.875 13.125C6.875 12.7798 7.15482 12.5 7.5 12.5C7.84518 12.5 8.125 12.7798 8.125 13.125Z" fill="black" fill-opacity="0.65"/>
<path d="M16.25 15.625H12.5V10.3125H17.5V14.375C17.5 15.0653 16.9403 15.625 16.25 15.625Z" fill="black" fill-opacity="0.65"/>
<path d="M17.5 5.625V9.6875H12.5V4.375H16.25C16.9403 4.375 17.5 4.93464 17.5 5.625Z" fill="black" fill-opacity="0.65"/>
</svg>
