<svg width="163" height="156" viewBox="0 0 163 156" fill="none" xmlns="http://www.w3.org/2000/svg">
<path d="M81.3484 0C51.606 0 27.0833 22.553 24.0303 51.5076C31.1212 46.3864 39.3939 42.9394 48.356 41.4621C54.3636 29.25 66.8712 20.8788 81.3484 20.8788C101.636 20.8788 118.083 37.3258 118.083 57.6136C118.083 70.7121 111.189 82.2348 100.848 88.7348C97.0075 90.3106 94.3484 94.053 94.3484 98.3863C94.3484 104.197 99.0757 108.826 104.788 108.826C106.659 108.826 108.432 108.333 109.909 107.447C109.909 107.447 110.008 107.447 110.008 107.348L110.106 107.447C127.341 97.5 138.962 78.8864 138.962 57.5151C138.962 25.803 113.159 0 81.3484 0Z" fill="#8E9198"/>
<path d="M85.5833 48.0606C77.3106 43.4319 67.7576 40.7728 57.6136 40.7728C25.803 40.7728 0 66.5758 0 98.3864C0 130.197 25.803 156 57.6136 156C65.7879 156 73.5682 154.326 80.6591 151.174C80.856 151.076 81.053 150.977 81.25 150.879C73.0757 147.235 65.9848 141.72 60.3712 134.924C59.4848 135.023 58.5985 135.023 57.7121 135.023C37.4242 135.023 20.9773 118.576 20.9773 98.2879C20.9773 78 37.4242 61.5531 57.7121 61.5531C64.5076 61.5531 70.8106 63.4243 76.2273 66.5758V66.4773C77.803 67.3637 79.5757 67.8561 81.447 67.8561C87.2576 67.8561 91.8863 63.1288 91.8863 57.4167C91.7879 53.3788 89.2272 49.6364 85.5833 48.0606Z" fill="#8E9198"/>
<path d="M138.667 51.803C138.864 53.6742 138.962 55.6439 138.962 57.6136C138.962 64.803 137.682 71.6969 135.22 77.9999C139.159 83.8106 141.424 90.803 141.424 98.3863C141.424 118.674 124.977 135.121 104.689 135.121C84.4015 135.121 67.9546 118.674 67.9546 98.3863H67.8561C67.8561 92.5757 63.1288 87.9469 57.4167 87.9469C51.6061 87.9469 46.9773 92.6742 46.9773 98.3863C46.9773 98.8787 46.9773 99.2727 47.0758 99.7651C47.5682 122.614 61.3561 142.212 81.053 150.977C88.2424 154.227 96.2197 156 104.689 156C136.5 156 162.303 130.197 162.303 98.3863C162.402 79.2803 153.045 62.3409 138.667 51.803Z" fill="#8E9198"/>
<path d="M60.2728 135.023C59.3864 135.121 58.5001 135.121 57.6137 135.121C42.9395 135.121 30.3334 126.553 24.4243 114.144C29.841 128.424 40.7728 139.947 54.6592 146.151C61.8486 149.401 69.8258 151.174 78.2955 151.174C79.3789 151.174 80.3637 151.174 81.447 151.076C73.0758 147.432 65.8864 141.917 60.2728 135.023Z" fill="url(#paint0_linear_7580_123539)"/>
<path d="M135.318 78.1969C135.811 78.9848 136.303 79.6742 136.697 80.4621C143.985 93.1666 142.803 108.432 134.924 119.659C144.576 107.841 149.205 92.6742 147.727 77.5075C146.939 69.6287 144.576 61.8484 140.439 54.4621C139.947 53.5757 139.356 52.6893 138.864 51.803C139.75 60.8636 138.47 69.9242 135.318 78.1969Z" fill="url(#paint1_linear_7580_123539)"/>
<path d="M48.6515 41.1667C49.0454 40.3789 49.4394 39.591 49.9318 38.8031C57.4166 26.1971 71.2045 19.7955 84.8939 21.0758C69.8257 18.5152 54.3636 21.9622 41.9545 30.7274C35.4545 35.2577 29.8409 41.1667 25.5075 48.4546C25.0151 49.341 24.4242 50.2274 24.0303 51.2122C31.4166 45.894 39.8863 42.5455 48.6515 41.1667Z" fill="url(#paint2_linear_7580_123539)"/>
<defs>
<linearGradient id="paint0_linear_7580_123539" x1="52.9357" y1="114.144" x2="52.9357" y2="151.174" gradientUnits="userSpaceOnUse">
<stop stop-color="#8D939F"/>
<stop offset="1" stop-color="#72757C"/>
</linearGradient>
<linearGradient id="paint1_linear_7580_123539" x1="141.461" y1="51.803" x2="141.461" y2="119.659" gradientUnits="userSpaceOnUse">
<stop stop-color="#8D939F"/>
<stop offset="1" stop-color="#72757C"/>
</linearGradient>
<linearGradient id="paint2_linear_7580_123539" x1="54.4621" y1="20.2505" x2="54.4621" y2="51.2122" gradientUnits="userSpaceOnUse">
<stop stop-color="#8D939F"/>
<stop offset="1" stop-color="#72757C"/>
</linearGradient>
</defs>
</svg>
