<svg width="16" height="16" viewBox="0 0 16 16" fill="none" xmlns="http://www.w3.org/2000/svg">
<g clip-path="url(#clip0_5169_10465)">
<path d="M3.32373 2.93445L3.93206 2.48986C4.5021 2.07325 5.29363 2.17543 5.78168 2.72862L6.75293 3.82949C7.17617 4.30921 7.26377 5.0101 6.9695 5.56228L6.15062 7.09887C6.45133 7.7544 6.90328 8.34791 7.50646 8.87942C8.10965 9.41092 8.77078 9.79821 9.48986 10.0413L10.7688 9.08169C11.2536 8.71796 11.9172 8.72892 12.4157 9.10889L13.5769 9.99408C14.1563 10.4358 14.3492 11.2473 14.0281 11.8927L13.6841 12.5843C13.3416 13.2727 12.6689 13.7053 11.918 13.7199C10.1454 13.7545 8.17326 12.7597 6.00169 10.7357C3.82696 8.70875 2.65024 6.76616 2.47154 4.90793C2.39634 4.12603 2.72053 3.37528 3.32373 2.93445Z" fill="#91CAFF"/>
</g>
<defs>
<clipPath id="clip0_5169_10465">
<rect width="16" height="16" fill="white"/>
</clipPath>
</defs>
</svg>
