<svg width="64" height="64" xmlns="http://www.w3.org/2000/svg"><defs><linearGradient x1="50%" y1="93.026%" x2="50%" y2="50%" id="a"><stop stop-color="#54A8F8" offset="0%"/><stop stop-color="#208AEF" offset="100%"/></linearGradient><linearGradient x1="50%" y1="0%" x2="50%" y2="100%" id="b"><stop stop-color="#81C8FD" offset="0%"/><stop stop-color="#2C94F7" offset="100%"/></linearGradient></defs><g transform="translate(0 12)" fill="none" fill-rule="evenodd"><path d="m52.162 9.457 11.599 21.265a1.857 1.857 0 0 1-1.63 2.746H38.933a1.857 1.857 0 0 1-1.63-2.746L48.9 9.457a1.857 1.857 0 0 1 3.261 0z" fill="url(#a)" fill-rule="nonzero" transform="rotate(-90 50.532 19.968)"/><rect fill="url(#b)" fill-rule="nonzero" width="52" height="40" rx="1.857"/><path d="m30.878 18.21-7.762-3.87A1.857 1.857 0 0 0 20.43 16V24a1.857 1.857 0 0 0 2.686 1.662l7.762-3.871a2 2 0 0 0 0-3.58z" fill="#FFF"/></g></svg>