<svg width="44" height="44" xmlns="http://www.w3.org/2000/svg"><path d="M5 28.999a2 2 0 0 1 1.995 1.85L7 31V37h6a2 2 0 0 1 1.995 1.85L15 39a2 2 0 0 1-1.85 1.995L13 41H5a2 2 0 0 1-1.995-1.85L3 39v-8.001a2 2 0 0 1 2-2zm34 0a2 2 0 0 1 1.995 1.85L41 31V39a2 2 0 0 1-1.85 1.995L39 41h-8a2 2 0 0 1-.15-3.995L31 37h6v-6.001a2 2 0 0 1 1.85-1.995L39 29zM22 10.5a7 7 0 0 1 5.037 11.86A9.993 9.993 0 0 1 32 31a2 2 0 0 1-3.995.15L28 31a6 6 0 1 0-12 0 2 2 0 1 1-4 0 9.996 9.996 0 0 1 4.963-8.64A7 7 0 0 1 22 10.5zm0 4a3 3 0 1 0 0 6 3 3 0 0 0 0-6zM39 3a2 2 0 0 1 1.995 1.85L41 5v7.999a2 2 0 0 1-3.995.15l-.005-.15V7h-6a2 2 0 0 1-1.995-1.85L29 5a2 2 0 0 1 1.85-1.995L31 3h8zM13 3a2 2 0 0 1 .15 3.995L13 7H7v5.999a2 2 0 0 1-1.85 1.995l-.15.005a2 2 0 0 1-1.995-1.85L3 12.998V5a2 2 0 0 1 1.85-1.995L5 3h8z" fill="#FFF" fill-rule="nonzero"/></svg>