<?xml version="1.0" encoding="UTF-8"?>
<svg width="46px" height="40px" viewBox="0 0 46 40" version="1.1" xmlns="http://www.w3.org/2000/svg" xmlns:xlink="http://www.w3.org/1999/xlink">
    <title>Icon/Bg/img_tags 02</title>
    <g id="页面-1" stroke="none" stroke-width="1" fill="none" fill-rule="evenodd">
        <g id="家长-02-02-问卷详情" transform="translate(-64.000000, -458.000000)" fill="#176BFB">
            <g id="编组-2" transform="translate(32.000000, 434.000000)">
                <g id="Icon/Bg/img_tags-02" transform="translate(32.000000, 24.000000)">
                    <path d="M14,0 L34,0 C40.627417,0 46,5.372583 46,12 L46,36 C46,38.209139 44.209139,40 42,40 L14,40 C7.372583,40 2,34.627417 2,28 L2,12 C2,5.372583 7.372583,0 14,0 Z" id="矩形" opacity="0.200000003"></path>
                    <path d="M12,0 L30,0 C36.627417,0 42,5.372583 42,12 L42,36 C42,38.209139 40.209139,40 38,40 L12,40 C5.372583,40 0,34.627417 0,28 L0,12 C0,5.372583 5.372583,0 12,0 Z" id="矩形"></path>
                </g>
            </g>
        </g>
    </g>
</svg>