<svg width="96" height="96" xmlns="http://www.w3.org/2000/svg"><defs><linearGradient x1="50%" y1="0%" x2="50%" y2="100%" id="a"><stop stop-color="#93BEFF" offset="0%"/><stop stop-color="#176BFB" offset="100%"/></linearGradient><linearGradient x1="50%" y1="0%" x2="50%" y2="100%" id="b"><stop stop-color="#93BEFF" offset="0%"/><stop stop-color="#176BFB" offset="100%"/></linearGradient></defs><g fill="none" fill-rule="evenodd"><path d="M32 0h32c17.673 0 32 14.327 32 32v32c0 17.673-14.327 32-32 32H32C14.327 96 0 81.673 0 64V32C0 14.327 14.327 0 32 0z" fill="#EFF4FF"/><path d="M77.636 23.315c5.206 6.205 4.483 15.412-1.567 20.733l-.267.228-5.027 4.218 2.162 2.577a3.333 3.333 0 0 1-4.977 4.432l-.13-.147-2.162-2.577-21.452 18.002c-.62.52-1.407.796-2.212.779l-.22-.012-7.916-.69-5.255 4.41a8.288 8.288 0 0 1-11.308-.61l-.188-.204-.18-.207a8.282 8.282 0 0 1 .815-11.488l.206-.18 5.26-4.412.692-7.919c.064-.733.37-1.421.861-1.959l.153-.156.164-.148L46.54 29.984l-2.097-2.5a3.333 3.333 0 0 1 4.976-4.431l.13.146 2.098 2.5 5.028-4.218c6.295-5.282 15.68-4.46 20.961 1.834z" fill="url(#a)" fill-rule="nonzero"/><path d="M50.397 34.58 29.79 51.87l-.813 9.296-7.163 6.01-.139.127c-.75.74-.89 1.896-.4 2.738l.094.145.1.13.116.134.127.131a2.29 2.29 0 0 0 2.754.299l.151-.1.138-.107 7.158-6.008 9.29.81 20.607-17.293L50.397 34.58z" fill="#FFF"/><path d="M46.174 45.445a3.333 3.333 0 0 1 4.528 4.888l-.143.133-9.067 7.917a3.333 3.333 0 0 1-4.529-4.889l.144-.133 9.067-7.916z" fill="url(#b)" fill-rule="nonzero"/></g></svg>