<?xml version="1.0" encoding="UTF-8"?>
<svg width="48px" height="48px" viewBox="0 0 48 48" version="1.1" xmlns="http://www.w3.org/2000/svg" xmlns:xlink="http://www.w3.org/1999/xlink">
    <title>Icons/Punch/icon_drafts</title>
    <g id="Icons/Punch/icon_drafts" stroke="none" stroke-width="1" fill="none" fill-rule="evenodd">
        <path d="M41,29 L7,29 L7,41 L41,41 L41,29 Z M24,31 C25.3807119,31 26.5,32.1192881 26.5,33.5 C26.5,34.8807119 25.3807119,36 24,36 C22.6192881,36 21.5,34.8807119 21.5,33.5 C21.5,32.1192881 22.6192881,31 24,31 Z M38.533,7 L9.466,7 L7.26,25 L40.739,25 L38.533,7 Z M3.00007011,26.9658693 C3.00058716,26.9383374 3.00167161,26.9106982 3.00333388,26.8829634 L3.002,26.924 L3.00571691,26.8476368 C3.00950532,26.7973453 3.01515364,26.7475727 3.02259327,26.6983878 L5.71154313,4.75666801 C5.83448246,3.75370885 6.68621951,3 7.69668533,3 L40.3033147,3 C41.3137805,3 42.1655175,3.75370885 42.2884569,4.75666801 L44.9851422,26.756668 L44.9916846,26.8163914 L44.9851422,26.756668 C44.9941304,26.8299952 44.9990466,26.9027891 45.0000783,26.9748377 C44.9999444,26.9826076 45,26.9912973 45,27 L45,43 C45,44.1045695 44.1045695,45 43,45 L5,45 C3.8954305,45 3,44.1045695 3,43 L3.00007011,26.9658693 Z" id="形状结合" fill="#1D2129" fill-rule="nonzero"></path>
        <rect id="矩形" fill="#176BFB" fill-rule="nonzero" x="11" y="10" width="26" height="4" rx="2"></rect>
        <rect id="矩形" fill="#176BFB" fill-rule="nonzero" x="11" y="17" width="26" height="4" rx="2"></rect>
    </g>
</svg>