<svg width="40" height="40" viewBox="0 0 40 40" xmlns="http://www.w3.org/2000/svg"><path d="M26 0a2 2 0 0 1 2 2h1a8 8 0 0 1 8 8v22a8 8 0 0 1-8 8H11a8 8 0 0 1-8-8V10a8 8 0 0 1 8-8h1a2 2 0 1 1 4 0h8a2 2 0 0 1 2-2zM12 6.001L11 6a4 4 0 0 0-3.995 3.8L7 10v22a4 4 0 0 0 3.8 3.995L11 36h18a4 4 0 0 0 3.995-3.8L33 32V10a4 4 0 0 0-3.8-3.995L29 6h-1a2 2 0 0 1-4 .001L16 6a2 2 0 0 1-4 .001zM26 23a2 2 0 1 1 0 4H14a2 2 0 1 1 0-4h12zm0-8a2 2 0 1 1 0 4H14a2 2 0 1 1 0-4h12z" fill="#86909B" fill-rule="nonzero"/></svg>