<svg width="44" height="44" xmlns="http://www.w3.org/2000/svg"><g fill="none" fill-rule="evenodd"><path d="M0 0h44v44H0z"/><g fill-rule="nonzero"><path d="M35.9 9.509h-7.078l-1.058-3.173C27.114 4.302 25.242 3 23.127 3H12.224C10.11 3 8.238 4.302 7.587 6.336l-1.14 3.336C2.788 10.485.02 13.74.02 17.645v16.272c0 4.475 3.662 8.136 8.136 8.136H35.82c4.475 0 8.136-3.661 8.136-8.136V17.645c.082-4.475-3.58-8.136-8.054-8.136zM10.68 7.393c.244-.65.813-1.139 1.545-1.139h10.903c.732 0 1.302.407 1.546 1.14l.732 2.115H10.028l.65-2.116zm30.103 26.524a4.896 4.896 0 0 1-4.881 4.882H8.238a4.896 4.896 0 0 1-4.882-4.882V17.645a4.896 4.896 0 0 1 4.882-4.882H35.9a4.896 4.896 0 0 1 4.881 4.882v16.272z" fill="#181944"/><path d="M34.273 7.882h3.255c.895 0 1.627-.733 1.627-1.628 0-.895-.732-1.627-1.627-1.627h-3.255c-.895 0-1.627.732-1.627 1.627s.732 1.628 1.627 1.628z" fill="#181944"/><path d="M22.07 17.645c4.474 0 8.135 3.661 8.135 8.136s-3.661 8.136-8.136 8.136-8.136-3.661-8.136-8.136 3.661-8.136 8.136-8.136zm0 3.254a4.896 4.896 0 0 0-4.883 4.882 4.896 4.896 0 0 0 4.882 4.882 4.896 4.896 0 0 0 4.882-4.882 4.896 4.896 0 0 0-4.882-4.882z" fill="#4966F5"/></g></g></svg>