<svg width="200" height="140" viewBox="0 0 200 140" xmlns="http://www.w3.org/2000/svg"><g fill-rule="nonzero" fill="none"><path d="M30 115.5c0 7.456 31.564 13.5 70.5 13.5s70.5-6.044 70.5-13.5-31.564-13.5-70.5-13.5S30 108.044 30 115.5z" fill="#E5E6EA"/><path d="M100.55 12.186c8.378 0 15.97 3.35 21.506 8.78 5.544 5.438 9.024 12.963 9.159 21.288l.004.516v25.677H69.88V42.77c0-8.444 3.433-16.09 8.982-21.625a30.616 30.616 0 0 1 21.688-8.959z" stroke="#86909C" stroke-width="2.373"/><path d="M139.288 49.972c3.134 0 5.966 1.342 8.019 3.496 2.077 2.18 3.357 5.19 3.357 8.501v44.515c0 3.312-1.28 6.322-3.357 8.502-2.053 2.153-4.885 3.495-8.019 3.495H62.562c-3.134 0-5.966-1.342-8.018-3.495-2.077-2.18-3.358-5.19-3.358-8.502V61.97c0-3.311 1.28-6.322 3.358-8.501 2.052-2.154 4.884-3.496 8.018-3.496z" stroke="#86909C" stroke-width="2.373" fill="#DBDDE3"/><path d="M100.55 64.479c4.059 0 7.734 1.637 10.394 4.285a14.54 14.54 0 0 1 4.303 10.338c0 2.793-.794 5.44-2.199 7.697a14.687 14.687 0 0 1-6.585 5.694l-.289 7.591a4.82 4.82 0 0 1-1.404 3.418 5.11 5.11 0 0 1-3.442 1.51c-1.492-.003-2.812-.543-3.76-1.435a4.738 4.738 0 0 1-1.51-3.472v-7.063c-3.15-1.068-5.756-3.045-7.547-5.574a14.427 14.427 0 0 1-2.656-8.024c.002-4.188 1.63-7.917 4.27-10.606a14.543 14.543 0 0 1 10.424-4.36z" stroke="#86909C" stroke-width="2.373" fill="#DBDDE3"/><path d="M100.55 65.55c7.51 0 13.602 6.066 13.602 13.552 0 5.521-3.346 10.426-8.374 12.513l-.7.29v8.2c0 2.118-1.769 3.84-3.962 3.84-2.193 0-3.962-1.722-3.962-3.84v-7.852L96.364 92c-5.568-1.791-9.419-6.974-9.419-12.898 0-7.486 6.092-13.551 13.603-13.551z" fill="#FFF"/><path d="M100.55 74.99c1.127 0 2.149.451 2.888 1.183a3.987 3.987 0 0 1 0 5.684 4.093 4.093 0 0 1-2.889 1.183 4.093 4.093 0 0 1-2.889-1.183 3.987 3.987 0 0 1 0-5.684 4.093 4.093 0 0 1 2.89-1.184z" stroke="#86909C" stroke-width="2.373" fill="#DBDDE3"/><path d="M100.55 75.888c1.744 0 3.158 1.4 3.158 3.127 0 1.727-1.414 3.127-3.159 3.127-1.745 0-3.16-1.4-3.16-3.127 0-1.727 1.415-3.127 3.16-3.127z" fill="#DBDDE3"/></g></svg>