<svg width="140" height="104" xmlns="http://www.w3.org/2000/svg"><g fill="none" fill-rule="nonzero"><path d="M0 90.282c0 7.435 31.34 13.462 70 13.462s70-6.027 70-13.462-31.34-13.461-70-13.461S0 82.847 0 90.282z" fill="#181944" opacity=".1"/><path d="M97.984 0a8.693 8.693 0 0 1 7.172 3.784L126.538 35l-2.737-.002-1.442-2.179h.048L104.01 5.96a8.694 8.694 0 0 0-7.172-3.782H43.16a8.694 8.694 0 0 0-7.171 3.784L17.593 32.82h.048l-1.442 2.179h-2.737L34.844 3.782A8.695 8.695 0 0 1 42.016 0h55.97-.002z" fill="#9797AB"/><path d="M126.538 35v45.5c0 4.758-3.894 8.615-8.698 8.615H22.16c-4.804 0-8.698-3.857-8.698-8.615V35h15.221c4.804 0 8.699 3.857 8.699 8.615v4.308c-.001 2.254 1.753 4.128 4.023 4.297l.326.01h56.538c2.276.001 4.168-1.736 4.338-3.984l.011-.323v-4.308c0-4.758 3.895-8.615 8.699-8.615h15.221z" fill="#DBDDE3"/><path d="M28.683 35c4.804 0 8.699 3.857 8.699 8.615v4.308c-.001 2.254 1.753 4.128 4.023 4.297l.326.01h56.538c2.276.001 4.168-1.736 4.338-3.984l.011-.323v-4.308c0-4.758 3.895-8.615 8.699-8.615h15.221v46.667c0 4.758-3.894 8.615-8.698 8.615H22.16c-4.804 0-8.698-3.857-8.698-8.615V35h15.221z" fill="#9797AB"/><path d="M15.636 81.667c0 3.421 2.693 6.25 6.141 6.45l.383.011h95.68c3.455 0 6.31-2.667 6.513-6.082l.01-.38V37.155h-13.046c-3.455 0-6.31 2.667-6.513 6.082l-.011.38v4.387l-.017.4c-.244 3.23-2.864 5.783-6.128 5.97l-.379.012H41.65l-.404-.018c-3.261-.24-5.839-2.835-6.028-6.07l-.01-.374v-4.308c0-3.421-2.693-6.25-6.142-6.45l-.383-.011H15.636v44.513z" fill="#DBDDE3"/></g></svg>