<svg width="25" height="24" viewBox="0 0 25 24" fill="none" xmlns="http://www.w3.org/2000/svg">
<path fill-rule="evenodd" clip-rule="evenodd" d="M2.06134 4.15654C1.6778 4.17868 1.34171 4.41098 1.19766 4.7535C1.05362 5.09603 1.12731 5.48768 1.38703 5.75995L7.44451 12.1102L10.1349 20.3298C10.2503 20.6822 10.5662 20.9394 10.9467 20.9907C11.3272 21.042 11.7044 20.8783 11.9161 20.5699L22.9602 4.48545C23.168 4.18272 23.1802 3.79304 22.9916 3.47888C22.8029 3.16471 22.4459 2.97999 22.0693 3.00173L2.06134 4.15654ZM8.52202 10.4061L4.26949 5.94802L20.2003 5.02853L11.4068 17.8353L9.51802 12.0649L14.0014 9.57588C14.4778 9.31141 14.641 8.72566 14.366 8.26758C14.0909 7.8095 13.4818 7.65255 13.0054 7.91703L8.52202 10.4061Z" fill="#1677FF"/>
</svg>
