<svg width="25" height="24" viewBox="0 0 25 24" fill="none" xmlns="http://www.w3.org/2000/svg">
<path d="M16.8321 9.70711C17.2226 9.31658 17.2226 8.68342 16.8321 8.29289C16.4416 7.90237 15.8084 7.90237 15.4179 8.29289L11.125 12.5858L9.83211 11.2929C9.44158 10.9024 8.80842 10.9024 8.41789 11.2929C8.02737 11.6834 8.02737 12.3166 8.41789 12.7071L10.4179 14.7071C10.8084 15.0976 11.4416 15.0976 11.8321 14.7071L16.8321 9.70711Z" fill="#1677FF"/>
<path fill-rule="evenodd" clip-rule="evenodd" d="M21.8861 11.6306C21.8861 6.21136 21.7157 4.94422 20.3292 3.55667C18.9427 2.17031 17.6756 2 12.2556 2L11.8925 2.00028C6.77877 2.00837 5.53788 2.20179 4.1819 3.55592C2.79532 4.94344 2.625 6.2107 2.625 11.6306L2.62528 11.9938C2.63337 17.109 2.82684 18.3502 4.18164 19.7041C5.56823 21.0907 6.83564 21.2612 12.2556 21.2612C17.6765 21.2612 18.944 21.0907 20.3294 19.7034C21.7157 18.318 21.8861 17.0507 21.8861 11.6306ZM11.9145 4.00027H12.5968L12.9251 4.0011C17.1117 4.01582 18.1299 4.18581 18.9147 4.97064C19.7405 5.79706 19.8861 6.87952 19.8861 11.6306C19.8861 16.3815 19.7405 17.4644 18.9149 18.2895C18.09 19.1155 17.0067 19.2612 12.2556 19.2612C7.50439 19.2612 6.42148 19.1155 5.59563 18.2897C4.79074 17.4853 4.63251 16.4344 4.62527 11.9717V11.2894C4.6325 6.82663 4.79069 5.7761 5.59587 4.97038C6.40172 4.16563 7.45181 4.0075 11.9145 4.00027Z" fill="#1677FF"/>
</svg>
