<svg width="36" height="36" xmlns="http://www.w3.org/2000/svg"><path d="M27.604 32H8.397C6.522 31.998 5.002 30.428 5 28.49V10.793c.002-1.938 1.522-3.508 3.397-3.51h.371v1.362c.003 1.611 1.266 2.916 2.826 2.92 1.56-.003 2.823-1.309 2.826-2.92V7.282h7.16v1.362c.003 1.611 1.266 2.917 2.826 2.92 1.56-.003 2.823-1.309 2.826-2.92V7.282h.37c1.876.002 3.396 1.572 3.398 3.51V28.49c-.002 1.936-1.521 3.506-3.396 3.509zm-14.89-13.927a1.286 1.286 0 0 0-.93.397 1.394 1.394 0 0 0 0 1.923l4.187 4.324a1.285 1.285 0 0 0 1.553.238c.14-.067.267-.16.376-.272l6.164-6.367c.247-.255.386-.6.385-.962a1.372 1.372 0 0 0-.385-.96 1.286 1.286 0 0 0-1.861 0l-5.284 5.457-3.273-3.381a1.288 1.288 0 0 0-.932-.397zm11.693-8.066c-.832-.001-1.507-.698-1.508-1.557V4.557c.001-.86.676-1.556 1.508-1.557.832.001 1.506.698 1.507 1.557V8.45c0 .86-.675 1.556-1.507 1.557zm-12.813 0c-.832-.001-1.506-.698-1.507-1.557V4.557c.001-.86.675-1.556 1.507-1.557.832.001 1.506.698 1.507 1.557V8.45c0 .859-.675 1.555-1.507 1.557z" fill="#FFF" fill-rule="nonzero"/></svg>