<svg width="25" height="24" viewBox="0 0 25 24" fill="none" xmlns="http://www.w3.org/2000/svg">
<path d="M12.375 10C12.9273 10 13.375 10.4477 13.375 11V13H15.375C15.9273 13 16.375 13.4477 16.375 14C16.375 14.5523 15.9273 15 15.375 15H13.375V17C13.375 17.5523 12.9273 18 12.375 18C11.8227 18 11.375 17.5523 11.375 17V15H9.375C8.82272 15 8.375 14.5523 8.375 14C8.375 13.4477 8.82272 13 9.375 13H11.375V11C11.375 10.4477 11.8227 10 12.375 10Z" fill="#1677FF"/>
<path fill-rule="evenodd" clip-rule="evenodd" d="M5.375 2C4.82272 2 4.375 2.44772 4.375 3V21C4.375 21.5523 4.82272 22 5.375 22H19.375C19.9273 22 20.375 21.5523 20.375 21V8C20.375 7.72367 20.2629 7.47352 20.0817 7.29253L15.0821 2.29289C14.8946 2.10536 14.6402 2 14.375 2H5.375ZM13.375 4H6.375V20H18.375V9H14.375C13.8227 9 13.375 8.55228 13.375 8V4ZM16.9608 7L15.375 5.41421V7H16.9608Z" fill="#1677FF"/>
</svg>
