<svg width="25" height="24" viewBox="0 0 25 24" fill="none" xmlns="http://www.w3.org/2000/svg">
<path d="M13.875 6C13.875 5.44772 13.4273 5 12.875 5C12.3227 5 11.875 5.44772 11.875 6V12C11.875 12.5523 12.3227 13 12.875 13H16.875C17.4273 13 17.875 12.5523 17.875 12C17.875 11.4477 17.4273 11 16.875 11H13.875V6Z" fill="#1677FF"/>
<path fill-rule="evenodd" clip-rule="evenodd" d="M22.875 12C22.875 17.5228 18.3978 22 12.875 22C7.35215 22 2.875 17.5228 2.875 12C2.875 6.47715 7.35215 2 12.875 2C18.3978 2 22.875 6.47715 22.875 12ZM20.875 12C20.875 16.4183 17.2933 20 12.875 20C8.45672 20 4.875 16.4183 4.875 12C4.875 7.58172 8.45672 4 12.875 4C17.2933 4 20.875 7.58172 20.875 12Z" fill="#1677FF"/>
</svg>
