<svg xmlns="http://www.w3.org/2000/svg" width="188" height="188" xmlns:v="https://vecta.io/nano"><defs><linearGradient x1="50%" y1="0%" x2="50%" y2="100%" id="A"><stop stop-color="#fff" offset="0%"/><stop stop-color="#fff" offset="46.349%"/><stop stop-color="#fff" stop-opacity=".337" offset="57.634%"/><stop stop-color="#fff" offset="80.419%"/></linearGradient></defs><g fill-rule="evenodd"><path d="M44.063 0h99.874C168.274 0 188 19.727 188 44.063v99.874C188 168.274 168.273 188 143.937 188H44.063C19.727 188 0 168.273 0 143.937V44.063C0 19.727 19.727 0 44.063 0z" fill="#3b75ff"/><g fill-rule="nonzero"><path d="M126.104 83.106l.005.59v36.795h-7.094l-.001-32.28 7.065-5.925.025.82zm-64.186-.625l7.072 6.02v30.998h-7.094V83.695l.022-1.214zM94.002 51.59c15.108 0 27.778 10.434 31.198 24.488l-6.293 5.282a25.02 25.02 0 0 0-24.905-22.676c-13.104 0-23.854 10.077-24.924 22.904L62.77 76.22c3.369-14.126 16.073-24.63 31.231-24.63z" fill="url(#A)"/><path d="M123.407 83.897a12.42 12.42 0 0 1 17.498 1.452 12.415 12.415 0 0 1 2.928 7.474l.012.55v30.894c0 6.857-5.558 12.415-12.415 12.415a12.42 12.42 0 0 1-12.408-11.988l-.007-.427v-5.55h7.094v5.55a5.32 5.32 0 0 0 10.633.313l.009-.313V93.372a5.32 5.32 0 0 0-8.496-4.27l-.263.21L97.44 115.18a5.321 5.321 0 0 1-6.6.218l-.277-.218-30.55-25.87a5.32 5.32 0 0 0-8.75 3.749l-.01.312v30.895a5.32 5.32 0 0 0 10.633.313l.009-.313v-6.542h7.094v6.542c0 6.857-5.558 12.415-12.415 12.415a12.42 12.42 0 0 1-12.408-11.988l-.007-.427V93.372c0-6.857 5.558-12.415 12.415-12.415 2.754 0 5.425.916 7.595 2.595l.428.345 29.404 24.898 29.405-24.898z" fill="#fff"/></g></g></svg>