<svg xmlns="http://www.w3.org/2000/svg" fill="none" viewBox="0 0 109 108" xmlns:v="https://vecta.io/nano"><g filter="url(#C)"><path d="M53.455 7.674a3.22 3.22 0 0 1 2.09 0l35.88 12.334c1.244.428 2.075 1.567 2.075 2.844v35.145c0 18.11-10.693 27.574-27.705 35.861l-9.892 4.819c-.883.43-1.924.43-2.807 0l-9.892-4.819C26.193 85.572 15.5 76.108 15.5 57.998V22.852c0-1.277.831-2.416 2.075-2.844l35.88-12.334z" fill="url(#A)"/></g><path d="M53.492 16.86a3 3 0 0 1 2.017 0l27 9.635A3 3 0 0 1 84.5 29.32v27.65c0 14.461-8.225 22.018-21.312 28.636l-7.335 3.709a3 3 0 0 1-2.708 0l-7.335-3.709C32.725 78.989 24.5 71.432 24.5 56.971V29.32a3 3 0 0 1 1.992-2.825l27-9.635z" fill="url(#B)"/><g fill="#bae0ff"><path d="M54.5 51a2.25 2.25 0 0 1 2.25 2.25V57h1.5a2.25 2.25 0 1 1 0 4.5h-1.5v3h3a2.25 2.25 0 1 1 0 4.5h-3v2.25a2.25 2.25 0 1 1-4.5 0v-18A2.25 2.25 0 0 1 54.5 51z"/><path fill-rule="evenodd" d="M62.985 35.015c4.686 4.686 4.686 12.284 0 16.971s-12.284 4.686-16.971 0-4.686-12.284 0-16.971 12.284-4.686 16.971 0z"/></g><path d="M57.682 40.318a4.5 4.5 0 0 1-6.364 6.364 4.5 4.5 0 0 1 6.364-6.364z" fill="#fff"/><defs><linearGradient id="A" x1="54.5" y1="7.315" x2="54.5" y2="99.361" gradientUnits="userSpaceOnUse"><stop stop-color="#d7dce2"/><stop offset="1" stop-color="#f2f4f5"/></linearGradient><linearGradient id="B" x1="43.667" y1="90" x2="43.667" y2="16.5" gradientUnits="userSpaceOnUse"><stop stop-color="#fff"/><stop offset="1" stop-color="#f6f7f8"/></linearGradient><filter id="C" x="14.5" y="6.5" width="82" height="95.5" filterUnits="userSpaceOnUse" color-interpolation-filters="sRGB"><feFlood flood-opacity="0" result="A"/><feColorMatrix in="SourceAlpha" values="0 0 0 0 0 0 0 0 0 0 0 0 0 0 0 0 0 0 127 0" result="B"/><feOffset dx="1" dy="1"/><feGaussianBlur stdDeviation="1"/><feComposite in2="B" operator="out"/><feColorMatrix values="0 0 0 0 0.623285 0 0 0 0 0.676337 0 0 0 0 0.748681 0 0 0 0.37 0"/><feBlend in2="A"/><feBlend in="SourceGraphic"/></filter></defs></svg>