<svg xmlns="http://www.w3.org/2000/svg" fill="none" viewBox="0 0 109 108" xmlns:v="https://vecta.io/nano"><g filter="url(#C)"><rect x="18.5" y="10.5" width="72" height="87" rx="4" fill="url(#A)"/></g><rect x="26" y="18" width="57" height="73.5" rx="3" fill="url(#B)"/><g fill="#bae0ff"><path d="M35 30.75a2.25 2.25 0 0 1 2.25-2.25h33.618a2.25 2.25 0 1 1 0 4.5H37.25A2.25 2.25 0 0 1 35 30.75zm0 10.588a2.25 2.25 0 0 1 2.25-2.25h23.029a2.25 2.25 0 1 1 0 4.5H37.25a2.25 2.25 0 0 1-2.25-2.25zm2.25 8.338a2.25 2.25 0 1 0 0 4.5h14.559a2.25 2.25 0 1 0 0-4.5H37.25z"/><path fill-rule="evenodd" d="M50.113 58.613c-6.151 6.151-6.151 16.123 0 22.274 5.61 5.611 14.401 6.103 20.57 1.478l13.371 13.371a2.25 2.25 0 0 0 3.182-3.182L73.865 79.183c4.625-6.169 4.132-14.96-1.478-20.57-6.151-6.151-16.123-6.151-22.274 0zm3.182 19.092c-4.393-4.393-4.393-11.517 0-15.91s11.517-4.393 15.91 0 4.393 11.517 0 15.91-11.516 4.393-15.91 0z"/></g><defs><linearGradient id="A" x1="54.5" y1="10.5" x2="54.5" y2="97.5" gradientUnits="userSpaceOnUse"><stop stop-color="#d7dce2"/><stop offset="1" stop-color="#f2f4f5"/></linearGradient><linearGradient id="B" x1="44.208" y1="91.5" x2="44.208" y2="18" gradientUnits="userSpaceOnUse"><stop stop-color="#fff"/><stop offset="1" stop-color="#f6f7f8"/></linearGradient><filter id="C" x="17.5" y="9.5" width="76" height="91" filterUnits="userSpaceOnUse" color-interpolation-filters="sRGB"><feFlood flood-opacity="0" result="A"/><feColorMatrix in="SourceAlpha" values="0 0 0 0 0 0 0 0 0 0 0 0 0 0 0 0 0 0 127 0" result="B"/><feOffset dx="1" dy="1"/><feGaussianBlur stdDeviation="1"/><feComposite in2="B" operator="out"/><feColorMatrix values="0 0 0 0 0.623285 0 0 0 0 0.676337 0 0 0 0 0.748681 0 0 0 0.37 0"/><feBlend in2="A"/><feBlend in="SourceGraphic"/></filter></defs></svg>