<svg xmlns="http://www.w3.org/2000/svg" width="24" height="24" fill="none" xmlns:v="https://vecta.io/nano"><path d="M19.704 3.557c1.386 1.388 1.557 2.655 1.557 8.074s-.17 6.687-1.557 8.073-2.653 1.558-8.074 1.558-6.687-.171-8.074-1.557C2.202 18.35 2.008 17.109 2 11.994v-.363c0-5.42.17-6.687 1.557-8.075C4.913 2.202 6.154 2.008 11.268 2h.363c5.42 0 6.687.17 8.074 1.557zM11.972 4h-.682c-4.463.007-5.513.165-6.319.97S4.008 6.827 4 11.289v.682c.007 4.463.165 5.514.97 6.318.826.826 1.909.971 6.66.971s5.834-.146 6.659-.972.971-1.908.971-6.659-.146-5.834-.971-6.66c-.785-.785-1.803-.955-5.99-.97L11.972 4zm-.341 10.385c.688 0 1.246.558 1.246 1.246s-.558 1.246-1.246 1.246-1.246-.558-1.246-1.246.558-1.246 1.246-1.246zm-.01-8.754c.504-.002.999.129 1.436.378s.801.61 1.056 1.044.39.928.394 1.432-.125.999-.373 1.437-.607.803-1.04 1.059c-.318.188-.462.358-.462.399v1.25a1 1 0 1 1-2 0v-1.25c0-.926.58-1.609 1.445-2.121.132-.078.241-.189.317-.322s.115-.284.114-.437-.042-.304-.12-.436-.188-.242-.321-.318-.284-.116-.437-.115-.304.041-.436.118-.242.187-.319.32-.117.283-.117.436a1 1 0 0 1-2 0c0-.504.132-.998.384-1.435s.613-.799 1.048-1.052.93-.387 1.433-.388z" fill="#000" fill-opacity=".88"/></svg>