<svg xmlns="http://www.w3.org/2000/svg" width="20" height="20" fill="none" xmlns:v="https://vecta.io/nano"><path d="M10 0c5.523 0 10 4.477 10 10s-4.477 10-10 10S0 15.523 0 10C0 4.72 4.092.396 9.278.026c.111-.026.225-.033.34-.019A11.37 11.37 0 0 1 10 0zm.107 2.001l.047-.092c-.171.339-.342.699-.501 1.063a14.58 14.58 0 0 0-.35.871c-.255.706-.365 1.255-.324 1.451.084.398.954.622 1.573.312a.98.98 0 0 0 .37-.318c.125-.177.182-.359.19-.43a1 1 0 1 1 1.987.229c-.043.375-.196.862-.544 1.355-.277.393-.645.72-1.107.951-1.653.829-4.025.217-4.427-1.688-.142-.674.024-1.502.4-2.543.099-.272.211-.554.334-.843C4.43 3.289 2 6.361 2 10a8 8 0 1 0 16 0 8 8 0 0 0-7.893-7.999zm2.702 10.139a1 1 0 0 1-.177 1.403c-.741.575-1.663.894-2.632.894s-1.891-.319-2.632-.894a1 1 0 0 1 1.226-1.58c.392.304.883.474 1.406.474s1.014-.17 1.406-.474a1 1 0 0 1 1.403.177zM6 8.748c.692 0 1.252.561 1.252 1.252S6.692 11.252 6 11.252 4.748 10.692 4.748 10 5.308 8.748 6 8.748zm7.92 0c.692 0 1.252.561 1.252 1.252s-.561 1.252-1.252 1.252-1.252-.561-1.252-1.252.561-1.252 1.252-1.252z" fill="#000" fill-opacity=".88"/></svg>