<svg xmlns="http://www.w3.org/2000/svg" width="24" height="24" fill="none" xmlns:v="https://vecta.io/nano"><g clip-path="url(#A)" fill="#000"><path d="M17 4H7a1 1 0 0 0-1 1v14a1 1 0 0 0 1 1h4.415l-.352 1.407A2.11 2.11 0 0 0 11 22H7a3 3 0 0 1-3-3V5a3 3 0 0 1 3-3h10a3 3 0 0 1 3 3v6.079a3.27 3.27 0 0 0-1.607.884l-.393.393V5a1 1 0 0 0-1-1zm2.1 8.67l-5.903 5.902a2.68 2.68 0 0 0-.706 1.248l-.458 1.831a1.09 1.09 0 0 0 1.318 1.318l1.831-.458a2.69 2.69 0 0 0 1.248-.706l5.902-5.902c.893-.893.893-2.34 0-3.232s-2.34-.893-3.232 0z"/></g><defs><clipPath id="A"><path fill="#fff" d="M0 0h24v24H0z"/></clipPath></defs></svg>