<svg xmlns="http://www.w3.org/2000/svg" width="20" height="20" fill="none" xmlns:v="https://vecta.io/nano"><path fill-rule="evenodd" d="M10.833 12.441c2.827-.404 5-2.836 5-5.774 0-3.222-2.612-5.833-5.833-5.833S4.167 3.445 4.167 6.666c0 2.939 2.173 5.37 5 5.774v.892H5c-.46 0-.833.373-.833.833S4.54 15 5 15h4.167v3.333c0 .46.373.833.833.833s.833-.373.833-.833V15H15c.46 0 .833-.373.833-.833s-.373-.833-.833-.833h-4.167v-.892zM10 2.5a4.17 4.17 0 0 0-4.167 4.167A4.17 4.17 0 0 0 10 10.833a4.17 4.17 0 0 0 4.167-4.167A4.17 4.17 0 0 0 10 2.5z" fill="#ff4d4f"/></svg>