<svg xmlns="http://www.w3.org/2000/svg" width="24" height="24" fill="none" xmlns:v="https://vecta.io/nano"><path fill-rule="evenodd" d="M12 4a2 2 0 1 0 0 4 2 2 0 1 0 0-4zM8 6a4 4 0 1 1 8 0c0 1.864-1.275 3.43-3 3.874V11h3a3 3 0 0 1 3 3v.126c1.725.444 3 2.01 3 3.874a4 4 0 1 1-8 0c0-1.864 1.275-3.43 3-3.874V14a1 1 0 0 0-1-1H8a1 1 0 0 0-1 1v.126c1.725.444 3 2.01 3 3.874a4 4 0 1 1-8 0c0-1.864 1.275-3.43 3-3.874V14a3 3 0 0 1 3-3h3V9.874C9.275 9.43 8 7.864 8 6zM6 16a2 2 0 1 0 0 4 2 2 0 1 0 0-4zm12 0a2 2 0 1 0 0 4 2 2 0 1 0 0-4z" fill="#000" fill-opacity=".45"/></svg>