<svg xmlns="http://www.w3.org/2000/svg" fill="none" viewBox="0 0 109 108" xmlns:v="https://vecta.io/nano"><g filter="url(#C)"><path d="M51.601 19.905c1.064-2.54 4.733-2.54 5.798 0l31.363 74.856c.847 2.022-.669 4.239-2.899 4.239H23.137c-2.229 0-3.746-2.218-2.899-4.239l31.363-74.856z" fill="url(#A)"/></g><path d="M52.484 37.482c.74-1.975 3.293-1.975 4.033 0l21.818 58.222c.589 1.572-.466 3.297-2.016 3.297H32.682c-1.551 0-2.606-1.725-2.017-3.297l21.818-58.222z" fill="url(#B)"/><path d="M82.188 14.397c-.808-.944-.817-2.365.062-3.244s2.311-.882 3.129.054c10.84 12.405 10.84 30.987 0 43.393-.818.936-2.25.932-3.129.054s-.87-2.299-.062-3.244a28.52 28.52 0 0 0 0-37.013zM26.812 51.41c.808.944.817 2.365-.062 3.244s-2.311.882-3.129-.054c-10.84-12.405-10.84-30.987 0-43.393.818-.936 2.25-.932 3.129-.054s.87 2.299.062 3.244a28.52 28.52 0 0 0 0 37.013zm50.102-5.269c-.781.966-.792 2.384.086 3.263s2.313.884 3.112-.068c7.963-9.482 7.963-23.382 0-32.864-.799-.952-2.233-.947-3.112-.068s-.867 2.297-.086 3.263c6.228 7.703 6.228 18.771 0 26.474zM32.087 19.667c.781-.966.792-2.384-.086-3.263s-2.313-.884-3.112.068c-7.963 9.482-7.963 23.382 0 32.864.799.952 2.233.947 3.112.068s.867-2.297.086-3.263c-6.228-7.703-6.228-18.771 0-26.474zm39.528 21.182c-.724 1.01-.743 2.426.136 3.305s2.317.886 3.082-.094a18.17 18.17 0 0 0 0-22.312c-.765-.98-2.203-.973-3.082-.094s-.86 2.295-.136 3.305c3.394 4.736 3.394 11.154 0 15.89zm-34.229-15.89c.724-1.01.743-2.426-.136-3.305s-2.317-.886-3.082.094a18.17 18.17 0 0 0 0 22.312c.764.98 2.203.973 3.082.094s.86-2.295.136-3.305c-3.394-4.736-3.394-11.154 0-15.89zM54.5 87a7.5 7.5 0 1 0 0-15 7.5 7.5 0 1 0 0 15z" fill="#bae0ff"/><defs><linearGradient id="A" x1="54.5" y1="17.836" x2="54.5" y2="99.32" gradientUnits="userSpaceOnUse"><stop stop-color="#d7dce2"/><stop offset="1" stop-color="#f2f4f5"/></linearGradient><linearGradient id="B" x1="45.833" y1="99" x2="45.833" y2="36" gradientUnits="userSpaceOnUse"><stop stop-color="#fff"/><stop offset="1" stop-color="#f6f7f8"/></linearGradient><filter id="C" x="19" y="17" width="73" height="85" filterUnits="userSpaceOnUse" color-interpolation-filters="sRGB"><feFlood flood-opacity="0" result="A"/><feColorMatrix in="SourceAlpha" values="0 0 0 0 0 0 0 0 0 0 0 0 0 0 0 0 0 0 127 0" result="B"/><feOffset dx="1" dy="1"/><feGaussianBlur stdDeviation="1"/><feComposite in2="B" operator="out"/><feColorMatrix values="0 0 0 0 0.623285 0 0 0 0 0.676337 0 0 0 0 0.748681 0 0 0 0.37 0"/><feBlend in2="A"/><feBlend in="SourceGraphic"/></filter></defs></svg>