<svg xmlns="http://www.w3.org/2000/svg" fill="none" viewBox="0 0 109 108" xmlns:v="https://vecta.io/nano"><g filter="url(#C)"><path fill="url(#A)" d="M54.5 15a39 39 0 1 0 0 78 39 39 0 1 0 0-78z"/></g><path fill="url(#B)" d="M54.314 24a30 30 0 1 0 0 60 30 30 0 1 0 0-60z"/><g fill="#bae0ff"><path fill-rule="evenodd" d="M16.866 64.267c-3.933 3.353-7.065 6.482-9.097 9.188C6.684 74.9 5.827 76.333 5.371 77.7c-.452 1.355-.611 2.97.229 4.424.784 1.357 2.128 2.033 3.43 2.347s2.825.337 4.445.186c3.255-.303 7.44-1.365 12.215-3.009 9.586-3.3 21.999-9.102 34.998-16.607S84.919 49.688 92.57 43.036c3.811-3.313 6.824-6.407 8.713-9.074.941-1.328 1.682-2.659 2.061-3.943s.467-2.787-.317-4.144c-.843-1.46-2.328-2.13-3.733-2.413-1.418-.287-3.095-.259-4.9-.038-3.28.403-7.429 1.507-12.15 3.168a39.23 39.23 0 0 1 3.195 3.663c3.815-1.266 7.03-2.061 9.503-2.364 1.574-.193 2.712-.169 3.46-.018.462.093.654.207.72.257.009.073.011.258-.094.614-.183.619-.62 1.491-1.418 2.617-1.587 2.241-4.292 5.061-7.994 8.279-7.374 6.411-18.351 14.098-31.179 21.505s-24.973 13.069-34.213 16.25c-4.638 1.597-8.433 2.529-11.167 2.783-1.374.128-2.348.07-2.975-.081-.361-.087-.52-.181-.579-.225-.011-.082-.013-.303.135-.745.24-.718.781-1.708 1.727-2.967 1.539-2.049 3.927-4.522 7.067-7.294a38.62 38.62 0 0 1-1.567-4.597zm82.286-36.112l-.001-.001-.005-.005z"/><path d="M49.814 61.5a7.5 7.5 0 1 0 0 15 7.5 7.5 0 1 0 0-15z"/></g><defs><linearGradient id="A" x1="54.5" y1="14.842" x2="54.5" y2="93.308" gradientUnits="userSpaceOnUse"><stop stop-color="#d7dce2"/><stop offset="1" stop-color="#f2f4f5"/></linearGradient><linearGradient id="B" x1="43.48" y1="84" x2="43.48" y2="24" gradientUnits="userSpaceOnUse"><stop stop-color="#fff"/><stop offset="1" stop-color="#f6f7f8"/></linearGradient><filter id="C" x="14.5" y="14" width="82" height="82" filterUnits="userSpaceOnUse" color-interpolation-filters="sRGB"><feFlood flood-opacity="0" result="A"/><feColorMatrix in="SourceAlpha" values="0 0 0 0 0 0 0 0 0 0 0 0 0 0 0 0 0 0 127 0" result="B"/><feOffset dx="1" dy="1"/><feGaussianBlur stdDeviation="1"/><feComposite in2="B" operator="out"/><feColorMatrix values="0 0 0 0 0.623285 0 0 0 0 0.676337 0 0 0 0 0.748681 0 0 0 0.37 0"/><feBlend in2="A"/><feBlend in="SourceGraphic"/></filter></defs></svg>