<svg xmlns="http://www.w3.org/2000/svg" width="20" height="20" fill="none" xmlns:v="https://vecta.io/nano"><path fill-rule="evenodd" d="M10.833 3.333c0-.46.373-.833.833-.833h5c.46 0 .833.373.833.833v5c0 .46-.373.833-.833.833s-.833-.373-.833-.833V5.345l-3.661 3.661c.729.974 1.161 2.183 1.161 3.493 0 3.222-2.612 5.833-5.833 5.833S1.667 15.722 1.667 12.5 4.278 6.667 7.5 6.667c1.31 0 2.52.432 3.493 1.161l3.661-3.661h-2.988c-.46 0-.833-.373-.833-.833zm-3.333 5A4.17 4.17 0 0 0 3.333 12.5 4.17 4.17 0 0 0 7.5 16.667a4.17 4.17 0 0 0 4.167-4.167A4.17 4.17 0 0 0 7.5 8.333z" fill="#1677ff"/></svg>