<svg xmlns="http://www.w3.org/2000/svg" fill="none" viewBox="0 0 109 108" xmlns:v="https://vecta.io/nano"><g filter="url(#C)"><rect x="18.5" y="12" width="72" height="87" rx="4" fill="url(#A)"/></g><rect x="26" y="18" width="57" height="73.5" rx="3" fill="url(#B)"/><path d="M35.441 38.338a2.25 2.25 0 0 1 2.25-2.25h33.618a2.25 2.25 0 1 1 0 4.5H37.691a2.25 2.25 0 0 1-2.25-2.25zm0 10.588a2.25 2.25 0 0 1 2.25-2.25H60.72a2.25 2.25 0 1 1 0 4.5H37.691a2.25 2.25 0 0 1-2.25-2.25zm2.25 8.338a2.25 2.25 0 1 0 0 4.5H52.25a2.25 2.25 0 1 0 0-4.5H37.691zM50.375 4.5c-2.278 0-4.125 1.847-4.125 4.125h-4.125C39.847 8.625 38 10.472 38 12.75v4.125C38 19.153 39.847 21 42.125 21h24.75C69.153 21 71 19.153 71 16.875V12.75c0-2.278-1.847-4.125-4.125-4.125H62.75c0-2.278-1.847-4.125-4.125-4.125h-8.25z" fill="#bae0ff"/><path fill="#fff" d="M54.5 7.5a3 3 0 1 0 0 6 3 3 0 1 0 0-6z"/><defs><linearGradient id="A" x1="54.5" y1="12" x2="54.5" y2="99" gradientUnits="userSpaceOnUse"><stop stop-color="#d7dce2"/><stop offset="1" stop-color="#f2f4f5"/></linearGradient><linearGradient id="B" x1="44.208" y1="91.5" x2="44.208" y2="18" gradientUnits="userSpaceOnUse"><stop stop-color="#fff"/><stop offset="1" stop-color="#f6f7f8"/></linearGradient><filter id="C" x="17.5" y="11" width="76" height="91" filterUnits="userSpaceOnUse" color-interpolation-filters="sRGB"><feFlood flood-opacity="0" result="A"/><feColorMatrix in="SourceAlpha" values="0 0 0 0 0 0 0 0 0 0 0 0 0 0 0 0 0 0 127 0" result="B"/><feOffset dx="1" dy="1"/><feGaussianBlur stdDeviation="1"/><feComposite in2="B" operator="out"/><feColorMatrix values="0 0 0 0 0.623285 0 0 0 0 0.676337 0 0 0 0 0.748681 0 0 0 0.37 0"/><feBlend in2="A"/><feBlend in="SourceGraphic"/></filter></defs></svg>