<svg xmlns="http://www.w3.org/2000/svg" width="29" height="28" fill="none" xmlns:v="https://vecta.io/nano"><g filter="url(#A)"><path d="M2.5 13c0-6.627 5.373-12 12-12s12 5.373 12 12-5.373 12-12 12-12-5.373-12-12z" fill="#fff" shape-rendering="crispEdges"/><path d="M17.094 7.032c.932-.932 2.442-.932 3.374 0s.932 2.442 0 3.374l-.595.595L16.5 7.627l.594-.594zm-1.302 1.302L9.127 15a2.07 2.07 0 0 0-.55.984l-.73 3.068a.5.5 0 0 0 .602.602l3.068-.73a2.07 2.07 0 0 0 .985-.55l6.665-6.666-3.374-3.374z" fill="#000" fill-opacity=".65"/></g><defs><filter id="A" x=".5" y="0" width="28" height="28" filterUnits="userSpaceOnUse" color-interpolation-filters="sRGB"><feFlood flood-opacity="0" result="A"/><feColorMatrix in="SourceAlpha" values="0 0 0 0 0 0 0 0 0 0 0 0 0 0 0 0 0 0 127 0" result="B"/><feOffset dy="1"/><feGaussianBlur stdDeviation="1"/><feComposite in2="B" operator="out"/><feColorMatrix values="0 0 0 0 0 0 0 0 0 0 0 0 0 0 0 0 0 0 0.04 0"/><feBlend in2="A"/><feBlend in="SourceGraphic"/></filter></defs></svg>