<svg xmlns="http://www.w3.org/2000/svg" xmlns:xlink="http://www.w3.org/1999/xlink" width="552" height="410" xmlns:v="https://vecta.io/nano"><style><![CDATA[.B{fill:#fff}.C{fill-rule:nonzero}.D{fill:#e5e8fa}.E{opacity:.2}.F{mask:url(#R)}.G{fill:#316ddd}.H{fill:#d9def7}.I{mask:url(#V)}]]></style><defs><linearGradient x1="50%" y1="0%" x2="50%" y2="96.6106556%" id="A"><stop stop-color="#f7f8fc" offset="0%"/><stop stop-color="#eff2fb" offset="100%"/></linearGradient><linearGradient x1="50%" y1="0%" x2="50%" y2="100%" id="B"><stop stop-color="#61a7fb" offset="0%"/><stop stop-color="#0e56df" offset="100%"/></linearGradient><linearGradient x1="50%" y1="0%" x2="50%" y2="100%" id="C"><stop stop-color="#6fb0ff" offset="0%"/><stop stop-color="#318bf7" offset="100%"/></linearGradient><filter id="D"><feColorMatrix in="SourceGraphic" values="0 0 0 0 1.000000 0 0 0 0 1.000000 0 0 0 0 1.000000 0 0 0 1.000000 0"/></filter><path d="M17.214 0h266.825c9.507 0 17.214 7.707 17.214 17.214v323.848c0 9.507-7.707 17.214-17.214 17.214H17.214C7.707 358.277 0 350.569 0 341.062V17.214C0 7.707 7.707 0 17.214 0z" id="E"/><linearGradient x1="50%" y1="0%" x2="50%" y2="37.5673627%" id="F"><stop stop-color="#f1f3fc" offset="0%"/><stop stop-color="#fefeff" offset="100%"/></linearGradient><path d="M5.026 0h42.667a5.03 5.03 0 0 1 5.026 5.026v41.591a5.03 5.03 0 0 1-5.026 5.026H5.026A5.03 5.03 0 0 1 0 46.617V5.026A5.03 5.03 0 0 1 5.026 0z" id="G"/><filter id="H"><feColorMatrix in="SourceGraphic" values="0 0 0 0 0.600821 0 0 0 0 0.626489 0 0 0 0 0.753058 0 0 0 1.000000 0"/></filter><path d="M17.441 196.778c56.924.858 84.184 0 106.33 0 12.355 0 28.84-6.859 41.002-20.842 9.639-11.082-7.147-53.452-24.978-77.187-18.416-24.513-31.223-88.323-47.51-97.353C60.227-16.379-39.483 195.92 17.441 196.778z" id="I"/><linearGradient x1="50%" y1="0%" x2="50%" y2="100%" id="J"><stop stop-color="#57c465" offset="0%"/><stop stop-color="#33aa3d" offset="100%"/></linearGradient><path d="M14.726 119.473h91.206c10.597 0 24.303-4.165 33.614-12.654 7.156-6.728-9.632-32.453-24.929-46.863C99.639 45.072 88.649 6.331 77.412.848 56.086-9.944-34.004 118.951 14.726 119.473z" id="K"/><path id="L" d="M440.074 80.898v12.975c0 1.592-1.291 2.883-2.883 2.883s-2.883-1.291-2.883-2.883V80.898c0-1.592 1.291-2.883 2.883-2.883s2.883 1.291 2.883 2.883z"/><path id="M" d="M161.759 11.642a8.07 8.07 0 0 1 8.069 8.069v26.898a8.07 8.07 0 0 1-8.069 8.069 8.07 8.07 0 0 1-8.069-8.069V19.711a8.07 8.07 0 0 1 8.069-8.069z"/><path id="N" d="M201.917 136.64h42.667a5.03 5.03 0 0 1 5.026 5.026v41.591a5.03 5.03 0 0 1-5.026 5.026h-42.667a5.03 5.03 0 0 1-5.026-5.026v-41.591a5.03 5.03 0 0 1 5.026-5.026z"/><path id="O" d="M1.868 65.131h83.921c.594 0 1.076.482 1.076 1.076s-.482 1.076-1.076 1.076H1.868c-.594 0-1.076-.482-1.076-1.076s.482-1.076 1.076-1.076z"/><path id="P" d="M1.868.576h83.921c.594 0 1.076.482 1.076 1.076s-.482 1.076-1.076 1.076H1.868c-.594 0-1.076-.482-1.076-1.076S1.274.576 1.868.576z"/><path id="Q" d="M201.917 7.531h42.667a5.03 5.03 0 0 1 5.026 5.026v41.591a5.03 5.03 0 0 1-5.026 5.026h-42.667a5.03 5.03 0 0 1-5.026-5.026V12.558a5.03 5.03 0 0 1 5.026-5.026z"/></defs><g fill="none" fill-rule="evenodd"><g transform="matrix(-1 0 0 1 552 0)"><path d="M297.232 27.353c-47.343-11.845-86.608 13.807-145.097 33.822s-13.632 57.99-65.264 86.509-31.21 102.515-45.882 129.903C30.866 296.486 0 300.978 0 342.665c0 47.394 47.793 65.378 86.872 66.028 51.632.858 392-1.076 412.087-1.076s52.213-22.033 52.213-67.62-47.429-57.252-21.784-92.607 3.432-54.828-25.645-72.598-38.818-7.098-61.253-24.855-3.005-44.65-27.36-47.878-43.731 0-56.418-11.468-14.137-51.393-61.48-63.237z" fill="url(#A)"/><g transform="translate(15.565 .683)"><g transform="translate(34.98 121.158)"><path d="M15.182 1C-1.532 41.913-4.446 74.217 6.442 97.91s34.595 45.783 71.123 66.268c10.961-50.441 10.961-86.587 0-108.44S45.809 15.64 15.182 1z" fill="url(#B)"/><g opacity=".3" class="B C"><path d="M15.004.181a.84.84 0 0 1 .996.641c7.084 32.622 17.207 61.383 30.367 86.284l.65 1.222c13.542 25.301 24.05 50.505 31.524 75.612a.84.84 0 0 1-.564 1.042.84.84 0 0 1-1.042-.564c-7.279-24.453-17.452-49.004-30.52-73.656l-.875-1.644C31.987 63.794 21.595 34.48 14.364 1.178a.84.84 0 0 1 .641-.996z"/><path d="M12.645 54.575a.84.84 0 0 1 1.177.135c6.181 7.782 14.019 12.856 23.538 15.239a.84.84 0 0 1 .609 1.016.84.84 0 0 1-1.016.609c-9.878-2.473-18.034-7.752-24.443-15.822a.84.84 0 0 1 .135-1.177zm23.344-20.111a.84.84 0 0 1 .922.744c.896 8.397-.554 15.837-4.356 22.292a.84.84 0 0 1-1.147.297.84.84 0 0 1-.297-1.147c3.613-6.134 4.993-13.213 4.134-21.263a.84.84 0 0 1 .744-.922zm-6.886 51.801a.84.84 0 0 1 1.179-.117c3.428 2.81 8.773 3.763 16.069 2.797a.84.84 0 0 1 .94.721.84.84 0 0 1-.721.94c-7.713 1.021-13.508-.013-17.351-3.163a.84.84 0 0 1-.117-1.179zm23.443-28.324a.84.84 0 0 1 .998.639c3.852 17.573 3.232 30.692-1.931 39.361a.84.84 0 0 1-1.148.291.84.84 0 0 1-.291-1.148c4.902-8.232 5.504-20.948 1.734-38.145a.84.84 0 0 1 .639-.998zm-25.565 47.255a.84.84 0 0 1 1.173-.165l.866.644.876.632.441.312.889.614 5.003 3.126.924.517c8.329 4.577 16.961 7.037 23.298 5.178a.84.84 0 0 1 1.04.568.84.84 0 0 1-.568 1.04c-6.288 1.845-14.384-.129-22.36-4.139l-.938-.481a68.61 68.61 0 0 1-2.335-1.28l-.928-.542c-2.007-1.191-3.984-2.494-5.9-3.879l-.88-.645-.436-.327a.84.84 0 0 1-.165-1.173z"/></g><g transform="translate(17.214 131.185)"><path d="M29.159.945C15.405.519 4.367 2.397 1.82 13.435S20.027 30.88 21.819 33.285s2.678 10.529-9.097 16.525S-5.947 68.9 6.956 76.339s22.203 9.11 22.203 18.303-12.131 28.793 19.657 28.793h64.588L77.396 19.021C54.408 7.255 38.329 1.229 29.159.945z" fill="url(#C)"/><g opacity=".4" class="B C"><path d="M19.29 12.197a.71.71 0 0 1 .992.173l.467.667.916 1.324.448.657.878 1.303.852 1.289c9.094 13.892 13.72 25.331 13.859 34.348l.003.414-.006 4.779.005 4.237.012 2.242.027 2.557.042 2.372.033 1.373.035 1.191.055 1.597.059 1.487.061 1.331.068 1.303.036.641.078 1.262.086 1.235.093 1.207.1 1.179.108 1.151.115 1.123.123 1.094.064.536.135 1.051.142 1.023.15.994.159.965.167.936.175.906.091.442.188.862c.863 3.813 1.985 6.726 3.405 8.678.665.915 1.481 1.864 2.448 2.845l.542.538a44.37 44.37 0 0 0 2.132 1.936l.676.568.706.574.736.581.379.293.78.59.401.298.825.6.855.606.885.613.914.619.944.625.974.632 1.004.638 1.033.645 1.063.651 1.093.657 1.123.664 1.152.67 1.182.676 1.212.682 1.242.689 1.271.695 1.301.701 1.331.708 1.36.714.691.359a.71.71 0 0 1-.655 1.265l-1.391-.725-1.361-.719-.67-.357-1.317-.71-1.287-.704-1.257-.697-1.227-.691-1.197-.685-1.167-.679-1.137-.673-.557-.334-1.093-.664-1.063-.658-1.033-.651-1.003-.645-.49-.32-.958-.636-.928-.63-.453-.313-.884-.621-.854-.615-.824-.609-1.18-.902-.75-.594-1.069-.88-.675-.579c-2.091-1.824-3.733-3.557-4.929-5.202-1.855-2.552-3.211-6.498-4.165-11.769l-.169-.973-.312-2.033-.143-1.06-.135-1.089-.064-.555-.123-1.132-.115-1.16-.107-1.189-.099-1.217-.091-1.246-.043-.633-.08-1.288-.073-1.316-.066-1.344-.058-1.372-.051-1.352-.023-.667-.05-1.699-.051-2.293-.035-2.422-.024-3.204-.007-3.026.006-6.553c0-5.575-1.84-12.198-5.525-19.861l-.539-1.102c-1.471-2.957-3.209-6.065-5.216-9.323l-.765-1.229-.392-.62-.803-1.25-.828-1.264-.853-1.278-.878-1.292-.449-.651-.916-1.313a.71.71 0 0 1 .173-.992z"/><path d="M34.829 16.68a.71.71 0 0 1 .705-.617.71.71 0 0 1 .707.615l.007.097-.003.224-.011.297-.034.576-.017.226c-.081 1.026-.227 2.182-.453 3.448a43.02 43.02 0 0 1-3.616 11.112.712.712 0 0 1-1.282-.619 41.62 41.62 0 0 0 3.497-10.744 34.11 34.11 0 0 0 .436-3.309l.033-.482.012-.217.016-.509.006-.096zM13.808 61.784c10.519 1.28 18.37 5.084 23.513 11.424a.712.712 0 0 1-1.106.897c-4.891-6.029-12.404-9.669-22.579-10.908a.71.71 0 0 1-.621-.793.71.71 0 0 1 .696-.626l.097.005z"/></g></g></g><g transform="translate(346 158)"><g transform="translate(.507 13.151)"><path d="M149.259 1.044C101.96-.087 64.877 20.405 38.01 62.52S-1.096 139.519 1.293 167.172c59.995-21.721 98.182-44.594 114.561-68.617s27.514-56.527 33.406-97.511z" fill="url(#B)"/><g filter="url(#D)" class="B C E"><path d="M148.769.416c.322-.271.803-.229 1.074.094s.229.803-.094 1.074c-6.198 5.204-12.062 10.403-17.594 15.598l-1.832 1.731c-22.74 21.639-39.698 43.195-50.878 64.663l-.444.859c-14.224 27.691-40.075 55.47-77.547 83.349-.338.251-.815.181-1.067-.157s-.181-.815.157-1.067c36.927-27.474 62.482-54.812 76.675-81.999l.427-.824c13.326-25.944 34.998-51.974 65.009-78.096l2.013-1.742 4.1-3.484z"/><path d="M95.046 25.37c.137-.398.571-.609.969-.472s.609.571.472.969c-3.123 9.047-3.562 19.694-1.306 31.948.076.414-.198.812-.612.888s-.812-.198-.888-.612c-2.301-12.497-1.851-23.407 1.364-32.722z"/><path d="M69.794 49.794c.181-.38.635-.542 1.016-.362s.542.635.362 1.016c-6.651 14.006-7.587 30.47-2.786 49.419.103.408-.144.823-.552.926s-.823-.144-.926-.552c-4.883-19.274-3.927-36.098 2.887-50.447z"/><path d="M135.482 25.029c.326-.266.806-.218 1.073.109s.218.806-.109 1.073c-5.002 4.082-11.203 5.467-18.542 4.165-.415-.074-.691-.469-.617-.884s.469-.691.884-.617c6.919 1.227 12.67-.057 17.312-3.845z"/><path d="M113.554 64.927c.337-.253.814-.185 1.067.151s.185.814-.151 1.067c-9.764 7.338-19.632 9.845-29.554 7.478-.41-.098-.662-.509-.565-.918s.509-.662.918-.565c9.454 2.256 18.865-.135 28.284-7.214z"/></g></g><path d="M183.883 1.318c-10.273 3.987-16.439 9.009-18.497 15.064s-2.311 12.874-.757 20.455c9.453-2.826 15.399-7.205 17.836-13.135s2.91-13.392 1.418-22.383z" fill="url(#C)"/><g class="B C E"><path d="M183.639 1.025a.38.38 0 1 1 .487.587c-5.196 4.309-8.352 8.872-9.481 13.688l-.612 2.581-.36 1.465-.264 1.03-.259.966-.269.958-.071.245c-1.958 6.766-4.369 11.525-7.934 14.581a.38.38 0 1 1-.496-.579c3.325-2.851 5.638-7.307 7.527-13.634l.241-.823.267-.951.322-1.207.266-1.05.368-1.51.532-2.247c1.171-4.994 4.421-9.694 9.737-14.101z"/><path d="M172.436 11.215a.38.38 0 0 1 .272.466c-.897 3.413-.71 6.389.551 8.945a.381.381 0 0 1-.684.337c-1.347-2.731-1.546-5.895-.604-9.476a.38.38 0 0 1 .389-.284l.076.012zm7.985-.874a.381.381 0 0 1 .652.394c-1.508 2.494-3.808 4.905-6.899 7.235a.381.381 0 1 1-.459-.609c3.018-2.275 5.253-4.617 6.706-7.021zm-4.384 14.113a.381.381 0 0 1 .61.457c-1.147 1.529-2.859 2.304-5.098 2.325a.381.381 0 1 1-.007-.762c2.013-.019 3.498-.692 4.495-2.02z"/></g></g><ellipse fill="#e6e9f1" cx="256.712" cy="387.029" rx="149.551" ry="5.917"/><g transform="translate(18.026 .434)"><g transform="translate(86.984 27.781)"><mask id="R" class="B"><use xlink:href="#E"/></mask><use fill="#fbfcff" xlink:href="#E"/><path fill="url(#F)" d="M0 52.277h301.254v306H0z" class="F"/><path fill="#314edd" d="M0 12.911h301.254v39.809H0z" class="F"/><path d="M0 0h301.254v46.264H0z" class="F G"/><g fill="#314edd" class="F"><circle cx="74.775" cy="23.132" r="11.297"/><circle cx="224.326" cy="23.132" r="11.297"/></g></g><circle fill="#9bd1fd" cx="83.81" cy="7.371" r="6.488"/><circle fill="#e8e3f9" cx="467.015" cy="122.374" r="6.488"/><path d="M430.703 84.502h12.975c1.592 0 2.883 1.291 2.883 2.883s-1.291 2.883-2.883 2.883h-12.975c-1.592 0-2.883-1.291-2.883-2.883s1.291-2.883 2.883-2.883z" fill="#e096da"/><path d="M3.794 84.502H16.77c1.592 0 2.883 1.291 2.883 2.883s-1.291 2.883-2.883 2.883H3.794c-1.592 0-2.883-1.291-2.883-2.883s1.291-2.883 2.883-2.883z" fill="#ede9fc"/><use xlink:href="#L" fill="#e096da"/><use xlink:href="#L" x="-426.908" fill="#ede9fc"/><g fill="#ffcb57"><use xlink:href="#M"/><use xlink:href="#M" x="149.551"/></g><g transform="translate(112.806 171.952)"><g class="D"><use xlink:href="#N"/><use xlink:href="#N" x="-65.63"/></g><g transform="translate(65.63 136.64)"><mask id="S" class="B"><use xlink:href="#G"/></mask><use xlink:href="#G" class="D"/><g mask="url(#S)" class="H"><g transform="matrix(.707107 -.707107 .707107 .707107 -26.264675 29.978994)"><use xlink:href="#O"/><use xlink:href="#O" y="-5.38"/><use xlink:href="#O" y="-10.76"/><use xlink:href="#O" y="-16.139"/><use xlink:href="#O" y="-21.519"/><use xlink:href="#O" y="-26.898"/><use xlink:href="#O" y="-32.278"/><use xlink:href="#O" y="-37.657"/><use xlink:href="#O" y="-43.037"/><use xlink:href="#O" y="-48.416"/><use xlink:href="#O" y="-53.796"/><use xlink:href="#O" y="-59.175"/><use xlink:href="#P"/></g></g></g><path d="M5.026 136.64h42.667a5.03 5.03 0 0 1 5.026 5.026v41.591a5.03 5.03 0 0 1-5.026 5.026H5.026A5.03 5.03 0 0 1 0 183.257v-41.591a5.03 5.03 0 0 1 5.026-5.026zm196.891-64.554h42.667a5.03 5.03 0 0 1 5.026 5.026v41.591a5.03 5.03 0 0 1-5.026 5.026h-42.667a5.03 5.03 0 0 1-5.026-5.026V77.112a5.03 5.03 0 0 1 5.026-5.026z" class="D"/><g transform="translate(131.26 72.086)"><mask id="T" class="B"><use xlink:href="#J" href="#G"/></mask><use xlink:href="#J" class="D" href="#G"/><g mask="url(#T)" class="H"><g transform="matrix(.707107 -.707107 .707107 .707107 -24.112863 27.827182)"><use xlink:href="#O"/><use xlink:href="#O" y="-5.38"/><use xlink:href="#O" y="-10.76"/><use xlink:href="#O" y="-16.139"/><use xlink:href="#O" y="-21.519"/><use xlink:href="#O" y="-26.898"/><use xlink:href="#O" y="-32.278"/><use xlink:href="#O" y="-37.657"/><use xlink:href="#O" y="-43.037"/><use xlink:href="#O" y="-48.416"/><use xlink:href="#O" y="-53.796"/><use xlink:href="#O" y="-59.175"/><use xlink:href="#P"/></g></g></g><path d="M70.657 72.086h42.667a5.03 5.03 0 0 1 5.026 5.026v41.591a5.03 5.03 0 0 1-5.026 5.026H70.657a5.03 5.03 0 0 1-5.026-5.026V77.112a5.03 5.03 0 0 1 5.026-5.026z" fill="#fc933e"/><g class="D"><path d="M5.026 72.086h42.667a5.03 5.03 0 0 1 5.026 5.026v41.591a5.03 5.03 0 0 1-5.026 5.026H5.026A5.03 5.03 0 0 1 0 118.703V77.112a5.03 5.03 0 0 1 5.026-5.026z"/><use xlink:href="#Q"/><use xlink:href="#Q" x="-65.63"/></g><g transform="translate(138.792)" filter="url(#H)" class="C G"><path d="M13.396 25.223l5.824 5.719 5.825-5.719a1.59 1.59 0 0 1 2.119-.09l.1.09a1.52 1.52 0 0 1 .092 2.081l-.092.098-5.825 5.718 5.825 5.719a1.52 1.52 0 0 1 0 2.179 1.59 1.59 0 0 1-2.219 0l-5.825-5.719-5.824 5.719a1.59 1.59 0 0 1-2.119.09l-.1-.09a1.52 1.52 0 0 1-.092-2.081l.092-.098 5.824-5.719-5.824-5.718a1.52 1.52 0 0 1 0-2.179 1.59 1.59 0 0 1 2.219 0z"/></g><path d="M70.657 7.531h42.667a5.03 5.03 0 0 1 5.026 5.026v41.591a5.03 5.03 0 0 1-5.026 5.026H70.657a5.03 5.03 0 0 1-5.026-5.026V12.558a5.03 5.03 0 0 1 5.026-5.026z" class="D"/><g transform="translate(0 7.531)"><mask id="U" class="B"><use xlink:href="#L" href="#G"/></mask><use xlink:href="#L" class="D" href="#G"/><g mask="url(#U)" class="H"><g transform="matrix(.707107 -.707107 .707107 .707107 -31.99756 36.733717)"><use xlink:href="#O"/><use xlink:href="#O" y="-5.38"/><use xlink:href="#O" y="-10.76"/><use xlink:href="#O" y="-16.139"/><use xlink:href="#O" y="-21.519"/><use xlink:href="#O" y="-26.898"/><use xlink:href="#O" y="-32.278"/><use xlink:href="#O" y="-37.657"/><use xlink:href="#O" y="-43.037"/><use xlink:href="#O" y="-48.416"/><use xlink:href="#O" y="-53.796"/><use xlink:href="#O" y="-59.175"/><use xlink:href="#P"/></g></g></g></g><path d="M173.809 149.562h128.644a3.68 3.68 0 0 1 3.678 3.678 3.68 3.68 0 0 1-3.678 3.678H173.809a3.68 3.68 0 0 1-3.678-3.678 3.68 3.68 0 0 1 3.678-3.678z" fill="#7d829a" opacity=".136"/></g><g transform="translate(356.545 210.063)"><mask id="V" class="B"><use xlink:href="#I"/></mask><path d="M86.276 21.928c-40.121 43.684-59.136 82.164-57.046 115.44s9.98 63.95 23.668 92.021c44.241-33.218 67.759-67.893 70.552-104.023s-9.598-70.61-37.174-103.439z" fill="url(#J)" class="I"/><g class="B C E I"><path d="M86.259 21.09a.84.84 0 0 1 .854.821c.675 33.886-1.179 65.987-5.561 96.304l-.126.863-.263 1.724-.276 1.723-.143.861-.296 1.724-.31 1.727-.324 1.732-.513 2.61-.361 1.75-.186.879-.384 1.766-.198.888-.407 1.786-.209.899-.431 1.81-.447 1.827-.464 1.846-.48 1.867-.497 1.89-.255.954-.524 1.927-.268.973-.55 1.967-.568 1.996-.587 2.027-.605 2.059-.624 2.093-.644 2.129-.663 2.166-.683 2.205-1.375 4.367-5.231 16.348-.845 2.674-.957 3.071-.862 2.823-.633 2.119-.592 2.026-.422 1.477-.208.742-.402 1.457-.383 1.423-.363 1.389-.344 1.356-.48 1.975-.296 1.278-.276 1.248-.257 1.218-.238 1.19c-.913 4.703-1.366 8.738-1.366 12.326a.84.84 0 0 1-.838.838.84.84 0 0 1-.838-.838c0-2.768.259-5.778.779-9.127l.183-1.129.311-1.743.232-1.195.384-1.846.28-1.267.147-.645.309-1.312.162-.668.339-1.359.177-.692.368-1.408.388-1.441.201-.733.551-1.966.273-.955.719-2.457.781-2.598 1.04-3.376.969-3.088 6.311-19.759.7-2.237.68-2.196.333-1.083.651-2.139.631-2.102.612-2.068.594-2.034.29-1.005.566-1.988.548-1.959.53-1.931.513-1.905.25-.943.487-1.87.47-1.848.453-1.828.437-1.809.212-.898.413-1.784.397-1.77.382-1.757.366-1.745.351-1.736.337-1.728.163-.861.315-1.719.447-2.571.281-1.712.522-3.425c4.369-30.224 6.217-62.234 5.544-96.031a.84.84 0 0 1 .821-.855z"/><path d="M65.786 77.221a.84.84 0 0 1 1.004.63c2.42 10.567 7.609 20.023 15.579 28.38a.84.84 0 0 1-.028 1.184.84.84 0 0 1-1.184-.028c-8.174-8.572-13.511-18.297-15.999-29.162a.84.84 0 0 1 .63-1.004zm29.78-21.811a.84.84 0 0 1 1.126-.368.84.84 0 0 1 .368 1.126c-2.614 5.153-6.436 8.387-11.432 9.648a.84.84 0 0 1-1.017-.607.84.84 0 0 1 .607-1.017c4.509-1.138 7.946-4.046 10.348-8.782zm-3.874 91.007a.84.84 0 0 1 1.185 0 .84.84 0 0 1 0 1.185c-5.048 5.051-11.72 8.021-19.984 8.914a.84.84 0 0 1-.923-.743.84.84 0 0 1 .743-.923c7.898-.853 14.213-3.665 18.979-8.433zm12.324-57.373a.84.84 0 0 1 .99-.65.84.84 0 0 1 .65.99c-4.537 21.856-13.48 35.817-26.867 41.791a.84.84 0 0 1-1.106-.424.84.84 0 0 1 .424-1.106c12.822-5.722 21.471-19.225 25.909-40.602zm-51.054 29.077a.84.84 0 0 1 .771.899c-1.781 23.237 2.53 41.57 12.904 55.036a.84.84 0 0 1-.152 1.175.84.84 0 0 1-1.175-.152c-10.651-13.825-15.057-32.565-13.247-56.186a.84.84 0 0 1 .794-.773l.105.002z"/></g><g class="I"><g transform="translate(72.512 109.429)"><path d="M58.437 1C39.446 9.628 29.951 18.965 29.951 29.011c0 15.068 7.827 26.989-3.262 34.372S-3.078 85.658.433 114.736s47.863 5.264 58.005-.838-6.15-30.486 7.434-38.53 24.244-21.925 5.151-36.862C58.294 28.548 54.099 16.046 58.437 1z" fill="#00af78"/><g transform="translate(17.196)" class="B C E"><path d="M41.855.43a.84.84 0 0 1-.044 1.184l-.961.899-.937.891-.459.442-.901.878-.877.869-.429.431-.841.857-.411.425-.805.844-.393.419-.769.831-.745.822-.363.408-.709.809-.685.801-.661.792-.637.783-.613.775-.589.766-.565.757-.541.749-.517.74-.493.731L26 19.769l-.422.705c-2.867 4.906-3.98 9.169-3.353 12.776l.271 1.524.495 2.649.715 3.785.387 2.137.173.995.234 1.408.139.888.127.851.114.817.102.786.089.758.078.733.034.359.06.703.049.686.02.338.033.667.012.33.017.655.005.326c.051 4.99-.967 8.663-3.386 11.085-4.735 4.74-10.188 11.554-14.147 18.584-5.669 10.068-7.61 19.296-4.624 26.929l6.214 15.816.291.733a.84.84 0 0 1-.47 1.088.84.84 0 0 1-1.088-.47L2.44 113.843l-.778-1.989c-3.207-8.199-1.167-17.899 4.724-28.362 3.907-6.939 9.219-13.644 13.936-18.456l.486-.491c1.527-1.529 2.42-3.502 2.764-6.253l.06-.542.046-.562.033-.583a30.18 30.18 0 0 0 .01-2.209l-.026-.682-.039-.705-.052-.729-.064-.754-.037-.386-.083-.792-.095-.817-.107-.844-.119-.871-.13-.898-.142-.926-.153-.955-.165-.984-.268-1.532-.293-1.6-1.067-5.67-.26-1.45-.046-.262c-1.151-6.616 2.801-14.861 11.794-24.804l.772-.844 1.203-1.282.832-.865.425-.435.868-.877.892-.885.455-.445.928-.897.952-.905.976-.913a.84.84 0 0 1 1.184.044z"/><path d="M40.529.559a.84.84 0 0 1 1.153-.272.84.84 0 0 1 .272 1.153c-6.847 11.07-10.26 21.125-10.26 30.162 0 3.862.7 7.291 2.318 12.162l.361 1.066.389 1.115 1.367 3.832.652 1.875.193.575.269.839.176.589.114.407.162.64.139.629.104.524.104.565c.631 3.522.29 6.458-1.269 9.136-.282.484-.599.976-.952 1.48-.651.928-1.403 1.872-2.363 2.98l-.601.685-.733.814-3.04 3.332-.348.386c-7.949 8.899-10.903 16.039-8.639 26.618l.285 1.324.571 2.604.573 2.547.574 2.489.575 2.432.577 2.374.289 1.166.579 2.288.871 3.325a.84.84 0 0 1-.593 1.026.84.84 0 0 1-1.026-.593c-1.267-4.731-2.522-9.866-3.768-15.404l-.574-2.585-.572-2.642c-2.361-11.031.664-18.595 8.655-27.665l1.031-1.148 3.144-3.447.609-.686.557-.643a33.61 33.61 0 0 0 1.994-2.538 19.15 19.15 0 0 0 .876-1.361c1.339-2.3 1.633-4.839 1.068-7.998l-.117-.632-.059-.296-.132-.606-.119-.484-.177-.644-.172-.571-.206-.643-.315-.937-.569-1.633-1.136-3.183-.415-1.171-.385-1.12-.182-.543-.342-1.053c-1.421-4.472-2.049-7.821-2.049-11.599 0-9.382 3.511-19.728 10.51-31.043z"/><path d="M40.46.699a.84.84 0 0 1 1.083-.481.84.84 0 0 1 .481 1.083l-.467 1.231-.867 2.402-.4 1.17-1.526 5.016-.278 1.059c-2.316 9.086-2.142 15.879.472 20.363 1.11 1.904 2.379 3.747 4.096 6.016l3.767 4.89.904 1.202c1.517 2.074 2.579 3.778 3.33 5.433 1.151 2.538 1.525 4.911 1.03 7.301l-.071.326-.078.321-.085.317-.093.315-.102.314-.112.315-.123.316-.134.319-.146.323-.159.329-.173.336-.092.171-.194.348-.21.358-.226.369-.119.189-.252.388-.27.403-.289.419-.309.435-.502.688-.551.733-.815 1.056-.912 1.154-1.016 1.263-2.046 2.503-1.487 1.807-1.408 1.739-.811 1.028-.386.499c-3.165 4.119-5.043 7.328-5.762 10.187-.331 1.318-.506 2.991-.524 5.015v.729l.005.376.02.773.033.802.021.412.052.846.065.875.079.904.044.463.098.948.054.485.118.992.131 1.021.07.521.151 1.064.08.543.17 1.108.09.565.19 1.151.203 1.18.216 1.209.229 1.238.242 1.267.256 1.296.269 1.325.428 2.041.302 1.397a.84.84 0 0 1-.64.997.84.84 0 0 1-.997-.64l-.455-2.118-.287-1.376-.273-1.347-.26-1.318-.246-1.288-.233-1.259-.219-1.23-.206-1.201-.098-.59-.186-1.158-.172-1.129-.159-1.1-.146-1.071-.132-1.042-.061-.51-.112-.999-.098-.97-.085-.941-.071-.912-.031-.445-.051-.869-.021-.424-.031-.826c-.089-2.975.095-5.37.552-7.19.76-3.024 2.624-6.272 5.71-10.343l.739-.962.821-1.041.914-1.134 3.174-3.867 1.325-1.634 1.161-1.458.818-1.052.553-.729.341-.46.32-.44.3-.421.413-.6.252-.381.235-.366.218-.353.201-.341.186-.331.171-.321.157-.313.074-.154.138-.303.125-.298.114-.294.103-.291.048-.145.089-.289.041-.145.076-.29.068-.292.031-.147c.416-2.013.098-4.034-.916-6.269-.695-1.533-1.702-3.147-3.157-5.137l-.517-.691-1.562-2.041-2.196-2.837c-1.948-2.549-3.357-4.572-4.587-6.683-3.308-5.674-3.068-14.379.646-26.139l.37-1.148.392-1.167c.47-1.372.984-2.784 1.542-4.234z"/></g></g></g></g><g transform="matrix(-1 0 0 1 142 289)"><mask id="W" class="B"><use xlink:href="#K"/></mask><g mask="url(#W)"><g transform="matrix(.906308 .422618 -.422618 .906308 54.416773 16.053517)"><path d="M34.73 1C10.37 27.523-1.175 50.886.094 71.089s6.059 38.827 14.37 55.87C41.325 106.791 55.603 85.738 57.3 63.802S51.472 20.932 34.73 1z" fill="url(#J)"/><g transform="translate(12.956)" class="B C E"><path d="M11.019 91.586l-3.876 12.135-.682 2.179-.605 1.974-.543 1.821-.375 1.296-.299 1.061-.34 1.243-.465 1.788-.28 1.142c-1.029 4.305-1.538 7.771-1.538 10.733a.51.51 0 0 1-.509.509.51.51 0 0 1-.509-.509c0-3.975.879-8.773 2.659-15.175l.53-1.865.371-1.263.398-1.325.582-1.895.482-1.541 4.027-12.615.577-1.849.555-1.804.533-1.761.511-1.721.248-.846.48-1.665.459-1.631.222-.804.429-1.585.207-.782.4-1.545.381-1.521c.619-2.517 1.16-4.945 1.632-7.336L16.956 65l.259-1.424.243-1.421.441-2.84c2.653-18.35 3.775-37.785 3.366-58.305a.51.51 0 0 1 .498-.519.51.51 0 0 1 .519.499c.41 20.574-.716 40.064-3.376 58.47a140.61 140.61 0 0 1-1.085 6.44l-.285 1.443c-.342 1.689-.718 3.398-1.132 5.146l-.364 1.507-.382 1.529-1.04 3.931-.451 1.623-.233.823-.482 1.672-.503 1.709-.524 1.748-.546 1.789-.568 1.833-.293.934z"/><path d="M9.334 34.571a.51.51 0 0 1 .609.382c1.469 6.415 4.62 12.157 9.459 17.231a.51.51 0 0 1-.017.719.51.51 0 0 1-.719-.017c-4.963-5.205-8.203-11.109-9.714-17.706a.51.51 0 0 1 .382-.609zm18.08-13.243a.51.51 0 0 1 .684-.224.51.51 0 0 1 .224.684c-1.587 3.129-3.908 5.092-6.941 5.858a.51.51 0 0 1-.618-.369.51.51 0 0 1 .369-.618c2.737-.691 4.824-2.457 6.283-5.332zm-2.352 55.255a.51.51 0 0 1 .719 0 .51.51 0 0 1 0 .719c-3.065 3.066-7.116 4.87-12.133 5.412a.51.51 0 0 1-.56-.451.51.51 0 0 1 .451-.56c4.795-.518 8.629-2.225 11.523-5.12zm8.084-35.228a.51.51 0 0 1 .395.601c-2.755 13.27-8.184 21.746-16.312 25.373a.51.51 0 0 1-.672-.257.51.51 0 0 1 .257-.672c7.785-3.474 13.036-11.672 15.73-24.651a.51.51 0 0 1 .51-.405l.091.011zM1.547 59.403a.51.51 0 0 1 .468.546C.934 74.057 3.552 85.188 9.85 93.363a.51.51 0 0 1-.092.713.51.51 0 0 1-.713-.092C2.578 85.591-.098 74.212 1.001 59.871a.51.51 0 0 1 .546-.468z"/></g></g></g></g></g></g><path d="M230.101 111.115v-2.992h-6.29l-1.258-3.06-3.332.544c.51.782.986 1.632 1.394 2.516h-6.052v2.992h15.538zm11.968 25.738v-17.816h3.264v-3.094h-10.506v-5.508c3.536-.238 6.766-.85 9.69-1.87l-1.564-2.856c-3.332 1.292-7.072 2.006-11.254 2.074v14.688c-.136 5.066-1.19 9.01-3.128 11.866l2.278 2.448c2.482-3.57 3.808-8.33 3.978-14.314v-3.434h4.08v17.816h3.162zm-21.42.102c2.244 0 3.366-1.02 3.366-3.06v-9.112h5.712v-2.924h-5.712v-3.06h6.29v-2.958h-3.468c.51-1.02.986-2.142 1.394-3.4l-2.89-1.02a44.76 44.76 0 0 1-1.428 4.42h-3.23c-.476-1.7-1.02-3.162-1.564-4.386l-2.822 1.054c.578 1.02 1.088 2.142 1.53 3.332h-3.604v2.958h6.596v3.06h-6.052v2.924h6.052v8.364c0 .68-.408 1.02-1.224 1.02a5.56 5.56 0 0 1-1.428-.204l.714 2.992h1.768zm6.188-3.978l2.72-1.02c-.51-1.768-1.224-3.74-2.108-5.916l-2.652.714a51.16 51.16 0 0 1 2.04 6.222zm-10.54 2.89c1.496-2.55 2.618-5.542 3.434-8.976l-2.924-.612c-.612 2.788-1.666 5.44-3.162 7.888l2.652 1.7zm49.13 1.054c2.448-1.326 4.556-2.992 6.324-4.964 1.632 2.04 3.638 3.706 6.052 4.93l1.598-2.822c-2.21-1.122-4.08-2.72-5.644-4.76 2.04-3.128 3.4-6.97 4.148-11.458v-2.754h-12.41v-4.522c4.828-.204 9.18-.884 13.124-2.04l-1.564-2.89c-4.284 1.36-9.112 2.074-14.518 2.176v13.192c-.136 5.644-1.02 10.098-2.72 13.294l2.21 2.346c2.176-3.876 3.332-9.112 3.468-15.64v-2.856h.782c.68 4.352 1.87 8.024 3.604 11.05-1.632 1.904-3.604 3.536-5.984 4.862l1.53 2.856zm-5.78-.238v-14.926h-6.528l.068-2.754v-1.292h7.65v-3.162h-1.632v-8.738h-3.162v8.738h-2.856v-8.058h-3.162v12.512c-.034 6.936-.782 11.968-2.21 15.164l2.448 2.108c1.36-2.652 2.278-6.46 2.686-11.424h3.536v11.832h3.162zm12.24-10.336c-1.224-2.312-2.108-5.066-2.72-8.194h5.644c-.544 3.06-1.53 5.78-2.924 8.194zm40.97 9.248v-3.128h-15.198v-13.668h12.58v-3.128h-12.58v-10.234h-3.332v27.03h-11.934v3.128h30.464zm4.488-7.038c3.264-.408 6.732-1.258 10.404-2.482v-2.89c-2.244.748-4.42 1.36-6.596 1.836 1.904-2.448 4.216-6.324 6.97-11.628l-2.89-1.088-1.87 3.706c-1.224.17-2.414.306-3.604.442 1.632-2.55 3.264-5.882 4.896-9.996l-3.094-1.224c-1.224 3.74-2.618 7.174-4.25 10.234-.408.578-.85.986-1.326 1.19l.782 2.924 5.032-.68c-1.564 2.754-2.856 4.692-3.876 5.814-.408.374-.884.68-1.462.918l.884 2.924zm24.276-17.476l2.516-1.768c-.884-1.122-2.176-2.448-3.808-4.012l-2.448 1.564c1.564 1.53 2.822 2.924 3.74 4.216zm1.292 25.398c1.904 0 3.332-2.21 4.352-6.562l-2.754-1.836c-.544 3.23-1.19 4.862-1.972 4.862-.816 0-1.734-.816-2.754-2.38 1.972-1.768 3.774-3.91 5.474-6.358l-2.55-1.734a29.69 29.69 0 0 1-4.25 5.1c-.442-1.258-.816-2.686-1.088-4.284l-.136-.986 8.806-1.394-.476-3.06-8.704 1.36c-.136-1.224-.204-2.482-.272-3.842l8.5-1.19-.442-2.992-8.126 1.122v-6.868h-3.23v7.31l-4.93.714.476 2.992 4.522-.646c.068 1.36.136 2.652.272 3.91l-5.848.918.442 3.06 5.814-.918c.136.748.272 1.496.442 2.21.408 1.7.884 3.264 1.496 4.692-2.38 1.768-5.1 3.128-8.16 4.08l1.87 2.584c2.72-.816 5.304-2.108 7.752-3.876.17.272.374.578.612.884 1.53 2.04 3.162 3.094 4.862 3.128zm-26.18-.782c4.25-.782 8.024-1.802 11.356-3.094v-3.026c-3.332 1.224-7.276 2.21-11.764 2.958l.408 3.162z" class="C G"/></g></svg>