<svg xmlns="http://www.w3.org/2000/svg" width="72" height="72" fill="#000" xmlns:v="https://vecta.io/nano"><path d="M0 8a8 8 0 0 1 8-8h56a8 8 0 0 1 8 8v56a8 8 0 0 1-8 8H8a8 8 0 0 1-8-8V8z" fill-opacity=".06"/><path d="M35.845 24.009L36 24c.684 0 1.247.515 1.324 1.178l.009.155v9.333h9.333c.684 0 1.247.515 1.324 1.178L48 36c0 .684-.515 1.247-1.178 1.324l-.156.009h-9.333v9.333c0 .684-.515 1.247-1.178 1.324L36 48c-.684 0-1.247-.515-1.324-1.178l-.009-.156v-9.333h-9.333c-.684 0-1.247-.515-1.324-1.178L24 36c0-.684.515-1.247 1.178-1.324l.155-.009h9.333v-9.333c0-.684.515-1.247 1.178-1.324L36 24l-.156.009z" fill-opacity=".45"/></svg>