<svg width="130" height="183" viewBox="0 0 130 183" fill="none" xmlns="http://www.w3.org/2000/svg"><path d="M0 9.15A9.15 9.15 0 0 1 9.15 0h111.7A9.15 9.15 0 0 1 130 9.15v164.7a9.15 9.15 0 0 1-9.15 9.15H9.15A9.15 9.15 0 0 1 0 173.85V9.15z" fill="#fff"/><path d="M119.572 147.962c.072.158-27.66 5.878-54.408 5.878-26.724 0-54.675-5.574-54.383-5.878.485-3.651 2.185-9.408 4.334-12.389 2.004-2.812 4.7-5.015 7.528-6.864 3.072-1.935 6.35-3.408 9.677-4.795 2.939-1.217 5.913-2.374 8.79-3.7.827-.377 1.64-.779 2.454-1.193 3.12-1.716 6.483-3.906 7.71-7.509.048-.414.085-.827.121-1.253.23-2.641.219-5.294.194-7.948a265.142 265.142 0 0 1-.024-3.115c-1.53-1.168 28.934-1.071 27.574-.024 0 1.071-.024 2.142-.024 3.213-.024 2.653-.036 5.306.206 7.959l.11 1.132c.995 2.981 3.557 5.026 6.083 6.608a48.654 48.654 0 0 0 3.946 2.045c2.853 1.338 5.804 2.482 8.718 3.687 3.824 1.582 7.6 3.286 11.012 5.696 3.655 2.519 6.86 5.927 8.548 10.15.874 2.081 1.554 6.048 1.834 8.3z" fill="#E5E6EB"/><path fill-rule="evenodd" clip-rule="evenodd" d="M48.23 115.869c1.34-1.194 2.445-2.615 3.043-4.372.049-.414.085-.828.122-1.254.23-2.641.218-5.294.194-7.947a265.142 265.142 0 0 1-.024-3.115c-1.53-1.169 28.934-1.071 27.574-.025 0 .536-.006 1.071-.012 1.607-.006.535-.012 1.071-.012 1.606-.005.495-.009.99-.011 1.485-3.65 8.057-12.064 13.696-21.862 13.696a24.78 24.78 0 0 1-9.011-1.681z" fill="#DDDFE2"/><path fill-rule="evenodd" clip-rule="evenodd" d="M79.441 98.94c-3.794 4.517-9.039 7.311-14.832 7.311-10.662 0-19.465-9.464-20.793-21.713-1.207-.626-2.109-1.813-2.632-3.085-.765-1.813-1.142-3.76-1.263-5.708-.097-1.874.644-3.773 2.028-5.002a.471.471 0 0 0 .145-.474c-1.408-5.867-2.44-11.89-2.197-17.952.158-3.809.838-7.667 2.453-11.11 1.323-2.824 3.302-5.343 5.791-7.17 5.003-3.699 11.353-4.745 17.375-4.843 3.4.061 6.957.548 9.908 2.41 1.093.67 1.979 1.643 2.683 2.714 2.866.45 5.743 1.509 7.917 3.553 3.144 2.946 4.59 7.303 5.014 11.55.717 7.047-.631 14.105-2.574 20.823a.48.48 0 0 0 .146.5c1.457 1.29 2.186 3.322 1.991 5.293-.218 2.337-.692 4.77-2.003 6.779a4.865 4.865 0 0 1-2.853 2.045.233.233 0 0 0-.183.206c-.498 3.53-1.663 6.95-3.326 10.09-.764 1.383-1.599 2.756-2.795 3.782z" fill="#E5E6EB"/><path fill-rule="evenodd" clip-rule="evenodd" d="M91.3 120.945a76.8 76.8 0 0 1-1.84-.833 48.37 48.37 0 0 1-3.946-2.045s-6.316 9.363-20.338 9.363c-14.023 0-21.612-8.426-21.612-8.426a64.3 64.3 0 0 1-2.453 1.193c-.916.422-1.841.827-2.773 1.222 3.595 3.745 12.68 11.296 27.21 10.89 14.997-.418 22.956-8.012 25.752-11.364z" fill="#FBFCFE"/><path fill-rule="evenodd" clip-rule="evenodd" d="M58.895 58.4c1.516-1.552 3.61-2.31 6.246-2.31 2.347 0 4.224.614 5.668 1.914 1.408 1.263 2.13 2.996 2.13 5.163 0 1.769-.47 3.249-1.336 4.404-.325.397-1.335 1.336-3.068 2.816-.65.578-1.156 1.192-1.48 1.841-.398.722-.578 1.517-.578 2.42v.613h-3.863v-.614c0-1.336.216-2.49.686-3.43.505-1.01 1.877-2.49 4.115-4.476l.614-.686c.65-.83.975-1.697.975-2.636 0-1.263-.361-2.238-1.047-2.96-.722-.722-1.733-1.083-3.033-1.083-1.624 0-2.816.505-3.538 1.516-.65.866-.975 2.13-.975 3.719h-3.827c0-2.636.759-4.694 2.311-6.21zm3.791 19.536c.47-.506 1.083-.722 1.841-.722s1.408.216 1.914.722c.505.47.758 1.083.758 1.841s-.253 1.372-.758 1.877a2.867 2.867 0 0 1-1.914.723c-.758 0-1.372-.253-1.841-.759-.541-.505-.794-1.119-.794-1.84 0-.759.252-1.373.794-1.842z" fill="#C9CDD4"/></svg>