<svg width="20" height="20" viewBox="0 0 20 20" fill="none" xmlns="http://www.w3.org/2000/svg"><path d="M17.07 2.344h-4.922a.118.118 0 0 0-.117.117v1.094c0 .064.053.117.117.117h3.133L11.39 7.564a5.579 5.579 0 0 0-3.42-1.158 5.584 5.584 0 0 0-3.977 1.649 5.596 5.596 0 0 0-1.648 3.976c0 1.502.586 2.916 1.648 3.977a5.584 5.584 0 0 0 3.977 1.648 5.584 5.584 0 0 0 3.976-1.648 5.584 5.584 0 0 0 1.649-3.977c0-1.252-.406-2.44-1.156-3.416l3.89-3.89v3.127c0 .064.053.117.117.117h1.094a.117.117 0 0 0 .117-.117V2.93a.588.588 0 0 0-.586-.586zM7.97 16.172a4.145 4.145 0 0 1-4.14-4.14 4.145 4.145 0 0 1 4.14-4.141 4.145 4.145 0 0 1 4.14 4.14 4.145 4.145 0 0 1-4.14 4.14z" fill="#1677FF"/></svg>