<svg width="331" height="214" viewBox="0 0 331 214" fill="none" xmlns="http://www.w3.org/2000/svg"><path fill-rule="evenodd" clip-rule="evenodd" d="M86.902 142.309h121.196l39.001-15.622 47.243 60.506c.755.967.311 2.217-.984 2.765l-53.67 22.738a3.299 3.299 0 0 1-1.285.254h-.008l.007.014H56.516l.006-.015a3.302 3.302 0 0 1-1.21-.253l-53.67-22.738c-1.295-.548-1.739-1.798-.984-2.765l47.243-60.506 39 15.622zm150.376 68.022c.018.043.035.086.049.129l-29.102-67.855 29.053 67.726z" fill="#E9ECF6" class="bottom-bg"/><path fill-rule="evenodd" clip-rule="evenodd" d="M145.271 1.98L96.675 64.22l20.496 7.424-.004.012H177.796l20.528-7.436-48.597-62.24c-.503-.643-1.363-.97-2.228-.98-.864.01-1.725.337-2.228.98zm2.228-.98l30.297 70.656-30.3-70.649.003-.007z" fill="#1677FF" class="top-bg"/><path d="M47.9 126.687L96.676 64.22l20.528 7.436h60.593l20.528-7.436 48.775 62.467-39.001 15.622H86.841l.01-.021-38.95-15.601z" fill="#F6F9FF" class="middle-bg"/><path d="M145.272 1.98c.503-.643 1.363-.97 2.228-.98 0 0-89.452 208.485-90.903 211.95 0 0-.893-.087-1.285-.254l-53.67-22.738c-1.295-.548-1.739-1.798-.984-2.765L145.272 1.981z" fill="url(#paint0_linear_4173_211565)" fill-opacity=".6"/><path d="M147.499 1L57.721 210.331l-1.124 2.619" stroke="#fff" stroke-opacity=".1"/><path d="M149.728 1.98c-.503-.643-1.363-.97-2.228-.98l89.778 209.331 1.125 2.619s.893-.087 1.285-.254l53.67-22.738c1.295-.548 1.739-1.798.984-2.765L149.728 1.981z" fill="url(#paint1_linear_4173_211565)" fill-opacity=".5"/><path d="M55.312 212.696c.37.157.786.244 1.21.253l-.007.015h181.886l-.006-.014h.008c.45 0 .893-.087 1.285-.254-.392.167-1.285.254-1.285.254L147.5 1S58.048 209.485 56.597 212.95c0 0-.893-.087-1.285-.254z" fill="url(#paint2_linear_4173_211565)"/><path d="M147.5 1l90.949 212.082m54.909-23.124c1.295-.548 1.739-1.798.984-2.765" stroke="#fff" stroke-opacity=".1"/><path d="M203.613 37.638h-24.3" stroke="#E4EAFF" stroke-width="1.246"/><path d="M296.144 157.077h-24.3M246.382 93.984h-24.3" stroke="#EDF1FC" stroke-width="1.246"/><path d="M95.26 102.432h4.98v.876h-4.176l-.288 2.868h.048c.24-.288.552-.504.924-.648a2.724 2.724 0 0 1 1.092-.204c.816 0 1.476.252 1.98.768.504.528.768 1.248.768 2.172 0 .864-.312 1.572-.924 2.124-.576.516-1.296.78-2.136.78-.756 0-1.404-.204-1.932-.612-.6-.456-.924-1.08-.984-1.86h.972c.048.54.264.96.648 1.248.336.252.78.384 1.308.384.6 0 1.092-.192 1.488-.576.384-.384.588-.876.588-1.476 0-.684-.192-1.212-.552-1.584-.348-.384-.84-.564-1.464-.564-.408 0-.768.084-1.092.264a1.7 1.7 0 0 0-.768.768h-.936l.456-4.728zm9.535-.168c1.02 0 1.788.444 2.316 1.356.456.768.684 1.8.684 3.096s-.228 2.328-.684 3.096c-.528.9-1.296 1.356-2.316 1.356-1.032 0-1.8-.456-2.316-1.356-.456-.768-.684-1.8-.684-3.096s.228-2.328.684-3.096c.516-.912 1.284-1.356 2.316-1.356zm0 .84c-.768 0-1.32.408-1.656 1.236-.24.576-.36 1.368-.36 2.376 0 .996.12 1.788.36 2.376.336.816.888 1.236 1.656 1.236.768 0 1.32-.42 1.656-1.236.24-.588.372-1.38.372-2.376 0-1.008-.132-1.8-.372-2.376-.336-.828-.888-1.236-1.656-1.236zm12.464 3.204c.636 0 1.128.228 1.476.708.3.408.456.96.456 1.644 0 .672-.156 1.224-.456 1.644-.348.456-.84.696-1.476.696-.648 0-1.14-.24-1.476-.696-.312-.432-.456-.972-.456-1.644 0-.684.144-1.236.456-1.644.336-.48.828-.708 1.476-.708zm-1.032-4.044h.768l-4.8 8.904h-.78l4.812-8.904zm-5.064.168c.636 0 1.128.228 1.476.708.3.408.456.96.456 1.644 0 .672-.156 1.224-.456 1.644-.348.456-.84.696-1.476.696-.648 0-1.14-.24-1.476-.696-.312-.432-.456-.972-.456-1.644 0-.684.144-1.236.456-1.644.336-.48.828-.708 1.476-.708zm6.096 4.524c-.372 0-.636.168-.804.504-.156.288-.228.684-.228 1.2 0 .492.072.888.228 1.176.168.336.432.516.804.516.36 0 .624-.18.804-.528.144-.288.228-.672.228-1.164 0-.504-.084-.9-.228-1.188-.18-.348-.444-.516-.804-.516zm-6.096-3.876c-.372 0-.636.168-.804.504-.156.288-.228.684-.228 1.2 0 .492.072.888.228 1.176.168.336.432.516.804.516.36 0 .624-.18.804-.528.144-.288.228-.672.228-1.164 0-.504-.084-.9-.24-1.188-.168-.348-.432-.516-.792-.516zm18.608-.024v.888l-6.42 2.772 6.42 2.772v.888l-7.488-3.24v-.84l7.488-3.24zm5.292 2.412v.972h5.844v-.972h-5.844zm5.844-1.092v-.936h-5.844v.936h5.844zm-2.724-3.312c.144.36.3.78.444 1.236h3.528v5.268h-4.02c.372.6.828 1.14 1.368 1.596.792-.336 1.56-.864 2.28-1.572l.888.888a8.374 8.374 0 0 1-2.136 1.416c.888.528 1.92.912 3.096 1.164l-.588 1.188c-2.904-.732-4.98-2.292-6.216-4.68h-1.764v3.18a21.53 21.53 0 0 0 2.784-.804l.312 1.188c-1.152.384-2.604.756-4.344 1.116l-.3-1.152c.18-.096.276-.264.276-.492V102.3h3.528a8.964 8.964 0 0 0-.48-1.02l1.344-.216zm8.22-.024l1.224.12c-.132.768-.264 1.476-.384 2.136h1.968v.684c-.072 1.872-.432 3.492-1.068 4.872.636.504 1.164.948 1.572 1.356l-.852.984a19.753 19.753 0 0 0-1.32-1.224 9.15 9.15 0 0 1-2.148 2.364l-.864-1.068c.816-.6 1.5-1.296 2.028-2.112-.54-.444-1.128-.9-1.764-1.368.348-1.008.66-2.1.948-3.276h-1.104v-1.212h1.368a58.56 58.56 0 0 0 .396-2.256zm.732 7.056c.468-1.056.756-2.256.852-3.588h-.996c-.264 1.152-.54 2.112-.828 2.892.348.24.672.468.972.696zm2.316-2.052h2.556v-1.32a14.49 14.49 0 0 0 1.692-1.872h-3.912v-1.224h5.352v1.224a17.449 17.449 0 0 1-1.872 2.256v.936h2.292v1.224h-2.292v3.444c0 .936-.36 1.404-1.056 1.404h-1.8l-.324-1.188c.48.012 1.02.024 1.608.024.204 0 .312-.204.312-.612v-3.072h-2.556v-1.224zm19.044-2.94v.864l-6.168 1.932 6.168 1.932v.876l-7.488-2.364v-.888l7.488-2.352zm-7.488 4.236l7.488 2.352v.816l-7.488-2.352v-.816zm16.07-5.076c.888 0 1.596.228 2.1.696.456.42.696.948.696 1.572 0 .456-.108.84-.324 1.152-.24.336-.576.588-1.02.744v.024c.444.108.828.36 1.14.744.336.408.504.888.504 1.44 0 .756-.264 1.368-.792 1.824-.552.468-1.32.708-2.304.708-.996 0-1.764-.24-2.304-.708-.528-.456-.792-1.068-.792-1.824 0-.552.168-1.032.504-1.44.312-.384.684-.636 1.14-.744v-.024c-.456-.156-.792-.408-1.02-.744-.216-.312-.324-.696-.324-1.152 0-.624.228-1.152.696-1.572.504-.468 1.2-.696 2.1-.696zm0 .804c-.612 0-1.092.156-1.428.468-.3.264-.444.612-.444 1.032 0 .432.132.792.396 1.056.312.312.804.48 1.476.48.66 0 1.152-.168 1.476-.48.264-.264.396-.624.396-1.056 0-.42-.156-.768-.444-1.032-.348-.312-.828-.468-1.428-.468zm0 3.804c-.696 0-1.224.168-1.596.516-.36.312-.528.732-.528 1.248 0 .504.168.924.528 1.236.36.324.9.492 1.596.492.696 0 1.224-.168 1.608-.504.336-.312.516-.72.516-1.224 0-.516-.18-.936-.516-1.248-.384-.348-.924-.516-1.608-.516zm7.195-4.608c1.02 0 1.788.444 2.316 1.356.456.768.684 1.8.684 3.096s-.228 2.328-.684 3.096c-.528.9-1.296 1.356-2.316 1.356-1.032 0-1.8-.456-2.316-1.356-.456-.768-.684-1.8-.684-3.096s.228-2.328.684-3.096c.516-.912 1.284-1.356 2.316-1.356zm0 .84c-.768 0-1.32.408-1.656 1.236-.24.576-.36 1.368-.36 2.376 0 .996.12 1.788.36 2.376.336.816.888 1.236 1.656 1.236.768 0 1.32-.42 1.656-1.236.24-.588.372-1.38.372-2.376 0-1.008-.132-1.8-.372-2.376-.336-.828-.888-1.236-1.656-1.236zm12.463 3.204c.636 0 1.128.228 1.476.708.3.408.456.96.456 1.644 0 .672-.156 1.224-.456 1.644-.348.456-.84.696-1.476.696-.648 0-1.14-.24-1.476-.696-.312-.432-.456-.972-.456-1.644 0-.684.144-1.236.456-1.644.336-.48.828-.708 1.476-.708zm-1.032-4.044h.768l-4.8 8.904h-.78l4.812-8.904zm-5.064.168c.636 0 1.128.228 1.476.708.3.408.456.96.456 1.644 0 .672-.156 1.224-.456 1.644-.348.456-.84.696-1.476.696-.648 0-1.14-.24-1.476-.696-.312-.432-.456-.972-.456-1.644 0-.684.144-1.236.456-1.644.336-.48.828-.708 1.476-.708zm6.096 4.524c-.372 0-.636.168-.804.504-.156.288-.228.684-.228 1.2 0 .492.072.888.228 1.176.168.336.432.516.804.516.36 0 .624-.18.804-.528.144-.288.228-.672.228-1.164 0-.504-.084-.9-.228-1.188-.18-.348-.444-.516-.804-.516zm-6.096-3.876c-.372 0-.636.168-.804.504-.156.288-.228.684-.228 1.2 0 .492.072.888.228 1.176.168.336.432.516.804.516.36 0 .624-.18.804-.528.144-.288.228-.672.228-1.164 0-.504-.084-.9-.24-1.188-.168-.348-.432-.516-.792-.516z" fill="#1F1F1F" class="middle-text"/><path d="M141.216 164.852h1.392v-1.704h1.188v1.704h2.1v3.492h.612v1.164h-2.328c.528 1.548 1.344 2.796 2.448 3.756l-.864 1.02c-1.044-1.056-1.824-2.328-2.352-3.816-.396 1.704-1.08 2.988-2.064 3.84l-.768-1.02c.936-.792 1.548-2.052 1.836-3.78h-1.452v-1.164h1.584c.036-.456.06-.936.06-1.416v-.912h-1.392v-1.164zm2.58 1.164v.636c0 .588-.024 1.152-.072 1.692h.96v-2.328h-.888zm-6.708-.492c-.192.504-.396.984-.612 1.416l-1.056-.66c.504-.984.852-2.04 1.056-3.156l1.2.264c-.072.348-.156.684-.24.996h2.952v1.14h-1.596v1.728h1.944v1.164h-1.944v3.768l.636-.096v-2.916h1.104v4.476h-1.104v-.432l-3.576.468v-4.512h1.104v3.288l.672-.096v-3.948h-2.004v-1.164h2.004v-1.728h-.54zm12.696-2.124l1.176.468a28.21 28.21 0 0 1-.504 1.272h1.92v-1.992h1.272v1.992h3.876v1.224h-3.876v.492a13.985 13.985 0 0 1-.144 1.476h4.8v1.212h-4.224c.564 1.524 2.028 2.724 4.38 3.6l-.696 1.116c-2.424-1.08-3.984-2.496-4.668-4.26a7.256 7.256 0 0 1-.852 1.668c-.828 1.128-2.172 1.98-4.044 2.58l-.684-1.068c1.872-.624 3.132-1.416 3.78-2.364.24-.384.444-.816.612-1.272h-4.2v-1.212h4.5c.084-.468.144-.96.168-1.476v-.492h-2.556c-.396.648-.828 1.212-1.308 1.668l-1.068-.936c1.056-.936 1.836-2.16 2.34-3.696zm-12.054 21.704v.864l-6.168 1.932 6.168 1.932v.876l-7.488-2.364v-.888l7.488-2.352zm-7.488 4.236l7.488 2.352v.816l-7.488-2.352v-.816zm13.729-4.908h4.98v.876h-4.176l-.288 2.868h.048c.24-.288.552-.504.924-.648a2.724 2.724 0 0 1 1.092-.204c.816 0 1.476.252 1.98.768.504.528.768 1.248.768 2.172 0 .864-.312 1.572-.924 2.124-.576.516-1.296.78-2.136.78-.756 0-1.404-.204-1.932-.612-.6-.456-.924-1.08-.984-1.86h.972c.048.54.264.96.648 1.248.336.252.78.384 1.308.384.6 0 1.092-.192 1.488-.576.384-.384.588-.876.588-1.476 0-.684-.192-1.212-.552-1.584-.348-.384-.84-.564-1.464-.564-.408 0-.768.084-1.092.264a1.7 1.7 0 0 0-.768.768h-.936l.456-4.728zm9.535-.168c1.02 0 1.788.444 2.316 1.356.456.768.684 1.8.684 3.096s-.228 2.328-.684 3.096c-.528.9-1.296 1.356-2.316 1.356-1.032 0-1.8-.456-2.316-1.356-.456-.768-.684-1.8-.684-3.096s.228-2.328.684-3.096c.516-.912 1.284-1.356 2.316-1.356zm0 .84c-.768 0-1.32.408-1.656 1.236-.24.576-.36 1.368-.36 2.376 0 .996.12 1.788.36 2.376.336.816.888 1.236 1.656 1.236.768 0 1.32-.42 1.656-1.236.24-.588.372-1.38.372-2.376 0-1.008-.132-1.8-.372-2.376-.336-.828-.888-1.236-1.656-1.236zm12.464 3.204c.636 0 1.128.228 1.476.708.3.408.456.96.456 1.644 0 .672-.156 1.224-.456 1.644-.348.456-.84.696-1.476.696-.648 0-1.14-.24-1.476-.696-.312-.432-.456-.972-.456-1.644 0-.684.144-1.236.456-1.644.336-.48.828-.708 1.476-.708zm-1.032-4.044h.768l-4.8 8.904h-.78l4.812-8.904zm-5.064.168c.636 0 1.128.228 1.476.708.3.408.456.96.456 1.644 0 .672-.156 1.224-.456 1.644-.348.456-.84.696-1.476.696-.648 0-1.14-.24-1.476-.696-.312-.432-.456-.972-.456-1.644 0-.684.144-1.236.456-1.644.336-.48.828-.708 1.476-.708zm6.096 4.524c-.372 0-.636.168-.804.504-.156.288-.228.684-.228 1.2 0 .492.072.888.228 1.176.168.336.432.516.804.516.36 0 .624-.18.804-.528.144-.288.228-.672.228-1.164 0-.504-.084-.9-.228-1.188-.18-.348-.444-.516-.804-.516zm-6.096-3.876c-.372 0-.636.168-.804.504-.156.288-.228.684-.228 1.2 0 .492.072.888.228 1.176.168.336.432.516.804.516.36 0 .624-.18.804-.528.144-.288.228-.672.228-1.164 0-.504-.084-.9-.24-1.188-.168-.348-.432-.516-.792-.516z" fill="#1F1F1F" class="bottom-text"/><path d="M137.204 31.639h3.66V30.09h-4.212v-1.224h4.212v-1.523h1.272v1.523h4.32v1.224h-4.32v1.549h3.768v1.247h-3.768v1.524h4.608v1.237h-4.608v2.784h-1.272v-2.784h-4.572V34.41h4.572v-1.525h-3.66v-1.248zm12.708-1.884h7.164v.983h-7.164v-.983zm.252 1.44h6.672v2.435h-6.672v-2.436zm5.508 1.572v-.66h-4.344v.66h4.344zm2.22 1.295v4.38h-1.188v-.336h-6.372v.349h-1.188v-4.392h8.748zm-7.56 3.073h2.556v-.636h-2.556v.636zm3.78 0h2.592v-.636h-2.592v.636zm-3.78-1.524h2.556v-.6h-2.556v.6zm3.78-.6v.6h2.592v-.6h-2.592zm4.536-6.865v2.448h-1.2V29.25h-7.896v1.345h-1.2v-2.448h4.488c-.12-.252-.252-.492-.384-.72l1.332-.216c.132.288.264.6.384.936h4.476zM130.742 49.24l7.488 3.24v.84l-7.488 3.24v-.889l6.42-2.772-6.42-2.772v-.887zm13.344-.792c.888 0 1.596.227 2.1.695.456.42.696.948.696 1.572 0 .456-.108.84-.324 1.153-.24.336-.576.588-1.02.744v.024c.444.108.828.36 1.14.744.336.407.504.888.504 1.44 0 .755-.264 1.367-.792 1.823-.552.468-1.32.708-2.304.708-.996 0-1.764-.24-2.304-.708-.528-.456-.792-1.068-.792-1.824 0-.551.168-1.032.504-1.44.312-.383.684-.636 1.14-.743v-.024c-.456-.156-.792-.408-1.02-.744-.216-.313-.324-.697-.324-1.152 0-.625.228-1.153.696-1.573.504-.468 1.2-.696 2.1-.696zm0 .803c-.612 0-1.092.157-1.428.468-.3.264-.444.612-.444 1.032 0 .432.132.792.396 1.056.312.313.804.48 1.476.48.66 0 1.152-.168 1.476-.48.264-.264.396-.623.396-1.055 0-.42-.156-.768-.444-1.032-.348-.313-.828-.468-1.428-.468zm0 3.804c-.696 0-1.224.168-1.596.517-.36.312-.528.732-.528 1.248 0 .503.168.923.528 1.235.36.325.9.492 1.596.492.696 0 1.224-.167 1.608-.504.336-.312.516-.72.516-1.224 0-.515-.18-.935-.516-1.247-.384-.349-.924-.517-1.608-.517zm7.196-4.608c1.02 0 1.788.445 2.316 1.357.456.768.684 1.8.684 3.096 0 1.295-.228 2.328-.684 3.096-.528.9-1.296 1.355-2.316 1.355-1.032 0-1.8-.456-2.316-1.355-.456-.768-.684-1.8-.684-3.096 0-1.297.228-2.328.684-3.096.516-.912 1.284-1.356 2.316-1.356zm0 .84c-.768 0-1.32.408-1.656 1.236-.24.577-.36 1.369-.36 2.377 0 .995.12 1.788.36 2.376.336.816.888 1.236 1.656 1.236.768 0 1.32-.42 1.656-1.236.24-.588.372-1.38.372-2.377 0-1.008-.132-1.8-.372-2.376-.336-.828-.888-1.236-1.656-1.236zm12.463 3.204c.636 0 1.128.228 1.476.709.3.407.456.96.456 1.644 0 .671-.156 1.223-.456 1.643-.348.457-.84.697-1.476.697-.648 0-1.14-.24-1.476-.697-.312-.431-.456-.971-.456-1.643 0-.685.144-1.237.456-1.645.336-.48.828-.708 1.476-.708zm-1.032-4.044h.768l-4.8 8.904h-.78l4.812-8.904zm-5.064.169c.636 0 1.128.227 1.476.707.3.408.456.96.456 1.645 0 .672-.156 1.224-.456 1.644-.348.456-.84.696-1.476.696-.648 0-1.14-.24-1.476-.697-.312-.431-.456-.971-.456-1.643 0-.684.144-1.236.456-1.645.336-.48.828-.708 1.476-.708zm6.096 4.523c-.372 0-.636.169-.804.505-.156.288-.228.684-.228 1.2 0 .491.072.887.228 1.175.168.337.432.517.804.517.36 0 .624-.18.804-.528.144-.288.228-.672.228-1.164 0-.505-.084-.9-.228-1.189-.18-.348-.444-.516-.804-.516zm-6.096-3.875c-.372 0-.636.168-.804.504-.156.287-.228.683-.228 1.2 0 .492.072.888.228 1.175.168.336.432.516.804.516.36 0 .624-.18.804-.528.144-.288.228-.672.228-1.163 0-.505-.084-.9-.24-1.188-.168-.349-.432-.517-.792-.517z" fill="#fff" class="top-text"/><defs><linearGradient id="paint0_linear_4173_211565" x1="5.286" y1="3.43" x2="119.603" y2="198.248" gradientUnits="userSpaceOnUse"><stop stop-opacity=".05"/><stop offset="1" stop-opacity=".1"/></linearGradient><linearGradient id="paint1_linear_4173_211565" x1="152.495" y1="3.43" x2="266.813" y2="198.248" gradientUnits="userSpaceOnUse"><stop stop-opacity=".05"/><stop offset="1" stop-opacity=".1"/></linearGradient><linearGradient id="paint2_linear_4173_211565" x1="137.958" y1="1" x2="109.9" y2="201.962" gradientUnits="userSpaceOnUse"><stop stop-opacity=".05"/><stop offset="1" stop-opacity=".02"/></linearGradient></defs></svg>