<svg width="12" height="18" viewBox="0 0 12 18" fill="none" xmlns="http://www.w3.org/2000/svg"><path d="M9.922 9.719a5.514 5.514 0 0 0 1.625-3.922 5.503 5.503 0 0 0-1.625-3.922A5.514 5.514 0 0 0 6 .25c-1.48 0-2.875.576-3.922 1.625A5.514 5.514 0 0 0 .453 5.797a5.505 5.505 0 0 0 1.623 3.922 5.493 5.493 0 0 0 3.182 1.576v2.08H3.03a.157.157 0 0 0-.156.156v1.172c0 .086.07.156.156.156h2.227v2.735c0 .086.07.156.156.156h1.172c.086 0 .156-.07.156-.156v-2.735H8.97c.086 0 .156-.07.156-.156v-1.172a.157.157 0 0 0-.156-.156H6.742v-2.08a5.505 5.505 0 0 0 3.18-1.576zM6 9.859a4.038 4.038 0 0 1-2.873-1.19 4.034 4.034 0 0 1-1.19-2.872c0-1.086.422-2.104 1.19-2.873A4.026 4.026 0 0 1 6 1.734c1.086 0 2.104.422 2.873 1.19a4.034 4.034 0 0 1 1.19 2.873 4.038 4.038 0 0 1-1.19 2.873A4.038 4.038 0 0 1 6 9.86z" fill="#EB2F96"/></svg>