<svg fill="none" xmlns="http://www.w3.org/2000/svg" viewBox="0 0 73 72" class="design-iconfont">
  <g clip-path="url(#sr3ds3dq5__clip0_6883_195533)">
    <path d="M36.5 6C53.0685 6 66.5 19.4315 66.5 36C66.5 52.5685 53.0685 66 36.5 66C19.9315 66 6.5 52.5685 6.5 36C6.5 19.4315 19.9315 6 36.5 6ZM46.159 26.909L32.75 40.318L26.841 34.409C25.9623 33.5303 24.5377 33.5303 23.659 34.409C22.7803 35.2877 22.7803 36.7123 23.659 37.591L31.159 45.091C32.0377 45.9697 33.4623 45.9697 34.341 45.091L49.341 30.091C50.2197 29.2123 50.2197 27.7877 49.341 26.909C48.4623 26.0303 47.0377 26.0303 46.159 26.909Z" fill="#52C41A"/>
  </g>
  <defs>
    <clipPath id="sr3ds3dq5__clip0_6883_195533">
      <path fill="#fff" transform="translate(.5)" d="M0 0H72V72H0z"/>
    </clipPath>
  </defs>
</svg>
