<svg fill="none" xmlns="http://www.w3.org/2000/svg" viewBox="0 0 73 72" class="design-iconfont">
  <g clip-path="url(#1ytvdpyja__clip0_6883_195395)">
    <path fill-rule="evenodd" clip-rule="evenodd" d="M66.5093 36.0046C66.5093 19.4335 53.0759 6 36.5048 6C19.9335 6 6.5 19.4335 6.5 36.0046C6.5 52.5757 19.9335 66.0094 36.5048 66.0094C53.0759 66.0094 66.5093 52.5757 66.5093 36.0046ZM33.5153 39.3556C33.6875 40.8478 34.9547 42.0067 36.4934 42.0079C38.0318 42.0088 39.3005 40.8514 39.4748 39.3595L39.4952 39.0097L39.506 22.5049L39.4862 22.1551C39.3137 20.6629 38.0465 19.504 36.5081 19.5031C34.9694 19.5019 33.7007 20.6593 33.5264 22.1512L33.506 22.501L33.4952 39.0058L33.5153 39.3556ZM32.7515 49.5019C32.7515 51.5755 34.4324 53.2564 36.506 53.2564C38.5796 53.2564 40.2605 51.5755 40.2605 49.5019C40.2605 47.4283 38.5796 45.7473 36.506 45.7473C34.4324 45.7473 32.7515 47.4283 32.7515 49.5019Z" fill="#FAAD14"/>
  </g>
  <defs>
    <clipPath id="1ytvdpyja__clip0_6883_195395">
      <path fill="#fff" transform="translate(.5)" d="M0 0H72V72H0z"/>
    </clipPath>
  </defs>
</svg>
